<?xml version="1.0" standalone="no"?>
<!DOCTYPE svg PUBLIC "-//W3C//DTD SVG 1.1//EN" "http://www.w3.org/Graphics/SVG/1.1/DTD/svg11.dtd" >
<svg>
<metadata>
Created by FontForge 20110222 at Wed Oct 10 11:26:23 2012
 By Stefan Warting
(c) 2011 The Monotype Corporation. All Rights Reserved.
</metadata>
<defs>
<font id="ArialMT" horiz-adv-x="0" >
  <font-face 
    font-family="Arial"
    font-weight="400"
    font-stretch="normal"
    units-per-em="2048"
    panose-1="2 11 6 4 2 2 2 2 2 4"
    ascent="1638"
    descent="-410"
    x-height="1062"
    cap-height="1466"
    bbox="-1115.02 -665 3727 2060"
    underline-thickness="150"
    underline-position="-142"
    unicode-range="U+0020-FFFC"
  />
<missing-glyph horiz-adv-x="1260" 
d="M348 0v1280h840v-1280h-840zM374 32h788v1216h-788v-1216z" />
    <glyph glyph-name="lillah" unicode="&#xfedf;&#xfee0;&#x6c1;" horiz-adv-x="1035" 
d="M741 1361l-17 -8q-21 61 -63 114q-10 14 -55 59q8 42 38 42t48 -36q25 -57 29 -69q14 -42 20 -102zM888 1315q0 -72 -21.5 -125.5t-55.5 -53.5q-18 0 -33.5 5.5t-34.5 18.5q-9 -30 -30 -54q-26 -31 -53 -31q-35 0 -52 27t-17 72q0 18 3 40.5t5 34.5l25 12
q0 -48 11.5 -65.5t38.5 -17.5q17 0 36 42.5t24 82.5l19 6q9 -40 14 -47q12 -19 43 -19q22 0 37 41q10 27 17 65l20 6q4 -20 4 -40zM1126 474q0 -37 -4 -68q-6 -50 -23 -88l-10 -25q-98 0 -160 35q-50 28 -88 87q-33 -68 -79 -97q-39 -25 -91 -25q-53 0 -103.5 38t-68.5 98
q-33 -59 -79 -97.5t-89 -38.5q-92 0 -146 16.5t-54 42.5q0 84 93.5 190.5t227.5 182.5q-3 15 -7.5 41t-4.5 41q0 34 19 76q15 34 42 72q10 -82 22 -164q17 -123 35 -229q10 -55 37.5 -79t74.5 -24q37 0 58 12.5t53 72.5l-48 273q-6 32 -9 52q-5 39 -5 56q0 35 19 77
q15 34 41 71q8 -51 17.5 -110.5t28.5 -173.5l29 -172q13 -73 39 -111q32 -46 87 -46q22 0 36.5 22.5t18.5 61.5l-47 273q-6 42 -8 52q-5 41 -5 56q0 34 18 77q17 37 41 71q3 -25 28 -160q29 -164 42 -248q22 -142 22 -191zM482 500l-16 111q-72 -32 -110 -63
q-42 -35 -71 -91q18 -9 40.5 -14t63.5 -5q23 0 47.5 16.5t45.5 45.5z" />
    <glyph glyph-name="uni06440622.isol" unicode="&#xfedf;&#xfe82;" horiz-adv-x="913" arabic-form="isolated" 
d="M951 1350l-39 -180l-48 29l1 -91q0 -134 -28 -260q-30 -138 -95 -273q31 -70 43 -110q19 -63 19 -128q0 -37 -1.5 -63t-7.5 -61q-87 -24 -186 -37.5t-192 -13.5q1 19 1 32q4 76 19 141q140 91 236 236q-58 132 -84 187q-29 60 -98 187q-25 43 -45 69q-27 35 -42 35
q-11 0 -36 -15q-13 -8 -22 -8q-18 0 -56 44q-34 39 -71 96q-29 46 -40 76.5t-11 73.5q0 62 7 97q10 53 34 53q33 0 97 -78q57 -70 126 -184q62 -101 122 -218l83 -164q37 -74 76 -168q55 135 75 273q18 120 18 306l-46 33q0 66 9 119.5t27 97.5l18 -6q4 -43 40 -69
q20 -14 50.5 -32t46.5 -26zM738 377q0 22 -7 45.5t-30 77.5q-25 -39 -74 -90t-96 -87q97 0 138 7q69 12 69 47zM487 1654q-23 -32 -46 -49q-34 -24 -73 -24q-41 0 -78 15q-81 33 -86 33q-10 0 -20 -3.5t-22 -10.5l-9 13q20 36 29 45q19 20 50 20q8 0 90 -32q41 -16 68 -16
q43 0 86 23z" />
    <glyph glyph-name="uni06440622.fina" unicode="&#xfee0;&#xfe82;" horiz-adv-x="1009" arabic-form="final" 
d="M780 816q0 -20 -1.5 -34t-8.5 -35q-46 125 -136 258q-100 147 -158 147q-12 0 -24 -26t-29 -26q-22 0 -70 35q-59 44 -96 102q-48 78 -48 166q0 63 34 63q59 0 184 -91q140 -101 236 -236q117 -165 117 -323zM1119 293h-50q-69 0 -110 91q-50 110 -50 333q0 16 -3 43
t-3 34q-79 -267 -140 -366q-73 -116 -206 -154q-113 -32 -386 -32v28q221 81 329 140q175 94 265 217q109 148 109 351q0 98 -10 183t-28 174l27 84q16 49 30 83q21 -144 40 -311q13 -115 26 -247q15 -162 27 -261q14 -126 44 -180q20 -36 39 -36h50v-174zM505 1654
q-23 -32 -47 -49q-33 -24 -73 -24q-41 0 -77 15q-82 33 -87 33q-9 0 -19 -3.5t-22 -10.5l-9 13q20 36 29 45q19 20 50 20q7 0 89 -32q41 -16 69 -16q43 0 86 23z" />
    <glyph glyph-name="uni06440623.isol" unicode="&#xfedf;&#xfe84;" horiz-adv-x="913" arabic-form="isolated" 
d="M951 1350l-39 -180l-48 29l1 -91q0 -134 -28 -260q-30 -138 -95 -273q31 -70 43 -110q19 -63 19 -128q0 -37 -1.5 -63t-7.5 -61q-87 -24 -186 -37.5t-192 -13.5q1 19 1 32q4 76 19 141q140 91 236 236q-58 132 -84 187q-29 60 -98 187q-25 43 -45 69q-27 35 -42 35
q-11 0 -36 -15q-13 -8 -22 -8q-18 0 -56 44q-34 39 -71 96q-29 46 -40 76.5t-11 73.5q0 62 7 97q10 53 34 53q33 0 97 -78q57 -70 126 -184q62 -101 122 -218l83 -164q37 -74 76 -168q55 135 75 273q18 120 18 306l-46 33q0 66 9 119.5t27 97.5l18 -6q4 -43 40 -69
q20 -14 50.5 -32t46.5 -26zM738 377q0 22 -7 45.5t-30 77.5q-25 -39 -74 -90t-96 -87q97 0 138 7q69 12 69 47zM361 1638q0 -25 -25 -45q-18 -13 -52 -28l-153 -64q0 46 82 81q-25 16 -38 31q-17 19 -17 40q0 31 43 87q49 62 85 62q17 0 29 -13.5t12 -35.5q0 -14 -5 -28.5
t-14 -32.5q-26 28 -55 28q-18 0 -36 -9t-18 -21q0 -15 38.5 -41t65.5 -26q18 0 25.5 1.5t32.5 13.5z" />
    <glyph glyph-name="uni06440623.fina" unicode="&#xfee0;&#xfe84;" horiz-adv-x="1009" arabic-form="final" 
d="M780 816q0 -20 -1.5 -34t-8.5 -35q-46 125 -136 258q-100 147 -158 147q-12 0 -24 -26t-29 -26q-22 0 -70 35q-59 44 -96 102q-48 78 -48 166q0 63 34 63q59 0 184 -91q140 -101 236 -236q117 -165 117 -323zM1119 293h-50q-69 0 -110 91q-50 110 -50 333q0 16 -3 43
t-3 34q-79 -267 -140 -366q-73 -116 -206 -154q-113 -32 -386 -32v28q221 81 329 140q175 94 265 217q109 148 109 351q0 98 -10 183t-28 174l27 84q16 49 30 83q21 -144 40 -311q13 -115 26 -247q15 -162 27 -261q14 -126 44 -180q20 -36 39 -36h50v-174zM387 1638
q0 -25 -25 -45q-18 -13 -52 -28l-153 -64q0 46 82 81q-25 16 -38 31q-17 19 -17 40q0 31 43 87q49 62 85 62q17 0 29 -13.5t12 -35.5q0 -14 -5 -28.5t-14 -32.5q-26 28 -55 28q-18 0 -35.5 -9t-17.5 -21q0 -15 38 -41t65 -26q18 0 25.5 1.5t32.5 13.5z" />
    <glyph glyph-name="uni06440625.isol" unicode="&#xfedf;&#xfe88;" horiz-adv-x="913" arabic-form="isolated" 
d="M951 1350l-39 -180l-48 29l1 -91q0 -134 -28 -260q-30 -138 -95 -273q31 -70 43 -110q19 -63 19 -128q0 -37 -1.5 -63t-7.5 -61q-87 -24 -186 -37.5t-192 -13.5q1 19 1 32q4 76 19 141q140 91 236 236q-58 132 -84 187q-29 60 -98 187q-25 43 -45 69q-27 35 -42 35
q-11 0 -36 -15q-13 -8 -22 -8q-18 0 -56 44q-34 39 -71 96q-29 46 -40 76.5t-11 73.5q0 62 7 97q10 53 34 53q33 0 97 -78q57 -70 126 -184q62 -101 122 -218l83 -164q37 -74 76 -168q55 135 75 273q18 120 18 306l-46 33q0 66 9 119.5t27 97.5l18 -6q4 -43 40 -69
q20 -14 50.5 -32t46.5 -26zM738 377q0 22 -7 45.5t-30 77.5q-25 -39 -74 -90t-96 -87q97 0 138 7q69 12 69 47zM611 -90q0 -25 -25 -45q-18 -13 -52 -28l-152 -64q0 46 82 81q-26 16 -39 31q-17 19 -17 40q0 31 43 87q49 62 86 62q16 0 28 -13.5t12 -35.5q0 -14 -5 -28.5
t-14 -32.5q-26 28 -55 28q-18 0 -35.5 -9t-17.5 -21q0 -15 38 -41t65 -26q18 0 26 1.5t32 13.5z" />
    <glyph glyph-name="uni06440625.fina" unicode="&#xfee0;&#xfe88;" horiz-adv-x="1009" arabic-form="final" 
d="M780 816q0 -20 -1.5 -34t-8.5 -35q-46 125 -136 258q-100 147 -158 147q-12 0 -24 -26t-29 -26q-22 0 -70 35q-59 44 -96 102q-48 78 -48 166q0 63 34 63q59 0 184 -91q140 -101 236 -236q117 -165 117 -323zM1119 293h-50q-69 0 -110 91q-50 110 -50 333q0 16 -3 43
t-3 34q-79 -267 -140 -366q-73 -116 -206 -154q-113 -32 -386 -32v28q221 81 329 140q175 94 265 217q109 148 109 351q0 98 -10 183t-28 174l27 84q16 49 30 83q21 -144 40 -311q13 -115 26 -247q15 -162 27 -261q14 -126 44 -180q20 -36 39 -36h50v-174zM499 -90
q0 -25 -26 -45q-17 -13 -52 -28l-152 -64q0 46 82 81q-25 16 -39 31q-17 19 -17 40q0 31 44 87q48 62 85 62q16 0 28 -13.5t12 -35.5q0 -14 -5 -28.5t-14 -32.5q-25 28 -55 28q-18 0 -35.5 -9t-17.5 -21q0 -15 38 -41t65 -26q18 0 26 1.5t33 13.5z" />
    <glyph glyph-name="uni06440627.isol" unicode="&#xfedf;&#xfe8e;" horiz-adv-x="913" arabic-form="isolated" 
d="M951 1350l-39 -180l-48 29l1 -91q0 -134 -28 -260q-30 -138 -95 -273q31 -70 43 -110q19 -63 19 -128q0 -37 -1.5 -63t-7.5 -61q-87 -24 -186 -37.5t-192 -13.5q1 19 1 32q4 76 19 141q140 91 236 236q-58 132 -84 187q-29 60 -98 187q-25 43 -45 69q-27 35 -42 35
q-11 0 -36 -15q-13 -8 -22 -8q-18 0 -56 44q-34 39 -71 96q-29 46 -40 76.5t-11 73.5q0 62 7 97q10 53 34 53q33 0 97 -78q57 -70 126 -184q62 -101 122 -218l83 -164q37 -74 76 -168q55 135 75 273q18 120 18 306l-46 33q0 66 9 119.5t27 97.5l18 -6q4 -43 40 -69
q20 -14 50.5 -32t46.5 -26zM738 377q0 22 -7 45.5t-30 77.5q-25 -39 -74 -90t-96 -87q97 0 138 7q69 12 69 47z" />
    <glyph glyph-name="uni06440627.fina" unicode="&#xfee0;&#xfe8e;" horiz-adv-x="1009" arabic-form="final" 
d="M780 816q0 -20 -1.5 -34t-8.5 -35q-46 125 -136 258q-100 147 -158 147q-12 0 -24 -26t-29 -26q-22 0 -70 35q-59 44 -96 102q-48 78 -48 166q0 63 34 63q59 0 184 -91q140 -101 236 -236q117 -165 117 -323zM1119 293h-50q-69 0 -110 91q-50 110 -50 333q0 16 -3 43
t-3 34q-79 -267 -140 -366q-73 -116 -206 -154q-113 -32 -386 -32v28q221 81 329 140q175 94 265 217q109 148 109 351q0 98 -10 183t-28 174l27 84q16 49 30 83q21 -144 40 -311q13 -115 26 -247q15 -162 27 -261q14 -126 44 -180q20 -36 39 -36h50v-174z" />
    <glyph glyph-name="uni06440671.isol" unicode="&#xfedf;&#xfb51;" horiz-adv-x="1013" 
d="M951 1350l-39 -180l-48 29l1 -91q0 -134 -28 -260q-30 -138 -95 -273q31 -70 43 -110q19 -63 19 -128q0 -37 -1.5 -63t-7.5 -61q-87 -24 -186 -37.5t-192 -13.5q1 19 1 32q4 76 19 141q140 91 236 236q-58 132 -84 187q-29 60 -98 187q-25 43 -45 69q-27 35 -42 35
q-11 0 -36 -15q-13 -8 -22 -8q-18 0 -56 44q-34 39 -71 96q-29 46 -40 76.5t-11 73.5q0 62 7 97q10 53 34 53q33 0 97 -78q57 -70 126 -184q62 -101 122 -218l83 -164q37 -74 76 -168q55 135 75 273q18 120 18 306l-46 33q0 66 9 119.5t27 97.5l18 -6q4 -43 40 -69
q20 -14 50.5 -32t46.5 -26zM738 377q0 22 -7 45.5t-30 77.5q-25 -39 -74 -90t-96 -87q97 0 138 7q69 12 69 47zM353 1725q0 -53 -39 -97q-43 -48 -102 -48h-137q-25 0 -25 -45q0 -5 2 -18v-18q-40 49 -40 101q0 66 63 66h19q97 159 192 159q67 0 67 -100zM280 1726
q0 38 -27 38q-45 0 -114 -98h67q74 0 74 60z" />
    <glyph glyph-name="uni06440671.fina" unicode="&#xfee0;&#xfb51;" horiz-adv-x="1119" 
d="M780 816q0 -20 -1.5 -34t-8.5 -35q-46 125 -136 258q-100 147 -158 147q-12 0 -24 -26t-29 -26q-22 0 -70 35q-59 44 -96 102q-48 78 -48 166q0 63 34 63q59 0 184 -91q140 -101 236 -236q117 -165 117 -323zM1119 293h-50q-69 0 -110 91q-50 110 -50 333q0 16 -3 43
t-3 34q-79 -267 -140 -366q-73 -116 -206 -154q-113 -32 -386 -32v28q221 81 329 140q175 94 265 217q109 148 109 351q0 98 -10 183t-28 174l27 84q16 49 30 83q21 -144 40 -311q13 -115 26 -247q15 -162 27 -261q14 -126 44 -180q20 -36 39 -36h50v-174zM353 1725
q0 -53 -39 -97q-43 -48 -102 -48h-137q-25 0 -25 -45q0 -5 2 -18v-18q-40 49 -40 101q0 66 63 66h19q97 159 192 159q67 0 67 -100zM280 1726q0 38 -27 38q-45 0 -114 -98h67q74 0 74 60z" />
    <glyph glyph-name="allah" unicode="&#x627;&#xfedf;&#xfee0;&#xfbab;" horiz-adv-x="1472" arabic-form="isolated" 
d="M741 1361l-17 -8q-21 61 -63 114q-10 14 -55 59q8 42 38 42t48 -36q25 -57 29 -69q14 -42 20 -102zM888 1315q0 -72 -21.5 -125.5t-55.5 -53.5q-18 0 -33.5 5.5t-34.5 18.5q-9 -30 -30 -54q-26 -31 -53 -31q-35 0 -52 27t-17 72q0 18 3 40.5t5 34.5l25 12
q0 -48 11.5 -65.5t38.5 -17.5q17 0 36 42.5t24 82.5l19 6q9 -40 14 -47q12 -19 43 -19q22 0 37 41q10 27 17 65l20 6q4 -20 4 -40zM1126 474q0 -37 -4 -68q-6 -50 -23 -88l-10 -25q-98 0 -160 35q-50 28 -88 87q-33 -68 -79 -97q-39 -25 -91 -25q-53 0 -103.5 38t-68.5 98
q-33 -59 -79 -97.5t-89 -38.5q-92 0 -146 16.5t-54 42.5q0 84 93.5 190.5t227.5 182.5q-3 15 -7.5 41t-4.5 41q0 34 19 76q15 34 42 72q10 -82 22 -164q17 -123 35 -229q10 -55 37.5 -79t74.5 -24q37 0 58 12.5t53 72.5l-48 273q-6 32 -9 52q-5 39 -5 56q0 35 19 77
q15 34 41 71q8 -51 17.5 -110.5t28.5 -173.5l29 -172q13 -73 39 -111q32 -46 87 -46q22 0 36.5 22.5t18.5 61.5l-47 273q-6 42 -8 52q-5 41 -5 56q0 34 18 77q17 37 41 71q3 -25 28 -160q29 -164 42 -248q22 -142 22 -191zM482 500l-16 111q-72 -32 -110 -63
q-42 -35 -71 -91q18 -9 40.5 -14t63.5 -5q23 0 47.5 16.5t45.5 45.5zM1515 548q0 -80 -23 -155q-13 -40 -54 -127l-15 10q3 29 5 67t2 51q0 104 -13.5 290.5t-32.5 389.5q-11 123 -25 251q16 44 37 95t40 96q13 -114 33 -312t32 -357q14 -198 14 -299z" />
    <glyph glyph-name="riyal" unicode="&#x631;&#xfbfe;&#xfe8e;&#x644;" horiz-adv-x="2317" arabic-form="isolated" 
d="M944 417q0 -160 -62 -254q-55 -83 -161 -119q-91 -30 -229 -30q-158 0 -245 71q-95 78 -95 233q0 86 20 179q17 79 53 173q25 68 68 164l27 -19q-31 -67 -51 -120q-27 -71 -40 -127q-16 -68 -16 -132q0 -123 73.5 -186t203.5 -63q139 0 257 58q129 64 129 153
q0 97 -25 329q-20 178 -48 398l-27 194l-38 24q0 134 45 244h14q3 -38 11.5 -56.5t26.5 -27.5q26 -13 56 -31q22 -13 39 -23q0 -70 -4 -102t-17 -90l-47 18q2 -22 24 -201q26 -209 38 -339q20 -208 20 -318zM1528 293h-115q-56 0 -89 55q-30 48 -45 143t-24 234
q-4 113 -9.5 232t-14 180.5t-23.5 100.5q-18 48 -50 84l101 194q32 -120 45 -287q8 -104 16 -492q15 -178 43 -228q23 -42 50 -42h115v-174zM1955 293h-467v174h407q0 118 -23 180q-15 43 -77 124l64 163q59 -91 74 -142q22 -77 22 -255v-244zM1592 156l-61 -145l-134 84
l62 145zM1405 63l-62 -143l-135 85l64 144zM2411 293q0 -110 -77 -228q-67 -104 -167 -179q-96 -72 -157 -72q-57 0 -122 20q-50 15 -120 47q-59 27 -117 54l14 40q54 -13 112.5 -26.5t106.5 -13.5q105 0 219 82q103 75 176 189.5t73 206.5q0 79 -38 166q-30 70 -85 144
l47 157q67 -76 99 -152q36 -86 36 -192v-243z" />
    <glyph glyph-name="uni067E" unicode="&#x67e;" horiz-adv-x="1198" arabic-form="isolated" 
d="M1330 293h-783q-157 0 -251 67q-117 84 -117 263q0 93 34 190q13 35 60 133l24 -19q-18 -46 -35 -92q-24 -71 -24 -127q0 -118 102 -183q91 -58 230 -58h695v27q0 112 -22.5 182.5t-75.5 120.5l63 163q36 -55 44 -69q56 -112 56 -326v-272zM966 56l-60 -145l-135 84
l62 145zM938 -213l-60 -146l-134 86l63 146zM779 -37l-61 -143l-136 85l64 144z" />
    <glyph glyph-name="uni067E.fina" unicode="&#x67e;" horiz-adv-x="1198" arabic-form="final" 
d="M1330 293h-783q-157 0 -251 67q-117 84 -117 263q0 93 34 190q13 35 60 133l24 -19q-18 -46 -35 -92q-24 -71 -24 -127q0 -118 102 -183q91 -58 230 -58h695v27q0 112 -22.5 182.5t-75.5 120.5l63 163q36 -55 44 -69q56 -112 56 -326v-272zM966 56l-60 -145l-135 84
l62 145zM938 -213l-60 -146l-134 86l63 146zM779 -37l-61 -143l-136 85l64 144z" />
    <glyph glyph-name="uni067E.init" unicode="&#x67e;" horiz-adv-x="410" arabic-form="initial" 
d="M442 56l-61 -145l-134 84l62 145zM414 -213l-61 -146l-133 86l63 146zM255 -37l-62 -143l-135 85l64 144zM455 293h-467v174h407q0 118 -23 180q-15 43 -77 124l64 163q59 -91 74 -142q22 -77 22 -255v-244z" />
    <glyph glyph-name="uni067E.medi" unicode="&#x67e;" horiz-adv-x="410" arabic-form="medial" 
d="M442 56l-61 -145l-134 84l62 145zM414 -213l-61 -146l-133 86l63 146zM255 -37l-62 -143l-135 85l64 144zM455 293h-467v174h407q0 118 -23 180q-15 43 -77 124l64 163q59 -91 74 -142q22 -77 22 -255v-244z" />
    <glyph glyph-name="uni0686" unicode="&#x686;" horiz-adv-x="945" arabic-form="isolated" 
d="M501 696q-17 0 -48 3t-47 3q-52 0 -118 -12q-42 -8 -116 -26q33 113 61 147q62 74 207 74q54 0 221 -28q78 -13 135 -13q24 0 69.5 7t68.5 7l-30 -169q-173 -36 -294 -82q-181 -68 -282 -166q-125 -122 -125 -288q0 -215 184 -323q160 -94 427 -94h151l5 -11l-186 -159
h-47q-177 0 -295 40q-140 48 -212 154q-82 121 -82 320q0 168 65 302q49 102 143 193q29 28 145 121zM806 360l-61 -145l-134 84l62 145zM778 91l-61 -146l-134 86l64 146zM619 267l-62 -143l-135 85l64 144z" />
    <glyph glyph-name="uni0686.fina" unicode="&#x686;" horiz-adv-x="883" arabic-form="final" 
d="M980 293h-112q-99 0 -141 45t-42 149q0 39 8 97q3 22 9 58q-140 -52 -211 -89q-132 -68 -204 -154q-91 -108 -91 -246q0 -215 184 -323q160 -94 427 -94h151l5 -11l-185 -159h-48q-177 0 -294 40q-141 48 -213 154q-82 121 -82 320q0 171 70 299q54 100 158 183
q31 25 169 115q-33 5 -69.5 8.5t-65.5 3.5q-83 0 -135 -9q-17 -3 -107 -27q28 98 58 136q68 84 213 84q80 0 172.5 -18.5t155.5 -18.5q42 0 82 4t83 11l-33 -170q-33 -5 -76 -14q-27 -6 -75 -17l-1 -56q0 -82 41 -110q25 -17 87 -17h112v-174zM687 248l-60 -145l-135 84
l62 145zM659 -21l-60 -146l-134 86l63 146zM500 155l-61 -143l-135 85l64 144z" />
    <glyph glyph-name="uni0686.init" unicode="&#x686;" horiz-adv-x="890" arabic-form="initial" 
d="M987 293h-947v174h669q-84 79 -141 123q-72 55 -131 80q-66 28 -134 28q-42 0 -85 -7q24 74 63 119q55 65 141 65q83 0 197 -100q57 -50 185 -190q99 -109 134 -118h49v-174zM677 56l-61 -145l-135 84l63 145zM649 -213l-61 -146l-134 86l63 146zM490 -37l-62 -143
l-135 85l64 144z" />
    <glyph glyph-name="uni0686.medi" unicode="&#x686;" horiz-adv-x="890" arabic-form="medial" 
d="M987 293h-947v174h669q-84 79 -141 123q-72 55 -131 80q-66 28 -134 28q-42 0 -85 -7q24 74 63 119q55 65 141 65q83 0 197 -100q57 -50 185 -190q99 -109 134 -118h49v-174zM677 56l-61 -145l-135 84l63 145zM649 -213l-61 -146l-134 86l63 146zM490 -37l-62 -143
l-135 85l64 144z" />
    <glyph glyph-name="uni0698" unicode="&#x698;" horiz-adv-x="821" arabic-form="isolated" 
d="M911 293q0 -110 -77 -228q-67 -104 -167 -179q-96 -72 -157 -72q-57 0 -122 20q-50 15 -120 47q-59 27 -117 54l14 40q54 -13 112.5 -26.5t106.5 -13.5q105 0 219 82q103 75 176 189.5t73 206.5q0 79 -38 166q-30 70 -85 144l47 157q67 -76 99 -152q36 -86 36 -192v-243z
M728 1395l-63 -146l-131 86l60 146zM890 1217l-64 -144l-133 86l61 143zM701 1127l-62 -145l-133 84l61 145z" />
    <glyph glyph-name="uni0698.fina" unicode="&#x698;" horiz-adv-x="821" arabic-form="final" 
d="M911 293q0 -110 -77 -228q-67 -104 -167 -179q-96 -72 -157 -72q-57 0 -122 20q-50 15 -120 47q-59 27 -117 54l14 40q54 -13 112.5 -26.5t106.5 -13.5q105 0 219 82q103 75 176 189.5t73 206.5q0 79 -38 166q-30 70 -85 144l47 157q67 -76 99 -152q36 -86 36 -192v-243z
M728 1395l-63 -146l-131 86l60 146zM890 1217l-64 -144l-133 86l61 143zM701 1127l-62 -145l-133 84l61 145z" />
    <glyph glyph-name="uni06A9" unicode="&#x6a9;" horiz-adv-x="1363" arabic-form="isolated" 
d="M1418 467q-57 106 -131 184.5t-199 169.5l-27 -31l-97 90q-51 52 -51 81q0 172 69 270q64 90 221 162l231 110v-173l-172 -70q-102 -41 -165 -75q-81 -43 -81 -66t53 -71l66 -60q125 -115 218 -241q100 -135 160 -280v-174h-980q-196 0 -278 57q-89 61 -89 208
q0 88 39 200q10 31 45 115l28 -20q-28 -78 -37 -120t-9 -80q0 -109 95 -153q70 -33 206 -33h885z" />
    <glyph glyph-name="uni06A9.fina" unicode="&#x6a9;" horiz-adv-x="1566" arabic-form="final" 
d="M556 293q-196 0 -279 57q-89 61 -89 208q0 88 39 200q11 31 45 115l28 -20q-28 -78 -36.5 -120t-8.5 -80q0 -109 94 -153q71 -33 207 -33h349q130 0 219 41q106 49 106 138q0 67 -40 113q-21 24 -80 62l-27 -31l-97 90q-51 52 -51 81q0 172 69 270q64 90 221 162l231 110
v-173l-171 -70q-141 -58 -198 -93q-48 -30 -48 -48q0 -23 52 -71q33 -30 67 -60q72 -67 130 -132q50 -56 93 -116q27 -37 87 -127q39 -57 76 -95q50 -51 87 -51h107v-174h-101q-67 0 -141 84q-36 41 -102 146q-40 63 -49 76q-21 30 -63 79q0 -178 -91 -278
q-97 -107 -290 -107h-345z" />
    <glyph glyph-name="uni06A9.init" unicode="&#x6a9;" horiz-adv-x="662" arabic-form="initial" 
d="M734 293h-719v174h624q-57 106 -131 184.5t-199 169.5l-27 -31l-97 90q-51 52 -51 81q0 172 69 270q64 90 221 162l231 110v-173l-172 -70q-102 -41 -165 -75q-81 -43 -81 -66t53 -71l66 -60q125 -115 218 -241q100 -135 160 -280v-174z" />
    <glyph glyph-name="uni06A9.medi" unicode="&#x6a9;" horiz-adv-x="865" arabic-form="medial" 
d="M689 613q39 -57 76 -95q50 -51 87 -51h107v-174h-101q-67 0 -141 84q-36 41 -102 146q-40 63 -49 76q-21 30 -63 79q0 -178 -91 -278q-97 -107 -290 -107h-85v174h89q130 0 219 41q106 49 106 138q0 67 -40 113q-21 24 -80 62l-27 -31l-97 90q-51 52 -51 81q0 172 69 270
q64 90 221 162l231 110v-173l-171 -70q-103 -41 -166 -75q-80 -43 -80 -66t52 -71q33 -30 67 -60q72 -67 130 -132q50 -56 93 -116q28 -37 87 -127z" />
    <glyph glyph-name="uni06AF" unicode="&#x6af;" horiz-adv-x="1363" arabic-form="isolated" 
d="M1418 467q-57 106 -131 184.5t-199 169.5l-27 -31l-97 90q-51 52 -51 81q0 172 69 270q64 90 221 162l231 110v-173l-172 -70q-102 -41 -165 -75q-81 -43 -81 -66t53 -71l66 -60q125 -115 218 -241q100 -135 160 -280v-174h-980q-196 0 -278 57q-89 61 -89 208
q0 88 39 200q10 31 45 115l28 -20q-28 -78 -37 -120t-9 -80q0 -109 95 -153q70 -33 206 -33h885zM1434 1776v-169q-177 -79 -328 -168q-134 -78 -210 -141v106q26 36 105 99t188 133q123 79 245 140z" />
    <glyph glyph-name="uni06AF.fina" unicode="&#x6af;" horiz-adv-x="1566" arabic-form="final" 
d="M556 293q-196 0 -279 57q-89 61 -89 208q0 88 39 200q11 31 45 115l28 -20q-28 -78 -36.5 -120t-8.5 -80q0 -109 94 -153q71 -33 207 -33h349q130 0 219 41q106 49 106 138q0 67 -40 113q-21 24 -80 62l-27 -31l-97 90q-51 52 -51 81q0 172 69 270q64 90 221 162l231 110
v-173l-171 -70q-141 -58 -198 -93q-48 -30 -48 -48q0 -23 52 -71q33 -30 67 -60q72 -67 130 -132q50 -56 93 -116q27 -37 87 -127q39 -57 76 -95q50 -51 87 -51h107v-174h-101q-67 0 -141 84q-36 41 -102 146q-40 63 -49 76q-21 30 -63 79q0 -178 -91 -278
q-97 -107 -290 -107h-345zM1456 1776v-169q-177 -79 -328 -168q-134 -78 -210 -141v106q26 36 105 99t189 133q123 79 244 140z" />
    <glyph glyph-name="uni06AF.init" unicode="&#x6af;" horiz-adv-x="662" arabic-form="initial" 
d="M734 293h-719v174h624q-57 106 -131 184.5t-199 169.5l-27 -31l-97 90q-51 52 -51 81q0 172 69 270q64 90 221 162l231 110v-173l-172 -70q-102 -41 -165 -75q-81 -43 -81 -66t53 -71l66 -60q125 -115 218 -241q100 -135 160 -280v-174zM655 1794v-169
q-177 -79 -328 -168q-134 -78 -210 -141v106q26 36 105 99t188 133q123 79 245 140z" />
    <glyph glyph-name="uni06AF.medi" unicode="&#x6af;" horiz-adv-x="865" arabic-form="medial" 
d="M689 613q39 -57 76 -95q50 -51 87 -51h107v-174h-101q-67 0 -141 84q-36 41 -102 146q-40 63 -49 76q-21 30 -63 79q0 -178 -91 -278q-97 -107 -290 -107h-85v174h89q130 0 219 41q106 49 106 138q0 67 -40 113q-21 24 -80 62l-27 -31l-97 90q-51 52 -51 81q0 172 69 270
q64 90 221 162l231 110v-173l-171 -70q-103 -41 -166 -75q-80 -43 -80 -66t52 -71q33 -30 67 -60q72 -67 130 -132q50 -56 93 -116q28 -37 87 -127zM677 1794v-169q-177 -79 -328 -168q-134 -78 -210 -141v106q26 36 105 99t189 133q123 79 244 140z" />
    <glyph glyph-name="uni06CC" unicode="&#x6cc;" horiz-adv-x="1072" arabic-form="isolated" 
d="M1135 800q0 -32 -5 -65.5t-6 -47.5q-29 45 -68.5 71t-80.5 26q-72 0 -151 -101q-72 -93 -72 -148q0 -19 18 -28.5t61 -9.5h66q59 0 87 -1.5t67.5 -9.5t39.5 -73q0 -251 -180 -382q-164 -120 -446 -120q-146 0 -223 69q-83 75 -83 226q0 104 28 218q21 87 59 182
q2 6 51 119l35 -17q-52 -112 -79.5 -209.5t-27.5 -172.5q0 -122 69.5 -183t197.5 -61q99 0 229 48q112 41 201 98t89 84q0 19 -10 25t-33 6h-192q-35 0 -62 31t-27 80q0 67 45 182q49 125 119 209q83 101 168 101q54 0 85 -40t31 -106z" />
    <glyph glyph-name="uni06CC.fina" unicode="&#x6cc;" horiz-adv-x="989" arabic-form="final" 
d="M1097 293h-144q-126 0 -189.5 -8t-63.5 -32q0 -33 76 -33q34 0 53.5 -2t85.5 -11q40 -6 54 -15q24 -15 24 -52q0 -187 -101 -272q-110 -93 -363 -93q-176 0 -280 73q-111 78 -111 222q0 116 52 246q19 47 100 201l32 -20q-31 -65 -61 -129q-47 -110 -47 -180
q0 -123 105 -187q100 -61 275 -61q117 0 207 22q109 27 109 74q0 17 -12 25.5t-41 8.5q-22 3 -69 6.5t-62 3.5q-52 0 -74 16.5t-22 49.5q0 124 60 203q49 64 132 95q62 23 131 23h144v-174z" />
    <glyph glyph-name="uni0651064C" unicode="&#xfc5e;" arabic-form="isolated" 
d="M376 1813q-4 -23 -9 -46.5t-23 -58.5q12 -12 19 -22.5t7 -23.5q0 -18 -1.5 -39.5t-4.5 -47.5l-70 67q-38 -54 -86 -84q-58 -36 -129 -36l29 60q17 37 17 66q0 22 -8.5 41t-23.5 19q-18 0 -32 -24l-22 -44q6 71 15 101q17 55 54 55q28 0 43.5 -33.5t15.5 -75.5
q0 -17 -2.5 -34.5t-9.5 -50.5q57 20 109 66q-26 32 -34 44q-14 24 -14 51q0 47 30 92q38 55 79 56q24 -1 39.5 -20t11.5 -78zM355 1476q0 -75 -21 -123q-24 -54 -66 -54q-15 0 -27 6t-28 19q-16 -34 -32 -53q-26 -32 -55 -32q-34 0 -51.5 28t-17.5 78q0 26 6 51t17 58l17 8
q0 -8 -2 -26t-2 -30q0 -22 7.5 -39.5t22.5 -17.5q35 0 57 56q9 25 24 101l17 6q7 -49 11 -60q10 -31 33 -31q31 0 49 50q15 41 15 85l17 6q3 -19 6 -43.5t3 -42.5zM321 1786q0 24 -9 43t-19 19q-16 0 -21 -8.5t-5 -20.5q0 -18 15 -38q4 -6 29 -33q10 17 10 38z" />
    <glyph glyph-name="uni0651064D" unicode="&#xfc5f;" arabic-form="isolated" 
d="M355 1767q0 -76 -21 -124q-24 -53 -66 -53q-14 0 -27.5 6.5t-27.5 18.5q-15 -34 -32 -53q-26 -31 -55 -31q-34 0 -51.5 28t-17.5 77q0 25 7 54q4 18 16 54l17 8q0 -8 -2 -26t-2 -30q0 -23 7 -39.5t23 -16.5q35 0 57 56q10 27 24 100l17 6q8 -49 11 -60q10 -32 33 -32
q31 0 49 50q15 41 15 86l17 7q3 -24 6 -46t3 -40zM343 1571q0 -46 -43 -90q-73 -35 -238 -117q0 44 36 85q68 34 245 122zM343 1448q0 -47 -42 -92q-74 -36 -239 -117q0 43 36 84q68 35 245 125z" />
    <glyph glyph-name="uni0651064E" unicode="&#xfc60;" arabic-form="isolated" 
d="M343 1721q0 -46 -43 -92q-73 -35 -238 -115q0 42 37 83q67 34 244 124zM355 1476q0 -75 -21 -123q-24 -54 -66 -54q-14 0 -27.5 6.5t-27.5 18.5q-16 -34 -32 -53q-26 -32 -55 -32q-34 0 -51.5 28t-17.5 78q0 26 7 55q4 18 16 54l17 8q0 -8 -2 -26t-2 -30q0 -22 7.5 -39.5
t22.5 -17.5q35 0 57 56q9 25 24 101l17 6q7 -49 11 -60q10 -31 33 -31q31 0 49 50q15 41 15 85l17 6q3 -19 6 -43.5t3 -42.5z" />
    <glyph glyph-name="uni0651064F" unicode="&#xfc61;" arabic-form="isolated" 
d="M355 1585q-29 0 -61 9q-6 2 -35 12q-47 -49 -65 -63q-50 -38 -96 -38q-11 0 -22 4.5t-24 12.5q63 34 88 49q40 23 87 56q-19 22 -28 37q-14 23 -14 46q0 43 29.5 85.5t65.5 42.5q24 0 43.5 -20.5t19.5 -49.5q0 -21 -8 -44q-3 -7 -19 -42q26 -15 31 -26q8 -17 8 -71z
M355 1478q0 -75 -21 -123q-24 -54 -66 -54q-14 0 -27.5 6.5t-27.5 18.5q-16 -34 -32 -53q-26 -32 -55 -32q-34 0 -51.5 28t-17.5 78q0 26 7 55q4 18 16 54l17 8q0 -8 -2 -26t-2 -30q0 -22 7.5 -39.5t22.5 -17.5q35 0 57 56q9 25 24 100l17 7q8 -50 11 -61q10 -31 33 -31
q31 0 49 50q15 41 15 86l17 6q3 -20 6 -44.5t3 -41.5zM289 1737q0 21 -12.5 41t-30.5 20q-6 0 -8.5 -7t-2.5 -16q0 -21 8.5 -35.5t36.5 -33.5q3 7 6 16t3 15z" />
    <glyph glyph-name="uni06510650" unicode="&#xfc62;" arabic-form="isolated" 
d="M355 1661q0 -75 -21 -122q-24 -53 -66 -53q-15 0 -27 6t-28 19q-16 -34 -32 -53q-26 -32 -55 -32q-34 0 -51.5 28t-17.5 78q0 25 7 54q4 18 16 53l17 9q0 -9 -2 -27t-2 -30q0 -22 7.5 -38.5t22.5 -16.5q35 0 57 55q9 26 24 100l17 6q7 -49 11 -60q10 -31 33 -31
q31 0 49 50q15 41 15 85l17 6q3 -19 6 -43.5t3 -42.5zM343 1447q0 -47 -42 -92q-74 -36 -239 -116q0 43 36 83q68 35 245 125z" />
    <glyph glyph-name="uniFE80" unicode="&#x621;" horiz-adv-x="693" arabic-form="isolated" 
d="M686 537l-39 -164q-125 -38 -205 -85q-93 -54 -169 -141l-26 17q11 46 29 85q16 34 36 61l-95 66q-42 34 -42 74q0 32 33 116q39 100 90 167q66 86 132 86q62 0 102 -43q9 -9 42 -55l-43 -131l-36 30q-50 39 -82 39q-39 0 -82 -27t-43 -61q0 -41 50 -79q38 -29 116 -63
q114 67 232 108z" />
    <glyph glyph-name="uni0622" unicode="&#x622;" horiz-adv-x="347" arabic-form="isolated" 
d="M384 1654q-23 -32 -47 -49q-33 -24 -73 -24q-41 0 -77 15q-82 33 -87 33q-9 0 -19 -3.5t-22 -10.5l-9 13q20 36 29 45q19 20 50 20q8 0 90 -32q41 -16 68 -16q43 0 86 23zM315 548q0 -80 -23 -155q-13 -40 -54 -127l-15 10q3 29 5 67t2 51q0 104 -13.5 290.5t-32.5 389.5
q-11 123 -25 251q16 44 37 95t40 96q13 -114 33 -312t32 -357q14 -198 14 -299z" />
    <glyph glyph-name="uni0622.fina" unicode="&#x622;" horiz-adv-x="385" arabic-form="final" 
d="M428 293h-115q-56 0 -89 55q-30 48 -45 143t-24 234q-4 113 -9.5 232t-14 180.5t-23.5 100.5q-18 48 -50 84l101 194q32 -120 45 -287q8 -104 16 -492q15 -178 43 -228q23 -42 50 -42h115v-174zM347 1654q-23 -32 -46 -49q-34 -24 -73 -24q-41 0 -78 15q-81 33 -86 33
q-10 0 -20 -3.5t-22 -10.5l-9 13q20 36 29 45q19 20 50 20q8 0 90 -32q41 -16 68 -16q43 0 86 23z" />
    <glyph glyph-name="uni0623" unicode="&#x623;" horiz-adv-x="348" arabic-form="isolated" 
d="M338 1638q0 -25 -25 -45q-17 -13 -52 -28l-152 -64q0 46 82 81q-26 16 -39 31q-17 19 -17 40q0 31 43 87q49 62 86 62q16 0 28 -13.5t12 -35.5q0 -14 -5 -28.5t-14 -32.5q-25 28 -55 28q-18 0 -35.5 -9t-17.5 -21q0 -15 38 -41t65 -26q18 0 26 1.5t32 13.5zM315 548
q0 -80 -23 -155q-13 -40 -54 -127l-15 10q3 29 5 67t2 51q0 104 -13.5 290.5t-32.5 389.5q-11 123 -25 251q16 44 37 95t40 96q13 -114 33 -312t32 -357q14 -198 14 -299z" />
    <glyph glyph-name="uni0623.fina" unicode="&#x623;" horiz-adv-x="385" arabic-form="final" 
d="M285 1638q0 -25 -25 -45q-18 -13 -52 -28l-153 -64q0 46 82 81q-25 16 -38 31q-17 19 -17 40q0 31 43 87q49 62 85 62q17 0 29 -13.5t12 -35.5q0 -14 -5 -28.5t-14 -32.5q-26 28 -55 28q-18 0 -36 -9t-18 -21q0 -15 38.5 -41t65.5 -26q18 0 25.5 1.5t32.5 13.5zM428 293
h-115q-56 0 -89 55q-30 48 -45 143t-24 234q-4 113 -9.5 232t-14 180.5t-23.5 100.5q-18 48 -50 84l101 194q32 -120 45 -287q8 -104 16 -492q15 -178 43 -228q23 -42 50 -42h115v-174z" />
    <glyph glyph-name="uni0624" unicode="&#x624;" horiz-adv-x="726" arabic-form="isolated" 
d="M805 353q0 -165 -100 -328q-111 -182 -257 -182q-54 0 -112 15q-42 11 -109 38q-53 23 -106 45l14 35q46 -13 96 -27.5t91 -14.5q100 0 189 62q70 49 139 142q36 47 100 153q-110 0 -165 43q-63 49 -63 161q0 103 40 191q46 102 116 102q72 0 103 -101q24 -79 24 -220
v-114zM754 462q-18 96 -44 133q-22 32 -54 32q-23 0 -39.5 -18.5t-16.5 -46.5q0 -49 36 -74.5t118 -25.5zM609 973q0 -25 -26 -45q-17 -13 -52 -28l-152 -64q0 46 82 81q-25 16 -39 31q-17 19 -17 40q0 31 44 87q48 62 85 62q16 0 28 -13.5t12 -35.5q0 -14 -5 -28.5
t-14 -32.5q-25 28 -55 28q-18 0 -35.5 -9t-17.5 -21q0 -15 38 -41t65 -26q18 0 26 1.5t33 13.5z" />
    <glyph glyph-name="uni0624.fina" unicode="&#x624;" horiz-adv-x="726" arabic-form="final" 
d="M805 353q0 -165 -100 -328q-111 -182 -257 -182q-54 0 -112 15q-42 11 -109 38q-53 23 -106 45l14 35q46 -13 96 -27.5t91 -14.5q100 0 189 62q70 49 139 142q36 47 100 153q-110 0 -165 43q-63 49 -63 161q0 103 40 191q46 102 116 102q72 0 103 -101q24 -79 24 -220
v-114zM754 462q-18 96 -44 133q-22 32 -54 32q-23 0 -39.5 -18.5t-16.5 -46.5q0 -49 36 -74.5t118 -25.5zM609 973q0 -25 -26 -45q-17 -13 -52 -28l-152 -64q0 46 82 81q-25 16 -39 31q-17 19 -17 40q0 31 44 87q48 62 85 62q16 0 28 -13.5t12 -35.5q0 -14 -5 -28.5
t-14 -32.5q-25 28 -55 28q-18 0 -35.5 -9t-17.5 -21q0 -15 38 -41t65 -26q18 0 26 1.5t33 13.5z" />
    <glyph glyph-name="uni0625" unicode="&#x625;" horiz-adv-x="348" arabic-form="isolated" 
d="M305 -55q0 -25 -26 -45q-17 -13 -51 -28l-153 -64q0 46 82 81q-25 16 -38 31q-18 19 -18 40q0 31 44 87q48 62 85 62q16 0 28 -13.5t12 -35.5q0 -14 -5 -28.5t-14 -32.5q-25 28 -55 28q-18 0 -35.5 -9t-17.5 -21q0 -15 38 -41t65 -26q18 0 26 1.5t33 13.5zM315 548
q0 -80 -23 -155q-13 -40 -54 -127l-15 10q3 29 5 67t2 51q0 104 -13.5 290.5t-32.5 389.5q-11 123 -25 251q16 44 37 95t40 96q13 -114 33 -312t32 -357q14 -198 14 -299z" />
    <glyph glyph-name="uni0625.fina" unicode="&#x625;" horiz-adv-x="386" arabic-form="final" 
d="M428 293h-115q-56 0 -89 55q-30 48 -45 143t-24 234q-4 113 -9.5 232t-14 180.5t-23.5 100.5q-18 48 -50 84l101 194q32 -120 45 -287q8 -104 16 -492q15 -178 43 -228q23 -42 50 -42h115v-174zM292 -55q0 -25 -25 -45q-17 -13 -52 -28l-152 -64q0 46 82 81
q-26 16 -39 31q-17 19 -17 40q0 31 44 87q48 62 85 62q16 0 28 -13.5t12 -35.5q0 -14 -5 -28.5t-14 -32.5q-25 28 -55 28q-18 0 -35.5 -9t-17.5 -21q0 -15 38 -41t65 -26q18 0 26 1.5t32 13.5z" />
    <glyph glyph-name="uni0626" unicode="&#x626;" horiz-adv-x="1072" arabic-form="isolated" 
d="M1135 800q0 -32 -5 -65.5t-6 -47.5q-29 45 -68.5 71t-80.5 26q-72 0 -151 -101q-72 -93 -72 -148q0 -19 18 -28.5t61 -9.5h66q59 0 87 -1.5t67.5 -9.5t39.5 -73q0 -251 -180 -382q-164 -120 -446 -120q-146 0 -223 69q-83 75 -83 226q0 104 28 218q21 87 59 182
q2 6 51 119l35 -17q-52 -112 -79.5 -209.5t-27.5 -172.5q0 -122 69.5 -183t197.5 -61q99 0 229 48q112 41 201 98t89 84q0 19 -10 25t-33 6h-192q-35 0 -62 31t-27 80q0 67 45 182q49 125 119 209q83 101 168 101q54 0 85 -40t31 -106zM414 973q0 -25 -25 -45
q-17 -13 -52 -28l-152 -64q0 46 82 81q-26 16 -39 31q-17 19 -17 40q0 31 44 87q48 62 85 62q16 0 28 -13.5t12 -35.5q0 -14 -5 -28.5t-14 -32.5q-25 28 -55 28q-18 0 -35.5 -9t-17.5 -21q0 -15 38 -41t65 -26q18 0 26 1.5t32 13.5z" />
    <glyph glyph-name="uni0626.fina" unicode="&#x626;" horiz-adv-x="989" arabic-form="final" 
d="M1097 293h-144q-126 0 -189.5 -8t-63.5 -32q0 -33 76 -33q34 0 53.5 -2t85.5 -11q40 -6 54 -15q24 -15 24 -52q0 -187 -101 -272q-110 -93 -363 -93q-176 0 -280 73q-111 78 -111 222q0 116 52 246q19 47 100 201l32 -20q-31 -65 -61 -129q-47 -110 -47 -180
q0 -123 105 -187q100 -61 275 -61q117 0 207 22q109 27 109 74q0 17 -12 25.5t-41 8.5q-22 3 -69 6.5t-62 3.5q-52 0 -74 16.5t-22 49.5q0 124 60 203q49 64 132 95q62 23 131 23h144v-174zM397 842q0 -25 -25 -45q-18 -13 -52 -28l-153 -64q0 46 82 81q-25 16 -38 31
q-17 19 -17 40q0 31 43 87q49 62 85 62q17 0 29 -13.5t12 -35.5q0 -14 -5 -28.5t-14 -32.5q-26 28 -55 28q-18 0 -35.5 -9t-17.5 -21q0 -15 38 -41t65 -26q18 0 25.5 1.5t32.5 13.5z" />
    <glyph glyph-name="uni0626.init" unicode="&#x626;" horiz-adv-x="410" arabic-form="initial" 
d="M455 293h-467v174h407q0 118 -23 180q-15 43 -77 124l64 163q59 -91 74 -142q22 -77 22 -255v-244zM366 1205q0 -25 -25 -45q-17 -13 -52 -28l-152 -64q0 46 82 81q-26 16 -39 31q-17 19 -17 40q0 31 44 87q48 62 85 62q16 0 28 -13.5t12 -35.5q0 -14 -5 -28.5t-14 -32.5
q-25 28 -55 28q-18 0 -35.5 -9t-17.5 -21q0 -15 38 -41t65 -26q18 0 26 1.5t32 13.5z" />
    <glyph glyph-name="uni0626.medi" unicode="&#x626;" horiz-adv-x="410" arabic-form="medial" 
d="M455 293h-467v174h407q0 118 -23 180q-15 43 -77 124l64 163q59 -91 74 -142q22 -77 22 -255v-244zM366 1205q0 -25 -25 -45q-17 -13 -52 -28l-152 -64q0 46 82 81q-26 16 -39 31q-17 19 -17 40q0 31 44 87q48 62 85 62q16 0 28 -13.5t12 -35.5q0 -14 -5 -28.5t-14 -32.5
q-25 28 -55 28q-18 0 -35.5 -9t-17.5 -21q0 -15 38 -41t65 -26q18 0 26 1.5t32 13.5z" />
    <glyph glyph-name="uni0627" unicode="&#x627;" horiz-adv-x="348" arabic-form="isolated" 
d="M315 548q0 -80 -23 -155q-13 -40 -54 -127l-15 10q3 29 5 67t2 51q0 104 -13.5 290.5t-32.5 389.5q-11 123 -25 251q16 44 37 95t40 96q13 -114 33 -312t32 -357q14 -198 14 -299z" />
    <glyph glyph-name="uni0627.fina" unicode="&#x627;" horiz-adv-x="386" arabic-form="final" 
d="M428 293h-115q-56 0 -89 55q-30 48 -45 143t-24 234q-4 113 -9.5 232t-14 180.5t-23.5 100.5q-18 48 -50 84l101 194q32 -120 45 -287q8 -104 16 -492q15 -178 43 -228q23 -42 50 -42h115v-174z" />
    <glyph glyph-name="uni0628" unicode="&#x628;" horiz-adv-x="1198" arabic-form="isolated" 
d="M1330 293h-783q-157 0 -251 67q-117 84 -117 263q0 93 34 190q13 35 60 133l24 -19q-18 -46 -35 -92q-24 -71 -24 -127q0 -118 102 -183q91 -58 230 -58h695v27q0 112 -22.5 182.5t-75.5 120.5l63 163q36 -55 44 -69q56 -112 56 -326v-272zM860 50l-64 -145l-133 84
l61 146z" />
    <glyph glyph-name="uni0628.fina" unicode="&#x628;" horiz-adv-x="1198" arabic-form="final" 
d="M1330 293h-783q-157 0 -251 67q-117 84 -117 263q0 93 34 190q13 35 60 133l24 -19q-18 -46 -35 -92q-24 -71 -24 -127q0 -118 102 -183q91 -58 230 -58h695v27q0 112 -22.5 182.5t-75.5 120.5l63 163q36 -55 44 -69q56 -112 56 -326v-272zM860 50l-64 -145l-133 84
l61 146z" />
    <glyph glyph-name="uni0628.init" unicode="&#x628;" horiz-adv-x="410" arabic-form="initial" 
d="M455 293h-467v174h407q0 118 -23 180q-15 43 -77 124l64 163q59 -91 74 -142q22 -77 22 -255v-244zM371 50l-64 -145l-132 84l60 146z" />
    <glyph glyph-name="uni0628.medi" unicode="&#x628;" horiz-adv-x="410" arabic-form="medial" 
d="M455 293h-467v174h407q0 118 -23 180q-15 43 -77 124l64 163q59 -91 74 -142q22 -77 22 -255v-244zM371 50l-64 -145l-132 84l60 146z" />
    <glyph glyph-name="uni0629" unicode="&#x629;" horiz-adv-x="474" arabic-form="isolated" 
d="M436 1227l-64 -144l-133 86l61 143zM247 1137l-62 -145l-133 84l61 145zM508 588q0 -141 -38 -212q-58 -110 -213 -110q-60 0 -99 29q-45 33 -45 94q0 70 28 162q27 78 54 157l-13 4l50 169q149 -95 178 -120q98 -84 98 -173zM437 510q0 38 -91 101q-38 27 -82 53
q-37 -49 -45 -61q-23 -39 -23 -74q0 -51 23.5 -79.5t62.5 -28.5q46 0 100.5 31.5t54.5 57.5z" />
    <glyph glyph-name="uni0629.fina" unicode="&#x629;" horiz-adv-x="630" arabic-form="final" 
d="M491 1488l-64 -144l-132 86l61 143zM303 1398l-62 -145l-133 84l60 145zM699 293h-117q-59 0 -105 123q-33 92 -54 237q-24 -56 -62 -87t-79 -31q-95 0 -157.5 15.5t-62.5 39.5q0 86 91.5 190.5t229.5 182.5q-1 8 -6.5 42t-5.5 42q0 34 19 76q15 34 41 70
q8 -62 16.5 -120t20.5 -120l24 -172q21 -142 37 -210q26 -104 53 -104h117v-174zM413 740l-16 109q-71 -31 -112 -64.5t-69 -88.5q17 -9 40 -14t63 -5q49 0 94 63z" />
    <glyph glyph-name="uni062A" unicode="&#x62a;" horiz-adv-x="1198" arabic-form="isolated" 
d="M944 1201l-64 -144l-133 86l62 143zM756 1111l-63 -145l-133 84l61 145zM1330 293h-783q-157 0 -251 67q-117 84 -117 263q0 93 34 190q13 35 60 133l24 -19q-18 -46 -35 -92q-24 -71 -24 -127q0 -118 102 -183q91 -58 230 -58h695v27q0 112 -22.5 182.5t-75.5 120.5
l63 163q36 -55 44 -69q56 -112 56 -326v-272z" />
    <glyph glyph-name="uni062A.fina" unicode="&#x62a;" horiz-adv-x="1198" arabic-form="final" 
d="M944 1201l-64 -144l-133 86l62 143zM756 1111l-63 -145l-133 84l61 145zM1330 293h-783q-157 0 -251 67q-117 84 -117 263q0 93 34 190q13 35 60 133l24 -19q-18 -46 -35 -92q-24 -71 -24 -127q0 -118 102 -183q91 -58 230 -58h695v27q0 112 -22.5 182.5t-75.5 120.5
l63 163q36 -55 44 -69q56 -112 56 -326v-272z" />
    <glyph glyph-name="uni062A.init" unicode="&#x62a;" horiz-adv-x="410" arabic-form="initial" 
d="M451 1281l-64 -144l-133 86l62 143zM262 1191l-62 -145l-133 84l61 145zM455 293h-467v174h407q0 118 -23 180q-15 43 -77 124l64 163q59 -91 74 -142q22 -77 22 -255v-244z" />
    <glyph glyph-name="uni062A.medi" unicode="&#x62a;" horiz-adv-x="410" arabic-form="medial" 
d="M451 1281l-64 -144l-133 86l62 143zM262 1191l-62 -145l-133 84l61 145zM455 293h-467v174h407q0 118 -23 180q-15 43 -77 124l64 163q59 -91 74 -142q22 -77 22 -255v-244z" />
    <glyph glyph-name="uni062B" unicode="&#x62b;" horiz-adv-x="1198" arabic-form="isolated" 
d="M783 1379l-64 -146l-131 86l61 146zM944 1201l-64 -144l-133 86l62 143zM756 1111l-63 -145l-133 84l61 145zM1330 293h-783q-157 0 -251 67q-117 84 -117 263q0 93 34 190q13 35 60 133l24 -19q-18 -46 -35 -92q-24 -71 -24 -127q0 -118 102 -183q91 -58 230 -58h695v27
q0 112 -22.5 182.5t-75.5 120.5l63 163q36 -55 44 -69q56 -112 56 -326v-272z" />
    <glyph glyph-name="uni062B.fina" unicode="&#x62b;" horiz-adv-x="1198" arabic-form="final" 
d="M783 1379l-64 -146l-131 86l61 146zM944 1201l-64 -144l-133 86l62 143zM756 1111l-63 -145l-133 84l61 145zM1330 293h-783q-157 0 -251 67q-117 84 -117 263q0 93 34 190q13 35 60 133l24 -19q-18 -46 -35 -92q-24 -71 -24 -127q0 -118 102 -183q91 -58 230 -58h695v27
q0 112 -22.5 182.5t-75.5 120.5l63 163q36 -55 44 -69q56 -112 56 -326v-272z" />
    <glyph glyph-name="uni062B.init" unicode="&#x62b;" horiz-adv-x="410" arabic-form="initial" 
d="M289 1459l-63 -146l-131 86l61 146zM451 1281l-64 -144l-133 86l62 143zM262 1191l-62 -145l-133 84l61 145zM455 293h-467v174h407q0 118 -23 180q-15 43 -77 124l64 163q59 -91 74 -142q22 -77 22 -255v-244z" />
    <glyph glyph-name="uni062B.medi" unicode="&#x62b;" horiz-adv-x="410" arabic-form="medial" 
d="M289 1459l-63 -146l-131 86l61 146zM451 1281l-64 -144l-133 86l62 143zM262 1191l-62 -145l-133 84l61 145zM455 293h-467v174h407q0 118 -23 180q-15 43 -77 124l64 163q59 -91 74 -142q22 -77 22 -255v-244z" />
    <glyph glyph-name="uni062C" unicode="&#x62c;" horiz-adv-x="945" arabic-form="isolated" 
d="M738 263l-69 -151l-129 90l63 145zM501 696q-17 0 -48 3t-47 3q-52 0 -118 -12q-42 -8 -116 -26q33 113 61 147q62 74 207 74q54 0 221 -28q78 -13 135 -13q24 0 69.5 7t68.5 7l-30 -169q-173 -36 -294 -82q-181 -68 -282 -166q-125 -122 -125 -288q0 -215 184 -323
q160 -94 427 -94h151l5 -11l-186 -159h-47q-177 0 -295 40q-140 48 -212 154q-82 121 -82 320q0 168 65 302q49 102 143 193q29 28 145 121z" />
    <glyph glyph-name="uni062C.fina" unicode="&#x62c;" horiz-adv-x="883" arabic-form="final" 
d="M980 293h-112q-99 0 -141 45t-42 149q0 39 8 97q3 22 9 58q-140 -52 -211 -89q-132 -68 -204 -154q-91 -108 -91 -246q0 -215 184 -323q160 -94 427 -94h151l5 -11l-185 -159h-48q-177 0 -294 40q-141 48 -213 154q-82 121 -82 320q0 171 70 299q54 100 158 183
q31 25 169 115q-33 5 -69.5 8.5t-65.5 3.5q-83 0 -135 -9q-17 -3 -107 -27q28 98 58 136q68 84 213 84q80 0 172.5 -18.5t155.5 -18.5q42 0 82 4t83 11l-33 -170q-33 -5 -76 -14q-27 -6 -75 -17l-1 -56q0 -82 41 -110q25 -17 87 -17h112v-174zM673 185l-63 -146l-132 85
l63 146z" />
    <glyph glyph-name="uni062C.init" unicode="&#x62c;" horiz-adv-x="890" arabic-form="initial" 
d="M987 293h-947v174h669q-84 79 -141 123q-72 55 -131 80q-66 28 -134 28q-42 0 -85 -7q24 74 63 119q55 65 141 65q83 0 197 -100q57 -50 185 -190q99 -109 134 -118h49v-174zM570 76l-62 -144l-133 84l64 146z" />
    <glyph glyph-name="uni062C.medi" unicode="&#x62c;" horiz-adv-x="890" arabic-form="medial" 
d="M987 293h-947v174h669q-84 79 -141 123q-72 55 -131 80q-66 28 -134 28q-42 0 -85 -7q24 74 63 119q55 65 141 65q83 0 197 -100q57 -50 185 -190q99 -109 134 -118h49v-174zM570 76l-62 -144l-133 84l64 146z" />
    <glyph glyph-name="uni062D" unicode="&#x62d;" horiz-adv-x="945" arabic-form="isolated" 
d="M501 696q-17 0 -48 3t-47 3q-52 0 -118 -12q-42 -8 -116 -26q33 113 61 147q62 74 207 74q54 0 221 -28q78 -13 135 -13q24 0 69.5 7t68.5 7l-30 -169q-173 -36 -294 -82q-181 -68 -282 -166q-125 -122 -125 -288q0 -215 184 -323q160 -94 427 -94h151l5 -11l-186 -159
h-47q-177 0 -295 40q-140 48 -212 154q-82 121 -82 320q0 168 65 302q49 102 143 193q29 28 145 121z" />
    <glyph glyph-name="uni062D.fina" unicode="&#x62d;" horiz-adv-x="883" arabic-form="final" 
d="M980 293h-112q-99 0 -141 45t-42 149q0 39 8 97q3 22 9 58q-140 -52 -211 -89q-132 -68 -204 -154q-91 -108 -91 -246q0 -215 184 -323q160 -94 427 -94h151l5 -11l-185 -159h-48q-177 0 -294 40q-141 48 -213 154q-82 121 -82 320q0 171 70 299q54 100 158 183
q31 25 169 115q-33 5 -69.5 8.5t-65.5 3.5q-83 0 -135 -9q-17 -3 -107 -27q28 98 58 136q68 84 213 84q80 0 172.5 -18.5t155.5 -18.5q42 0 82 4t83 11l-33 -170q-33 -5 -76 -14q-27 -6 -75 -17l-1 -56q0 -82 41 -110q25 -17 87 -17h112v-174z" />
    <glyph glyph-name="uni062D.init" unicode="&#x62d;" horiz-adv-x="890" arabic-form="initial" 
d="M987 293h-947v174h669q-84 79 -141 123q-72 55 -131 80q-66 28 -134 28q-42 0 -85 -7q24 74 63 119q55 65 141 65q83 0 197 -100q57 -50 185 -190q99 -109 134 -118h49v-174z" />
    <glyph glyph-name="uni062D.medi" unicode="&#x62d;" horiz-adv-x="890" arabic-form="medial" 
d="M987 293h-947v174h669q-84 79 -141 123q-72 55 -131 80q-66 28 -134 28q-42 0 -85 -7q24 74 63 119q55 65 141 65q83 0 197 -100q57 -50 185 -190q99 -109 134 -118h49v-174z" />
    <glyph glyph-name="uni062E" unicode="&#x62e;" horiz-adv-x="945" arabic-form="isolated" 
d="M658 1224l-63 -145l-132 84l61 146zM501 696q-17 0 -48 3t-47 3q-52 0 -118 -12q-42 -8 -116 -26q33 113 61 147q62 74 207 74q54 0 221 -28q78 -13 135 -13q24 0 69.5 7t68.5 7l-30 -169q-173 -36 -294 -82q-181 -68 -282 -166q-125 -122 -125 -288q0 -215 184 -323
q160 -94 427 -94h151l5 -11l-186 -159h-47q-177 0 -295 40q-140 48 -212 154q-82 121 -82 320q0 168 65 302q49 102 143 193q29 28 145 121z" />
    <glyph glyph-name="uni062E.fina" unicode="&#x62e;" horiz-adv-x="883" arabic-form="final" 
d="M655 1224l-64 -145l-132 84l62 146zM980 293h-112q-99 0 -141 45t-42 149q0 39 8 97q3 22 9 58q-140 -52 -211 -89q-132 -68 -204 -154q-91 -108 -91 -246q0 -215 184 -323q160 -94 427 -94h151l5 -11l-185 -159h-48q-177 0 -294 40q-141 48 -213 154q-82 121 -82 320
q0 171 70 299q54 100 158 183q31 25 169 115q-33 5 -69.5 8.5t-65.5 3.5q-83 0 -135 -9q-17 -3 -107 -27q28 98 58 136q68 84 213 84q80 0 172.5 -18.5t155.5 -18.5q42 0 82 4t83 11l-33 -170q-33 -5 -76 -14q-27 -6 -75 -17l-1 -56q0 -82 41 -110q25 -17 87 -17h112v-174z
" />
    <glyph glyph-name="uni062E.init" unicode="&#x62e;" horiz-adv-x="890" arabic-form="initial" 
d="M595 1224l-63 -145l-133 84l61 146zM987 293h-947v174h669q-84 79 -141 123q-72 55 -131 80q-66 28 -134 28q-42 0 -85 -7q24 74 63 119q55 65 141 65q83 0 197 -100q57 -50 185 -190q99 -109 134 -118h49v-174z" />
    <glyph glyph-name="uni062E.medi" unicode="&#x62e;" horiz-adv-x="890" arabic-form="medial" 
d="M595 1224l-63 -145l-133 84l61 146zM987 293h-947v174h669q-84 79 -141 123q-72 55 -131 80q-66 28 -134 28q-42 0 -85 -7q24 74 63 119q55 65 141 65q83 0 197 -100q57 -50 185 -190q99 -109 134 -118h49v-174z" />
    <glyph glyph-name="uni062F" unicode="&#x62f;" horiz-adv-x="567" arabic-form="isolated" 
d="M629 293h-368q-46 0 -83.5 33t-37.5 78q0 38 3.5 69t12.5 68h19q9 -41 32 -59q20 -15 54 -15h318q0 179 -41 288q-51 136 -170 181l12 194q142 -85 201 -271q48 -150 48 -392v-174z" />
    <glyph glyph-name="uni062F.fina" unicode="&#x62f;" horiz-adv-x="567" arabic-form="final" 
d="M629 293h-368q-46 0 -83.5 33t-37.5 78q0 38 3.5 69t12.5 68h19q9 -41 32 -59q20 -15 54 -15h318q0 179 -41 288q-51 136 -170 181l12 194q142 -85 201 -271q48 -150 48 -392v-174z" />
    <glyph glyph-name="uni0630" unicode="&#x630;" horiz-adv-x="567" arabic-form="isolated" 
d="M411 1469l-64 -145l-131 86l59 145zM629 293h-368q-46 0 -83.5 33t-37.5 78q0 38 3.5 69t12.5 68h19q9 -41 32 -59q20 -15 54 -15h318q0 179 -41 288q-51 136 -170 181l12 194q142 -85 201 -271q48 -150 48 -392v-174z" />
    <glyph glyph-name="uni0630.fina" unicode="&#x630;" horiz-adv-x="567" arabic-form="final" 
d="M411 1469l-64 -145l-131 86l59 145zM629 293h-368q-46 0 -83.5 33t-37.5 78q0 38 3.5 69t12.5 68h19q9 -41 32 -59q20 -15 54 -15h318q0 179 -41 288q-51 136 -170 181l12 194q142 -85 201 -271q48 -150 48 -392v-174z" />
    <glyph glyph-name="uni0631" unicode="&#x631;" horiz-adv-x="821" arabic-form="isolated" 
d="M911 293q0 -110 -77 -228q-67 -104 -167 -179q-96 -72 -157 -72q-57 0 -122 20q-50 15 -120 47q-59 27 -117 54l14 40q54 -13 112.5 -26.5t106.5 -13.5q105 0 219 82q103 75 176 189.5t73 206.5q0 79 -38 166q-30 70 -85 144l47 157q67 -76 99 -152q36 -86 36 -192v-243z
" />
    <glyph glyph-name="uni0631.fina" unicode="&#x631;" horiz-adv-x="821" arabic-form="final" 
d="M911 293q0 -110 -77 -228q-67 -104 -167 -179q-96 -72 -157 -72q-57 0 -122 20q-50 15 -120 47q-59 27 -117 54l14 40q54 -13 112.5 -26.5t106.5 -13.5q105 0 219 82q103 75 176 189.5t73 206.5q0 79 -38 166q-30 70 -85 144l47 157q67 -76 99 -152q36 -86 36 -192v-243z
" />
    <glyph glyph-name="uni0632" unicode="&#x632;" horiz-adv-x="821" arabic-form="isolated" 
d="M788 1224l-63 -145l-132 84l61 146zM911 293q0 -110 -77 -228q-67 -104 -167 -179q-96 -72 -157 -72q-57 0 -122 20q-50 15 -120 47q-59 27 -117 54l14 40q54 -13 112.5 -26.5t106.5 -13.5q105 0 219 82q103 75 176 189.5t73 206.5q0 79 -38 166q-30 70 -85 144l47 157
q67 -76 99 -152q36 -86 36 -192v-243z" />
    <glyph glyph-name="uni0632.fina" unicode="&#x632;" horiz-adv-x="821" arabic-form="final" 
d="M788 1224l-63 -145l-132 84l61 146zM911 293q0 -110 -77 -228q-67 -104 -167 -179q-96 -72 -157 -72q-57 0 -122 20q-50 15 -120 47q-59 27 -117 54l14 40q54 -13 112.5 -26.5t106.5 -13.5q105 0 219 82q103 75 176 189.5t73 206.5q0 79 -38 166q-30 70 -85 144l47 157
q67 -76 99 -152q36 -86 36 -192v-243z" />
    <glyph glyph-name="uni0633" unicode="&#x633;" horiz-adv-x="1379" arabic-form="isolated" 
d="M1531 293h-65q-49 0 -86.5 16.5t-76.5 52.5q-34 -38 -61 -51q-39 -18 -112 -18h-101q0 -92 -36 -179q-47 -113 -143 -179q-121 -83 -302 -83q-164 0 -251 70q-95 77 -95 236q0 86 17.5 174t46.5 177q18 54 63 166l32 -18q-57 -144 -75.5 -227t-18.5 -152
q0 -124 72.5 -188.5t207.5 -64.5q157 0 281 67q154 83 154 232q0 100 -30 190q-24 71 -68 136l69 205q41 -82 55 -145q21 -89 21 -243h101q78 0 110 29q29 25 29 77q0 29 -3 58.5t-8 64.5l32 60l13 -97q19 -98 49 -141q33 -48 95 -48q19 0 29 14.5t10 36.5q0 50 -25 107
q-19 42 -50 84l55 109q38 -77 47 -105q18 -63 18 -183v-240z" />
    <glyph glyph-name="uni0633.fina" unicode="&#x633;" horiz-adv-x="1379" arabic-form="final" 
d="M1531 293h-65q-49 0 -86.5 16.5t-76.5 52.5q-34 -38 -61 -51q-39 -18 -112 -18h-101q0 -92 -36 -179q-47 -113 -143 -179q-121 -83 -302 -83q-164 0 -251 70q-95 77 -95 236q0 86 17.5 174t46.5 177q18 54 63 166l32 -18q-57 -144 -75.5 -227t-18.5 -152
q0 -124 72.5 -188.5t207.5 -64.5q157 0 281 67q154 83 154 232q0 100 -30 190q-24 71 -68 136l69 205q41 -82 55 -145q21 -89 21 -243h101q78 0 110 29q29 25 29 77q0 29 -3 58.5t-8 64.5l32 60l13 -97q19 -98 49 -141q33 -48 95 -48q19 0 29 14.5t10 36.5q0 50 -25 107
q-19 42 -50 84l55 109q38 -77 47 -105q18 -63 18 -183v-240z" />
    <glyph glyph-name="uni0633.init" unicode="&#x633;" horiz-adv-x="892" arabic-form="initial" 
d="M989 293h-63q-52 0 -90 17.5t-69 49.5q-39 -37 -67 -49q-42 -18 -115 -18h-53q-43 0 -86 20q-28 13 -69 43q-39 -36 -72 -49.5t-106 -13.5h-159v174h159q66 0 95 14q47 23 47 92q0 29 -2.5 58t-8.5 65l34 60q22 -92 37 -134q26 -73 58 -110q37 -45 90 -45h55q61 0 91 23
q33 26 33 83q0 31 -3.5 60t-9.5 63l35 60l17 -94q22 -111 54 -154q28 -38 76 -38q22 0 35.5 16.5t13.5 42.5q0 56 -34 118q-6 10 -40 65l53 109q34 -62 46 -107q18 -68 18 -181v-240z" />
    <glyph glyph-name="uni0633.medi" unicode="&#x633;" horiz-adv-x="892" arabic-form="medial" 
d="M989 293h-63q-52 0 -90 17.5t-69 49.5q-39 -37 -67 -49q-42 -18 -115 -18h-53q-43 0 -86 20q-28 13 -69 43q-39 -36 -72 -49.5t-106 -13.5h-159v174h159q66 0 95 14q47 23 47 92q0 29 -2.5 58t-8.5 65l34 60q22 -92 37 -134q26 -73 58 -110q37 -45 90 -45h55q61 0 91 23
q33 26 33 83q0 31 -3.5 60t-9.5 63l35 60l17 -94q22 -111 54 -154q28 -38 76 -38q22 0 35.5 16.5t13.5 42.5q0 56 -34 118q-6 10 -40 65l53 109q34 -62 46 -107q18 -68 18 -181v-240z" />
    <glyph glyph-name="uni0634" unicode="&#x634;" horiz-adv-x="1379" arabic-form="isolated" 
d="M1304 1379l-63 -146l-131 86l61 146zM1466 1201l-64 -144l-133 86l62 143zM1277 1111l-62 -145l-133 84l61 145zM1531 293h-65q-49 0 -86.5 16.5t-76.5 52.5q-34 -38 -61 -51q-39 -18 -112 -18h-101q0 -92 -36 -179q-47 -113 -143 -179q-121 -83 -302 -83q-164 0 -251 70
q-95 77 -95 236q0 86 17.5 174t46.5 177q18 54 63 166l32 -18q-57 -144 -75.5 -227t-18.5 -152q0 -124 72.5 -188.5t207.5 -64.5q157 0 281 67q154 83 154 232q0 100 -30 190q-24 71 -68 136l69 205q41 -82 55 -145q21 -89 21 -243h101q78 0 110 29q29 25 29 77
q0 29 -3 58.5t-8 64.5l32 60l13 -97q19 -98 49 -141q33 -48 95 -48q19 0 29 14.5t10 36.5q0 50 -25 107q-19 42 -50 84l55 109q38 -77 47 -105q18 -63 18 -183v-240z" />
    <glyph glyph-name="uni0634.fina" unicode="&#x634;" horiz-adv-x="1379" arabic-form="final" 
d="M1304 1379l-63 -146l-131 86l61 146zM1466 1201l-64 -144l-133 86l62 143zM1277 1111l-62 -145l-133 84l61 145zM1531 293h-65q-49 0 -86.5 16.5t-76.5 52.5q-34 -38 -61 -51q-39 -18 -112 -18h-101q0 -92 -36 -179q-47 -113 -143 -179q-121 -83 -302 -83q-164 0 -251 70
q-95 77 -95 236q0 86 17.5 174t46.5 177q18 54 63 166l32 -18q-57 -144 -75.5 -227t-18.5 -152q0 -124 72.5 -188.5t207.5 -64.5q157 0 281 67q154 83 154 232q0 100 -30 190q-24 71 -68 136l69 205q41 -82 55 -145q21 -89 21 -243h101q78 0 110 29q29 25 29 77
q0 29 -3 58.5t-8 64.5l32 60l13 -97q19 -98 49 -141q33 -48 95 -48q19 0 29 14.5t10 36.5q0 50 -25 107q-19 42 -50 84l55 109q38 -77 47 -105q18 -63 18 -183v-240z" />
    <glyph glyph-name="uni0634.init" unicode="&#x634;" horiz-adv-x="892" arabic-form="initial" 
d="M755 1379l-63 -146l-132 86l61 146zM916 1201l-64 -144l-133 86l62 143zM728 1111l-63 -145l-133 84l61 145zM989 293h-63q-52 0 -90 17.5t-69 49.5q-39 -37 -67 -49q-42 -18 -115 -18h-53q-43 0 -86 20q-28 13 -69 43q-39 -36 -72 -49.5t-106 -13.5h-159v174h159
q66 0 95 14q47 23 47 92q0 29 -2.5 58t-8.5 65l34 60q22 -92 37 -134q26 -73 58 -110q37 -45 90 -45h55q61 0 91 23q33 26 33 83q0 31 -3.5 60t-9.5 63l35 60l17 -94q22 -111 54 -154q28 -38 76 -38q22 0 35.5 16.5t13.5 42.5q0 56 -34 118q-6 10 -40 65l53 109
q34 -62 46 -107q18 -68 18 -181v-240z" />
    <glyph glyph-name="uni0634.medi" unicode="&#x634;" horiz-adv-x="892" arabic-form="medial" 
d="M755 1379l-63 -146l-132 86l61 146zM916 1201l-64 -144l-133 86l62 143zM728 1111l-63 -145l-133 84l61 145zM989 293h-63q-52 0 -90 17.5t-69 49.5q-39 -37 -67 -49q-42 -18 -115 -18h-53q-43 0 -86 20q-28 13 -69 43q-39 -36 -72 -49.5t-106 -13.5h-159v174h159
q66 0 95 14q47 23 47 92q0 29 -2.5 58t-8.5 65l34 60q22 -92 37 -134q26 -73 58 -110q37 -45 90 -45h55q61 0 91 23q33 26 33 83q0 31 -3.5 60t-9.5 63l35 60l17 -94q22 -111 54 -154q28 -38 76 -38q22 0 35.5 16.5t13.5 42.5q0 56 -34 118q-6 10 -40 65l53 109
q34 -62 46 -107q18 -68 18 -181v-240z" />
    <glyph glyph-name="uni0635" unicode="&#x635;" horiz-adv-x="1844" arabic-form="isolated" 
d="M2047 293h-975q-24 -208 -118 -312q-116 -129 -355 -129q-164 0 -251 70q-95 77 -95 236q0 86 17.5 174t46.5 177q18 54 63 166l32 -18q-57 -144 -75.5 -227t-18.5 -152q0 -124 72.5 -188.5t207.5 -64.5q157 0 281 67q154 83 154 232q0 100 -30 190q-24 71 -68 136
l69 205q41 -82 55 -145q21 -89 21 -243h15q97 0 181 38q72 33 151 104q122 103 146 122q67 52 120 74q61 25 134 25q112 0 168 -79q52 -73 52 -205v-253zM1914 544q0 49 -50.5 76.5t-117.5 27.5q-59 0 -132 -32q-52 -23 -132 -73l-118 -76h378q78 0 125 19.5t47 57.5z" />
    <glyph glyph-name="uni0635.fina" unicode="&#x635;" horiz-adv-x="1844" arabic-form="final" 
d="M2047 293h-975q-24 -208 -118 -312q-116 -129 -355 -129q-164 0 -251 70q-95 77 -95 236q0 86 17.5 174t46.5 177q18 54 63 166l32 -18q-57 -144 -75.5 -227t-18.5 -152q0 -124 72.5 -188.5t207.5 -64.5q157 0 281 67q154 83 154 232q0 100 -30 190q-24 71 -68 136
l69 205q41 -82 55 -145q21 -89 21 -243h15q97 0 181 38q72 33 151 104q122 103 146 122q67 52 120 74q61 25 134 25q112 0 168 -79q52 -73 52 -205v-253zM1914 544q0 49 -50.5 76.5t-117.5 27.5q-59 0 -132 -32q-52 -23 -132 -73l-118 -76h378q78 0 125 19.5t47 57.5z" />
    <glyph glyph-name="uni0635.init" unicode="&#x635;" horiz-adv-x="1421" arabic-form="initial" 
d="M1577 293h-986q-44 0 -84 18q-30 14 -71 45q-35 -36 -69.5 -49.5t-109.5 -13.5h-158v174h158q66 0 95 14q48 23 48 92q0 29 -3 58.5t-9 64.5l34 60q28 -136 78 -210q54 -79 126 -79q69 0 161 38q100 41 173 104q117 102 143 122q66 52 121 74q60 25 132 25q112 0 169 -79
q52 -73 52 -205v-253zM1443 544q0 49 -50 76.5t-116 27.5q-82 0 -199 -67l-184 -114h378q89 0 130 19t41 58z" />
    <glyph glyph-name="uni0635.medi" unicode="&#x635;" horiz-adv-x="1421" arabic-form="medial" 
d="M1577 293h-986q-44 0 -84 18q-30 14 -71 45q-35 -36 -69.5 -49.5t-109.5 -13.5h-158v174h158q66 0 95 14q48 23 48 92q0 29 -3 58.5t-9 64.5l34 60q28 -136 78 -210q54 -79 126 -79q69 0 161 38q100 41 173 104q117 102 143 122q66 52 121 74q60 25 132 25q112 0 169 -79
q52 -73 52 -205v-253zM1443 544q0 49 -50 76.5t-116 27.5q-82 0 -199 -67l-184 -114h378q89 0 130 19t41 58z" />
    <glyph glyph-name="uni0636" unicode="&#x636;" horiz-adv-x="1844" arabic-form="isolated" 
d="M1500 1124l-62 -145l-133 84l61 146zM2047 293h-975q-24 -208 -118 -312q-116 -129 -355 -129q-164 0 -251 70q-95 77 -95 236q0 86 17.5 174t46.5 177q18 54 63 166l32 -18q-57 -144 -75.5 -227t-18.5 -152q0 -124 72.5 -188.5t207.5 -64.5q157 0 281 67q154 83 154 232
q0 100 -30 190q-24 71 -68 136l69 205q41 -82 55 -145q21 -89 21 -243h15q97 0 181 38q72 33 151 104q122 103 146 122q67 52 120 74q61 25 134 25q112 0 168 -79q52 -73 52 -205v-253zM1914 544q0 49 -50.5 76.5t-117.5 27.5q-59 0 -132 -32q-52 -23 -132 -73l-118 -76h378
q78 0 125 19.5t47 57.5z" />
    <glyph glyph-name="uni0636.fina" unicode="&#x636;" horiz-adv-x="1844" arabic-form="final" 
d="M1500 1124l-62 -145l-133 84l61 146zM2047 293h-975q-24 -208 -118 -312q-116 -129 -355 -129q-164 0 -251 70q-95 77 -95 236q0 86 17.5 174t46.5 177q18 54 63 166l32 -18q-57 -144 -75.5 -227t-18.5 -152q0 -124 72.5 -188.5t207.5 -64.5q157 0 281 67q154 83 154 232
q0 100 -30 190q-24 71 -68 136l69 205q41 -82 55 -145q21 -89 21 -243h15q97 0 181 38q72 33 151 104q122 103 146 122q67 52 120 74q61 25 134 25q112 0 168 -79q52 -73 52 -205v-253zM1914 544q0 49 -50.5 76.5t-117.5 27.5q-59 0 -132 -32q-52 -23 -132 -73l-118 -76h378
q78 0 125 19.5t47 57.5z" />
    <glyph glyph-name="uni0636.init" unicode="&#x636;" horiz-adv-x="1421" arabic-form="initial" 
d="M1056 1124l-63 -145l-133 84l61 146zM1577 293h-986q-44 0 -84 18q-30 14 -71 45q-35 -36 -69.5 -49.5t-109.5 -13.5h-158v174h158q66 0 95 14q48 23 48 92q0 29 -3 58.5t-9 64.5l34 60q28 -136 78 -210q54 -79 126 -79q69 0 161 38q100 41 173 104q117 102 143 122
q66 52 121 74q60 25 132 25q112 0 169 -79q52 -73 52 -205v-253zM1443 544q0 49 -50 76.5t-116 27.5q-82 0 -199 -67l-184 -114h378q89 0 130 19t41 58z" />
    <glyph glyph-name="uni0636.medi" unicode="&#x636;" horiz-adv-x="1421" arabic-form="medial" 
d="M1056 1124l-63 -145l-133 84l61 146zM1577 293h-986q-44 0 -84 18q-30 14 -71 45q-35 -36 -69.5 -49.5t-109.5 -13.5h-158v174h158q66 0 95 14q48 23 48 92q0 29 -3 58.5t-9 64.5l34 60q28 -136 78 -210q54 -79 126 -79q69 0 161 38q100 41 173 104q117 102 143 122
q66 52 121 74q60 25 132 25q112 0 169 -79q52 -73 52 -205v-253zM1443 544q0 49 -50 76.5t-116 27.5q-82 0 -199 -67l-184 -114h378q89 0 130 19t41 58z" />
    <glyph glyph-name="uni0637" unicode="&#x637;" horiz-adv-x="977" arabic-form="isolated" 
d="M1084 293h-1034v174l125 1q56 0 104 18q56 21 127 74q14 44 23 94.5t9 97.5q0 107 -16 236q-12 94 -37 221q-13 66 -34 161l-51 31q6 60 17 116t30 108q14 -47 60 -73q39 -21 99 -28q-8 -103 -12.5 -131t-15.5 -69q-6 1 -31 10l-10 4q29 -117 47 -240.5t18 -207.5
q0 -71 -11 -158q-4 -31 -15 -96q144 101 184 124q121 70 208 70q111 0 166 -79q50 -72 50 -205v-253zM954 544q0 51 -43 77.5t-123 26.5q-60 0 -138 -32q-64 -26 -136 -72q-53 -34 -110 -77h357q193 0 193 77z" />
    <glyph glyph-name="uni0637.fina" unicode="&#x637;" horiz-adv-x="977" arabic-form="final" 
d="M1084 293h-1034v174l125 1q56 0 104 18q56 21 127 74q14 44 23 94.5t9 97.5q0 107 -16 236q-12 94 -37 221q-13 66 -34 161l-51 31q6 60 17 116t30 108q14 -47 60 -73q39 -21 99 -28q-8 -103 -12.5 -131t-15.5 -69q-6 1 -31 10l-10 4q29 -117 47 -240.5t18 -207.5
q0 -71 -11 -158q-4 -31 -15 -96q144 101 184 124q121 70 208 70q111 0 166 -79q50 -72 50 -205v-253zM954 544q0 51 -43 77.5t-123 26.5q-60 0 -138 -32q-64 -26 -136 -72q-53 -34 -110 -77h357q193 0 193 77z" />
    <glyph glyph-name="uni0637.init" unicode="&#x637;" horiz-adv-x="977" arabic-form="initial" 
d="M1084 293h-1034v174l125 1q56 0 104 18q56 21 127 74q14 44 23 94.5t9 97.5q0 107 -16 236q-12 94 -37 221q-13 66 -34 161l-51 31q6 60 17 116t30 108q14 -47 60 -73q39 -21 99 -28q-8 -103 -12.5 -131t-15.5 -69q-6 1 -31 10l-10 4q29 -117 47 -240.5t18 -207.5
q0 -71 -11 -158q-4 -31 -15 -96q144 101 184 124q121 70 208 70q111 0 166 -79q50 -72 50 -205v-253zM954 544q0 51 -43 77.5t-123 26.5q-60 0 -138 -32q-64 -26 -136 -72q-53 -34 -110 -77h357q193 0 193 77z" />
    <glyph glyph-name="uni0637.medi" unicode="&#x637;" horiz-adv-x="977" arabic-form="medial" 
d="M1084 293h-1034v174l125 1q56 0 104 18q56 21 127 74q14 44 23 94.5t9 97.5q0 107 -16 236q-12 94 -37 221q-13 66 -34 161l-51 31q6 60 17 116t30 108q14 -47 60 -73q39 -21 99 -28q-8 -103 -12.5 -131t-15.5 -69q-6 1 -31 10l-10 4q29 -117 47 -240.5t18 -207.5
q0 -71 -11 -158q-4 -31 -15 -96q144 101 184 124q121 70 208 70q111 0 166 -79q50 -72 50 -205v-253zM954 544q0 51 -43 77.5t-123 26.5q-60 0 -138 -32q-64 -26 -136 -72q-53 -34 -110 -77h357q193 0 193 77z" />
    <glyph glyph-name="uni0638" unicode="&#x638;" horiz-adv-x="977" arabic-form="isolated" 
d="M861 1224l-63 -145l-133 84l60 146zM1084 293h-1034v174l125 1q56 0 104 18q56 21 127 74q14 44 23 94.5t9 97.5q0 107 -16 236q-12 94 -37 221q-13 66 -34 161l-51 31q6 60 17 116t30 108q14 -47 60 -73q39 -21 99 -28q-8 -103 -12.5 -131t-15.5 -69q-6 1 -31 10l-10 4
q29 -117 47 -240.5t18 -207.5q0 -71 -11 -158q-4 -31 -15 -96q144 101 184 124q121 70 208 70q111 0 166 -79q50 -72 50 -205v-253zM954 544q0 51 -43 77.5t-123 26.5q-60 0 -138 -32q-64 -26 -136 -72q-53 -34 -110 -77h357q193 0 193 77z" />
    <glyph glyph-name="uni0638.fina" unicode="&#x638;" horiz-adv-x="977" arabic-form="final" 
d="M861 1224l-63 -145l-133 84l60 146zM1084 293h-1034v174l125 1q56 0 104 18q56 21 127 74q14 44 23 94.5t9 97.5q0 107 -16 236q-12 94 -37 221q-13 66 -34 161l-51 31q6 60 17 116t30 108q14 -47 60 -73q39 -21 99 -28q-8 -103 -12.5 -131t-15.5 -69q-6 1 -31 10l-10 4
q29 -117 47 -240.5t18 -207.5q0 -71 -11 -158q-4 -31 -15 -96q144 101 184 124q121 70 208 70q111 0 166 -79q50 -72 50 -205v-253zM954 544q0 51 -43 77.5t-123 26.5q-60 0 -138 -32q-64 -26 -136 -72q-53 -34 -110 -77h357q193 0 193 77z" />
    <glyph glyph-name="uni0638.init" unicode="&#x638;" horiz-adv-x="977" arabic-form="initial" 
d="M861 1224l-63 -145l-133 84l60 146zM1084 293h-1034v174l125 1q56 0 104 18q56 21 127 74q14 44 23 94.5t9 97.5q0 107 -16 236q-12 94 -37 221q-13 66 -34 161l-51 31q6 60 17 116t30 108q14 -47 60 -73q39 -21 99 -28q-8 -103 -12.5 -131t-15.5 -69q-6 1 -31 10l-10 4
q29 -117 47 -240.5t18 -207.5q0 -71 -11 -158q-4 -31 -15 -96q144 101 184 124q121 70 208 70q111 0 166 -79q50 -72 50 -205v-253zM954 544q0 51 -43 77.5t-123 26.5q-60 0 -138 -32q-64 -26 -136 -72q-53 -34 -110 -77h357q193 0 193 77z" />
    <glyph glyph-name="uni0638.medi" unicode="&#x638;" horiz-adv-x="977" arabic-form="medial" 
d="M861 1224l-63 -145l-133 84l60 146zM1084 293h-1034v174l125 1q56 0 104 18q56 21 127 74q14 44 23 94.5t9 97.5q0 107 -16 236q-12 94 -37 221q-13 66 -34 161l-51 31q6 60 17 116t30 108q14 -47 60 -73q39 -21 99 -28q-8 -103 -12.5 -131t-15.5 -69q-6 1 -31 10l-10 4
q29 -117 47 -240.5t18 -207.5q0 -71 -11 -158q-4 -31 -15 -96q144 101 184 124q121 70 208 70q111 0 166 -79q50 -72 50 -205v-253zM954 544q0 51 -43 77.5t-123 26.5q-60 0 -138 -32q-64 -26 -136 -72q-53 -34 -110 -77h357q193 0 193 77z" />
    <glyph glyph-name="uni0639" unicode="&#x639;" horiz-adv-x="913" arabic-form="isolated" 
d="M966 -267l-207 -167q-171 0 -264 17q-162 29 -250 116q-110 109 -110 313q0 124 31 223q25 81 73 153q23 34 80 103q-79 48 -109 83q-67 77 -67 195q0 106 73 208q84 117 202 117q54 0 114 -38q40 -25 100 -83q-80 0 -164 -13q-109 -17 -177 -49q-82 -39 -82 -96
q0 -61 95 -116q79 -46 180 -65q82 54 160 92q87 42 180 70l-34 -156q-171 -81 -246 -124q-153 -88 -234 -180q-104 -118 -104 -253q0 -141 87 -222q75 -70 222 -99q117 -23 297 -23q39 0 77.5 1t76.5 2v-9z" />
    <glyph glyph-name="uni0639.fina" unicode="&#x639;" horiz-adv-x="756" arabic-form="final" 
d="M899 -274l-166 -160q-153 0 -241 17q-159 31 -249 120q-116 115 -116 322q0 137 44 254q34 93 103 187q33 45 121 145q-9 34 -24 50t-32 16q-21 0 -42 -35h-14q17 105 36 145q46 96 151 96q71 0 121 -42q57 -47 57 -122q0 -49 -31 -83q-29 -28 -47 -46q46 -67 88 -95
t106 -28h75v-174h-75q-126 0 -195 46t-111 152q-60 -47 -109 -97q-65 -68 -102 -133q-46 -81 -46 -156q0 -169 139 -262q106 -71 292 -96q99 -13 264 -13z" />
    <glyph glyph-name="uni0639.init" unicode="&#x639;" horiz-adv-x="884" arabic-form="initial" 
d="M887 605l-57 -182q-124 -55 -286.5 -92.5t-299.5 -37.5h-204v174h196q-23 47 -38 106.5t-15 115.5q0 118 81 198t208 80q101 0 166 -60q28 -25 94 -123l-15 -17q-57 19 -102 28.5t-93 9.5q-113 0 -177.5 -30.5t-64.5 -80.5q0 -49 40.5 -109.5t104.5 -107.5
q134 25 220.5 48.5t241.5 79.5z" />
    <glyph glyph-name="uni0639.medi" unicode="&#x639;" horiz-adv-x="662" arabic-form="medial" 
d="M734 293h-120q-53 0 -108 31q-66 37 -96 103q-54 -60 -125 -93q-86 -41 -196 -41h-74v174h74q69 0 128 18q67 21 132 67l-34 54q-27 38 -60 38q-14 0 -25.5 -6.5t-25.5 -28.5h-17v59q0 110 47 151q44 37 151 37q93 0 151 -30q76 -39 76 -120q0 -43 -30 -89
q-22 -34 -81 -94q13 -24 50 -40t63 -16h120v-174z" />
    <glyph glyph-name="uni063A" unicode="&#x63a;" horiz-adv-x="913" arabic-form="isolated" 
d="M509 1424l-67 -144l-128 83l67 146zM966 -267l-207 -167q-171 0 -264 17q-162 29 -250 116q-110 109 -110 313q0 124 31 223q25 81 73 153q23 34 80 103q-79 48 -109 83q-67 77 -67 195q0 106 73 208q84 117 202 117q54 0 114 -38q40 -25 100 -83q-80 0 -164 -13
q-109 -17 -177 -49q-82 -39 -82 -96q0 -61 95 -116q79 -46 180 -65q82 54 160 92q87 42 180 70l-34 -156q-171 -81 -246 -124q-153 -88 -234 -180q-104 -118 -104 -253q0 -141 87 -222q75 -70 222 -99q117 -23 297 -23q39 0 77.5 1t76.5 2v-9z" />
    <glyph glyph-name="uni063A.fina" unicode="&#x63a;" horiz-adv-x="756" arabic-form="final" 
d="M574 1224l-62 -145l-133 84l62 146zM899 -274l-166 -160q-153 0 -241 17q-159 31 -249 120q-116 115 -116 322q0 137 44 254q34 93 103 187q33 45 121 145q-9 34 -24 50t-32 16q-21 0 -42 -35h-14q17 105 36 145q46 96 151 96q71 0 121 -42q57 -47 57 -122q0 -49 -31 -83
q-29 -28 -47 -46q46 -67 88 -95t106 -28h75v-174h-75q-126 0 -195 46t-111 152q-60 -47 -109 -97q-65 -68 -102 -133q-46 -81 -46 -156q0 -169 139 -262q106 -71 292 -96q99 -13 264 -13z" />
    <glyph glyph-name="uni063A.init" unicode="&#x63a;" horiz-adv-x="884" arabic-form="initial" 
d="M542 1224l-61 -145l-134 84l62 146zM887 605l-57 -182q-124 -55 -286.5 -92.5t-299.5 -37.5h-204v174h196q-23 47 -38 106.5t-15 115.5q0 118 81 198t208 80q101 0 166 -60q28 -25 94 -123l-15 -17q-57 19 -102 28.5t-93 9.5q-113 0 -177.5 -30.5t-64.5 -80.5
q0 -49 40.5 -109.5t104.5 -107.5q134 25 220.5 48.5t241.5 79.5z" />
    <glyph glyph-name="uni063A.medi" unicode="&#x63a;" horiz-adv-x="662" arabic-form="medial" 
d="M455 1224l-63 -145l-132 84l61 146zM734 293h-120q-53 0 -108 31q-66 37 -96 103q-54 -60 -125 -93q-86 -41 -196 -41h-74v174h74q69 0 128 18q67 21 132 67l-34 54q-27 38 -60 38q-14 0 -25.5 -6.5t-25.5 -28.5h-17v59q0 110 47 151q44 37 151 37q93 0 151 -30
q76 -39 76 -120q0 -43 -30 -89q-22 -34 -81 -94q13 -24 50 -40t63 -16h120v-174z" />
    <glyph glyph-name="uni0641" unicode="&#x641;" horiz-adv-x="1324" arabic-form="isolated" 
d="M1306 1309l-67 -148l-133 88l68 146zM1470 293h-752q-173 0 -279 26q-126 31 -191 103q-71 78 -71 212q0 89 42 208q30 81 45 121l33 -23q-35 -87 -46.5 -132.5t-11.5 -82.5q0 -132 118 -195t375 -63h605q-96 32 -141 74q-52 48 -52 119q0 93 51 199q57 119 127 119
q81 0 117 -117q31 -98 31 -279v-289zM1384 596q0 87 -15 134q-19 56 -58 56q-27 0 -41 -20.5t-14 -57.5q0 -49 34 -74q25 -18 94 -38z" />
    <glyph glyph-name="uni0641.fina" unicode="&#x641;" horiz-adv-x="1324" arabic-form="final" 
d="M1306 1309l-67 -148l-133 88l68 146zM1470 293h-752q-173 0 -279 26q-126 31 -191 103q-71 78 -71 212q0 89 42 208q30 81 45 121l33 -23q-35 -87 -46.5 -132.5t-11.5 -82.5q0 -132 118 -195t375 -63h605q-96 32 -141 74q-52 48 -52 119q0 93 51 199q57 119 127 119
q81 0 117 -117q31 -98 31 -279v-289zM1384 596q0 87 -15 134q-19 56 -58 56q-27 0 -41 -20.5t-14 -57.5q0 -49 34 -74q25 -18 94 -38z" />
    <glyph glyph-name="uni0641.init" unicode="&#x641;" horiz-adv-x="450" arabic-form="initial" 
d="M390 1401l-64 -146l-132 86l61 146zM499 293h-507v174h437q0 89 -17 167q-43 -17 -66 -24q-38 -12 -66 -12q-60 0 -98 37q-43 42 -43 121q0 139 41 243q46 116 119 116q100 0 155 -191q45 -158 45 -371v-260zM365 813q-11 36 -37 73q-34 50 -65 50q-23 0 -37 -22.5
t-14 -53.5q0 -80 72 -80q19 0 40 9t41 24z" />
    <glyph glyph-name="uni0641.medi" unicode="&#x641;" horiz-adv-x="442" arabic-form="medial" 
d="M418 1355l-72 -144l-115 96l68 140zM490 293h-499v174h281q51 0 86.5 4.5t77.5 19.5q-141 25 -183 47q-94 50 -94 170q0 105 45 198q51 105 124 105q84 0 127 -130q35 -103 35 -243v-345zM416 642q-19 80 -36 119q-34 75 -81 75q-23 0 -39.5 -22t-16.5 -52q0 -76 65 -102
q23 -9 108 -18z" />
    <glyph glyph-name="uni0642" unicode="&#x642;" horiz-adv-x="976" arabic-form="isolated" 
d="M988 1314l-64 -144l-133 86l62 143zM799 1224l-62 -145l-133 84l61 145zM1084 242q0 -198 -156 -302q-140 -93 -372 -93q-183 0 -283 80q-108 87 -108 258q0 118 31 248q28 120 82 240l34 -18q-24 -70 -40 -124q-22 -74 -32 -127q-12 -67 -12 -130q0 -130 90 -192
q84 -57 247 -57q174 0 306 70q151 81 151 219q0 51 -2.5 73.5t-10.5 45.5q-31 -18 -62.5 -28.5t-63.5 -10.5q-72 0 -117 40q-55 48 -55 145q0 113 47 216q54 116 127 116q95 0 151 -160q48 -136 48 -315v-194zM953 613q-21 62 -30 77q-23 41 -57 41q-40 0 -58.5 -23
t-18.5 -58q0 -31 24 -49t54 -18q22 0 40.5 7.5t45.5 22.5z" />
    <glyph glyph-name="uni0642.fina" unicode="&#x642;" horiz-adv-x="976" arabic-form="final" 
d="M988 1314l-64 -144l-133 86l62 143zM799 1224l-62 -145l-133 84l61 145zM1084 242q0 -198 -156 -302q-140 -93 -372 -93q-183 0 -283 80q-108 87 -108 258q0 118 31 248q28 120 82 240l34 -18q-24 -70 -40 -124q-22 -74 -32 -127q-12 -67 -12 -130q0 -130 90 -192
q84 -57 247 -57q174 0 306 70q151 81 151 219q0 51 -2.5 73.5t-10.5 45.5q-31 -18 -62.5 -28.5t-63.5 -10.5q-72 0 -117 40q-55 48 -55 145q0 113 47 216q54 116 127 116q95 0 151 -160q48 -136 48 -315v-194zM953 613q-21 62 -30 77q-23 41 -57 41q-40 0 -58.5 -23
t-18.5 -58q0 -31 24 -49t54 -18q22 0 40.5 7.5t45.5 22.5z" />
    <glyph glyph-name="uni0642.init" unicode="&#x642;" horiz-adv-x="450" arabic-form="initial" 
d="M472 1431l-64 -144l-132 86l61 143zM284 1341l-62 -145l-133 84l60 145zM499 293h-507v174h437q0 89 -17 167q-43 -17 -66 -24q-38 -12 -66 -12q-60 0 -98 37q-43 42 -43 121q0 139 41 243q46 116 119 116q100 0 155 -191q45 -158 45 -371v-260zM365 813q-11 36 -37 73
q-34 50 -65 50q-23 0 -37 -22.5t-14 -53.5q0 -80 72 -80q19 0 40 9t41 24z" />
    <glyph glyph-name="uni0642.medi" unicode="&#x642;" horiz-adv-x="442" arabic-form="medial" 
d="M454 1407l-69 -134l-103 82l71 133zM267 1347l-65 -136l-101 81l68 134zM490 293h-499v174h281q51 0 86.5 4.5t77.5 19.5q-141 25 -183 47q-94 50 -94 170q0 105 45 198q51 105 124 105q84 0 127 -130q35 -103 35 -243v-345zM416 642q-19 80 -36 119q-34 75 -81 75
q-23 0 -39.5 -22t-16.5 -52q0 -76 65 -102q23 -9 108 -18z" />
    <glyph glyph-name="uni0643" unicode="&#x643;" horiz-adv-x="1010" arabic-form="isolated" 
d="M820 904q0 -109 -60 -169t-168 -60q-50 0 -111 17q-36 10 -108 37l14 21q20 0 48 -3q64 -7 80 -7q94 0 162 33.5t68 79.5q0 21 -14 36t-33 15q-21 0 -33 -1l-57 -5q-21 0 -35 13t-14 44q0 84 71.5 201t150.5 149l-16 -131q-56 -19 -87 -41q-49 -35 -49 -84
q0 -17 13 -24.5t30 -7.5q15 0 27 2l44 7q43 0 60 -27t17 -95zM1120 293h-605q-196 0 -279 57q-88 61 -88 208q0 88 38 200q11 31 45 115l28 -20q-28 -78 -36.5 -120t-8.5 -80q0 -109 94 -153q71 -33 207 -33h522l-102 848l-43 25q0 69 10 129.5t30 117.5l12 -11
q0 -58 59 -87l89 -40q0 -46 -9.5 -103t-19.5 -89l-40 16l97 -784v-196z" />
    <glyph glyph-name="uni0643.fina" unicode="&#x643;" horiz-adv-x="1010" arabic-form="final" 
d="M820 904q0 -109 -60 -169t-168 -60q-50 0 -111 17q-36 10 -108 37l14 21q20 0 48 -3q64 -7 80 -7q94 0 162 33.5t68 79.5q0 21 -14 36t-33 15q-21 0 -33 -1l-57 -5q-21 0 -35 13t-14 44q0 84 71.5 201t150.5 149l-16 -131q-56 -19 -87 -41q-49 -35 -49 -84
q0 -17 13 -24.5t30 -7.5q15 0 27 2l44 7q43 0 60 -27t17 -95zM1120 293h-605q-196 0 -279 57q-88 61 -88 208q0 88 38 200q11 31 45 115l28 -20q-28 -78 -36.5 -120t-8.5 -80q0 -109 94 -153q71 -33 207 -33h522l-102 848l-43 25q0 69 10 129.5t30 117.5l12 -11
q0 -58 59 -87l89 -40q0 -46 -9.5 -103t-19.5 -89l-40 16l97 -784v-196z" />
    <glyph glyph-name="uni0643.init" unicode="&#x643;" horiz-adv-x="662" arabic-form="initial" 
d="M734 293h-719v174h624q-57 106 -131 184.5t-199 169.5l-27 -31l-97 90q-51 52 -51 81q0 172 69 270q64 90 221 162l231 110v-173l-172 -70q-102 -41 -165 -75q-81 -43 -81 -66t53 -71l66 -60q125 -115 218 -241q100 -135 160 -280v-174z" />
    <glyph glyph-name="uni0643.medi" unicode="&#x643;" horiz-adv-x="662" arabic-form="medial" 
d="M734 293h-719v174h624q-57 106 -131 184.5t-199 169.5l-27 -31l-97 90q-51 52 -51 81q0 172 69 270q64 90 221 162l231 110v-173l-172 -70q-102 -41 -165 -75q-81 -43 -81 -66t53 -71l66 -60q125 -115 218 -241q100 -135 160 -280v-174z" />
    <glyph glyph-name="uni0644" unicode="&#x644;" horiz-adv-x="850" arabic-form="isolated" 
d="M944 417q0 -160 -62 -254q-55 -83 -161 -119q-91 -30 -229 -30q-158 0 -245 71q-95 78 -95 233q0 86 20 179q17 79 53 173q25 68 68 164l27 -19q-31 -67 -51 -120q-27 -71 -40 -127q-16 -68 -16 -132q0 -123 73.5 -186t203.5 -63q139 0 257 58q129 64 129 153
q0 97 -25 329q-20 178 -48 398l-27 194l-38 24q0 134 45 244h14q3 -38 11.5 -56.5t26.5 -27.5q26 -13 56 -31q22 -13 39 -23q0 -70 -4 -102t-17 -90l-47 18q2 -22 24 -201q26 -209 38 -339q20 -208 20 -318z" />
    <glyph glyph-name="uni0644.fina" unicode="&#x644;" horiz-adv-x="850" arabic-form="final" 
d="M944 417q0 -160 -62 -254q-55 -83 -161 -119q-91 -30 -229 -30q-158 0 -245 71q-95 78 -95 233q0 86 20 179q17 79 53 173q25 68 68 164l27 -19q-31 -67 -51 -120q-27 -71 -40 -127q-16 -68 -16 -132q0 -123 73.5 -186t203.5 -63q139 0 257 58q129 64 129 153
q0 97 -25 329q-20 178 -48 398l-27 194l-38 24q0 134 45 244h14q3 -38 11.5 -56.5t26.5 -27.5q26 -13 56 -31q22 -13 39 -23q0 -70 -4 -102t-17 -90l-47 18q2 -22 24 -201q26 -209 38 -339q20 -208 20 -318z" />
    <glyph glyph-name="uni0644.init" unicode="&#x644;" horiz-adv-x="348" arabic-form="initial" 
d="M386 293h-405v174h322l-98 848l-42 25q0 69 9.5 129.5t29.5 117.5l12 -11q0 -58 54 -87q41 -20 83 -40q0 -50 -7 -107t-16 -85l-39 16l97 -784v-196z" />
    <glyph glyph-name="uni0644.medi" unicode="&#x644;" horiz-adv-x="348" arabic-form="medial" 
d="M386 293h-405v174h322l-98 848l-42 25q0 69 9.5 129.5t29.5 117.5l12 -11q0 -58 54 -87q41 -20 83 -40q0 -50 -7 -107t-16 -85l-39 16l97 -784v-196z" />
    <glyph glyph-name="uni0645" unicode="&#x645;" horiz-adv-x="568" arabic-form="isolated" 
d="M630 293h-98q-136 0 -238 -31q-128 -39 -128 -112q0 -66 18.5 -141t37.5 -152t19 -141q0 -38 -4.5 -69t-15.5 -81q-22 83 -42 166q-40 158 -58 239q-30 128 -30 154q0 128 44 196.5t135 101.5q72 26 217 44q-52 64 -64 76q-42 40 -84 40q-27 0 -52 -20q-20 -16 -48 -55
l-37 29q24 75 55 120q52 74 123 74q50 0 101 -46q42 -38 86 -106q21 -33 63 -112v-174z" />
    <glyph glyph-name="uni0645.fina" unicode="&#x645;" horiz-adv-x="568" arabic-form="final" 
d="M630 293h-98q-136 0 -238 -31q-128 -39 -128 -112q0 -66 18.5 -141t37.5 -152t19 -141q0 -38 -4.5 -69t-15.5 -81q-22 83 -42 166q-40 158 -58 239q-30 128 -30 154q0 128 44 196.5t135 101.5q72 26 217 44q-52 64 -64 76q-42 40 -84 40q-27 0 -52 -20q-20 -16 -48 -55
l-37 29q24 75 55 120q52 74 123 74q50 0 101 -46q42 -38 86 -106q21 -33 63 -112v-174z" />
    <glyph glyph-name="uni0645.init" unicode="&#x645;" horiz-adv-x="662" arabic-form="initial" 
d="M734 293h-85q-55 0 -124 30q-79 35 -140 96q-48 -71 -97.5 -98.5t-144.5 -27.5h-128v174h126q74 0 133 46q45 36 82 101q50 88 123 153q65 58 120 74q57 -105 90 -189q45 -114 45 -185v-174zM640 490q-11 58 -33 114q-19 47 -50 97q-39 -12 -66 -45q-18 -21 -43 -71
q30 -39 83.5 -70t101.5 -38z" />
    <glyph glyph-name="uni0645.medi" unicode="&#x645;" horiz-adv-x="662" arabic-form="medial" 
d="M734 293h-85q-55 0 -124 30q-79 35 -140 96q-48 -71 -97.5 -98.5t-144.5 -27.5h-128v174h126q74 0 133 46q45 36 82 101q50 88 123 153q65 58 120 74q57 -105 90 -189q45 -114 45 -185v-174zM640 490q-11 58 -33 114q-19 47 -50 97q-39 -12 -66 -45q-18 -21 -43 -71
q30 -39 83.5 -70t101.5 -38z" />
    <glyph glyph-name="uni0646" unicode="&#x646;" horiz-adv-x="884" arabic-form="isolated" 
d="M675 1060l-61 -143l-128 86l59 139zM980 293q0 -223 -107 -328q-116 -113 -373 -113q-164 0 -251 70q-95 77 -95 236q0 86 17 174t46 177q19 54 63 166l33 -18q-58 -144 -76.5 -227t-18.5 -152q0 -124 72.5 -188.5t207.5 -64.5q155 0 275 67q148 83 148 232
q0 102 -25 190q-21 78 -60 136l68 205q43 -81 59.5 -165t16.5 -223v-174z" />
    <glyph glyph-name="uni0646.fina" unicode="&#x646;" horiz-adv-x="884" arabic-form="final" 
d="M675 1060l-61 -143l-128 86l59 139zM980 293q0 -223 -107 -328q-116 -113 -373 -113q-164 0 -251 70q-95 77 -95 236q0 86 17 174t46 177q19 54 63 166l33 -18q-58 -144 -76.5 -227t-18.5 -152q0 -124 72.5 -188.5t207.5 -64.5q155 0 275 67q148 83 148 232
q0 102 -25 190q-21 78 -60 136l68 205q43 -81 59.5 -165t16.5 -223v-174z" />
    <glyph glyph-name="uni0646.init" unicode="&#x646;" horiz-adv-x="410" arabic-form="initial" 
d="M389 1218l-62 -145l-133 84l61 145zM455 293h-467v174h407q0 118 -23 180q-15 43 -77 124l64 163q59 -91 74 -142q22 -77 22 -255v-244z" />
    <glyph glyph-name="uni0646.medi" unicode="&#x646;" horiz-adv-x="410" arabic-form="medial" 
d="M389 1218l-62 -145l-133 84l61 145zM455 293h-467v174h407q0 118 -23 180q-15 43 -77 124l64 163q59 -91 74 -142q22 -77 22 -255v-244z" />
    <glyph glyph-name="uni0647" unicode="&#x647;" horiz-adv-x="474" arabic-form="isolated" 
d="M492 588q0 -141 -38 -212q-58 -110 -213 -110q-60 0 -100 29q-45 33 -45 94q0 70 29 162q26 78 53 157l-12 4l50 169q148 -95 177 -120q99 -84 99 -173zM420 510q0 38 -90 101q-39 27 -83 53q-37 -49 -44 -61q-23 -39 -23 -74q0 -51 23.5 -79.5t62.5 -28.5q46 0 100 31.5
t54 57.5z" />
    <glyph glyph-name="uni0647.fina" unicode="&#x6be;" horiz-adv-x="630" arabic-form="final" 
d="M699 293h-117q-59 0 -105 123q-33 92 -54 237q-24 -56 -62 -87t-79 -31q-95 0 -157.5 15.5t-62.5 39.5q0 86 91.5 190.5t229.5 182.5q-1 8 -6.5 42t-5.5 42q0 34 19 76q15 34 41 70q8 -62 16.5 -120t20.5 -120l24 -172q21 -142 37 -210q26 -104 53 -104h117v-174z
M413 740l-16 109q-71 -31 -112 -64.5t-69 -88.5q17 -9 40 -14t63 -5q49 0 94 63z" />
    <glyph glyph-name="uni06BE" unicode="&#x647;" horiz-adv-x="756" arabic-form="initial" 
d="M729 462q0 -58 -29 -129q-32 -77 -64 -77q-34 0 -126 52q-84 48 -142 94q-96 -66 -139 -85q-55 -24 -130 -24h-73v174h73q34 0 65 6.5t85 23.5q-22 19 -43 39q-23 25 -23 49q0 17 1 25t11 30l82 173q16 35 29.5 48.5t37.5 21.5q-57 47 -57 67t36 103q13 28 38 83
q52 -61 132 -177q101 -146 159 -261q77 -152 77 -236zM441 679q0 43 -15 68q-17 30 -55 30t-71 -30.5t-33 -73.5q0 -41 101 -108q35 28 52 54q21 30 21 60zM638 450q0 35 -46 109q-28 47 -70 100q0 -49 -17 -91.5t-47 -65.5q49 -31 99 -61q41 -22 58 -22q10 0 16.5 9t6.5 22
z" />
    <glyph glyph-name="uni06BE.fina" unicode="&#x6be;" horiz-adv-x="662" arabic-form="medial" 
d="M734 293h-300q53 -30 90 -85q46 -69 46 -150q0 -78 -19 -125q-25 -59 -77 -59q-99 0 -181 83q-98 100 -98 264l1 72h-181v174h208q28 93 63 173q43 101 91 165q55 74 103 74q26 0 45 -54t19 -115q0 -88 -38 -143q-22 -33 -132 -100h360v-174zM463 636q0 95 -33 95
q-35 0 -84 -94q-24 -45 -68 -150q75 25 126 63q59 44 59 86zM496 74q0 79 -95 152q-78 60 -154 76q0 -110 44 -181q52 -86 156 -86q20 0 34.5 10t14.5 29z" />
    <glyph glyph-name="uni0648" unicode="&#x648;" horiz-adv-x="726" arabic-form="isolated" 
d="M805 353q0 -165 -100 -328q-111 -182 -257 -182q-54 0 -112 15q-42 11 -109 38q-53 23 -106 45l14 35q46 -13 96 -27.5t91 -14.5q100 0 189 62q70 49 139 142q36 47 100 153q-110 0 -165 43q-63 49 -63 161q0 103 40 191q46 102 116 102q72 0 103 -101q24 -79 24 -220
v-114zM754 462q-18 96 -44 133q-22 32 -54 32q-23 0 -39.5 -18.5t-16.5 -46.5q0 -49 36 -74.5t118 -25.5z" />
    <glyph glyph-name="uni0648.fina" unicode="&#x648;" horiz-adv-x="726" arabic-form="final" 
d="M805 353q0 -165 -100 -328q-111 -182 -257 -182q-54 0 -112 15q-42 11 -109 38q-53 23 -106 45l14 35q46 -13 96 -27.5t91 -14.5q100 0 189 62q70 49 139 142q36 47 100 153q-110 0 -165 43q-63 49 -63 161q0 103 40 191q46 102 116 102q72 0 103 -101q24 -79 24 -220
v-114zM754 462q-18 96 -44 133q-22 32 -54 32q-23 0 -39.5 -18.5t-16.5 -46.5q0 -49 36 -74.5t118 -25.5z" />
    <glyph glyph-name="uni0649" unicode="&#x649;" horiz-adv-x="1072" arabic-form="isolated" 
d="M1135 800q0 -32 -5 -65.5t-6 -47.5q-29 45 -68.5 71t-80.5 26q-72 0 -151 -101q-72 -93 -72 -148q0 -19 18 -28.5t61 -9.5h66q59 0 87 -1.5t67.5 -9.5t39.5 -73q0 -251 -180 -382q-164 -120 -446 -120q-146 0 -223 69q-83 75 -83 226q0 104 28 218q21 87 59 182
q2 6 51 119l35 -17q-52 -112 -79.5 -209.5t-27.5 -172.5q0 -122 69.5 -183t197.5 -61q99 0 229 48q112 41 201 98t89 84q0 19 -10 25t-33 6h-192q-35 0 -62 31t-27 80q0 67 45 182q49 125 119 209q83 101 168 101q54 0 85 -40t31 -106z" />
    <glyph glyph-name="uni0649.fina" unicode="&#x649;" horiz-adv-x="989" arabic-form="final" 
d="M1097 293h-144q-126 0 -189.5 -8t-63.5 -32q0 -33 76 -33q34 0 53.5 -2t85.5 -11q40 -6 54 -15q24 -15 24 -52q0 -187 -101 -272q-110 -93 -363 -93q-176 0 -280 73q-111 78 -111 222q0 116 52 246q19 47 100 201l32 -20q-31 -65 -61 -129q-47 -110 -47 -180
q0 -123 105 -187q100 -61 275 -61q117 0 207 22q109 27 109 74q0 17 -12 25.5t-41 8.5q-22 3 -69 6.5t-62 3.5q-52 0 -74 16.5t-22 49.5q0 124 60 203q49 64 132 95q62 23 131 23h144v-174z" />
    <glyph glyph-name="uni064A" unicode="&#x64a;" horiz-adv-x="1072" arabic-form="isolated" 
d="M1135 800q0 -32 -5 -65.5t-6 -47.5q-29 45 -68.5 71t-80.5 26q-72 0 -151 -101q-72 -93 -72 -148q0 -19 18 -28.5t61 -9.5h66q59 0 87 -1.5t67.5 -9.5t39.5 -73q0 -251 -180 -382q-164 -120 -446 -120q-146 0 -223 69q-83 75 -83 226q0 104 28 218q21 87 59 182
q2 6 51 119l35 -17q-52 -112 -79.5 -209.5t-27.5 -172.5q0 -122 69.5 -183t197.5 -61q99 0 229 48q112 41 201 98t89 84q0 19 -10 25t-33 6h-192q-35 0 -62 31t-27 80q0 67 45 182q49 125 119 209q83 101 168 101q54 0 85 -40t31 -106zM826 -191l-64 -144l-133 86l62 143z
M638 -281l-63 -145l-133 84l61 145z" />
    <glyph glyph-name="uni064A.fina" unicode="&#x64a;" horiz-adv-x="989" arabic-form="final" 
d="M1097 293h-144q-126 0 -189.5 -8t-63.5 -32q0 -33 76 -33q34 0 53.5 -2t85.5 -11q40 -6 54 -15q24 -15 24 -52q0 -187 -101 -272q-110 -93 -363 -93q-176 0 -280 73q-111 78 -111 222q0 116 52 246q19 47 100 201l32 -20q-31 -65 -61 -129q-47 -110 -47 -180
q0 -123 105 -187q100 -61 275 -61q117 0 207 22q109 27 109 74q0 17 -12 25.5t-41 8.5q-22 3 -69 6.5t-62 3.5q-52 0 -74 16.5t-22 49.5q0 124 60 203q49 64 132 95q62 23 131 23h144v-174zM757 -348l-76 -86l-92 71l74 94zM587 -348l-74 -86l-95 71l76 94z" />
    <glyph glyph-name="uni064A.init" unicode="&#x6cc;" horiz-adv-x="410" arabic-form="initial" 
d="M455 293h-467v174h407q0 118 -23 180q-15 43 -77 124l64 163q59 -91 74 -142q22 -77 22 -255v-244zM451 93l-64 -144l-133 86l62 143zM262 3l-62 -145l-133 84l61 145z" />
    <glyph glyph-name="uni064A.medi" unicode="&#x6cc;" horiz-adv-x="410" arabic-form="medial" 
d="M455 293h-467v174h407q0 118 -23 180q-15 43 -77 124l64 163q59 -91 74 -142q22 -77 22 -255v-244zM451 93l-64 -144l-133 86l62 143zM262 3l-62 -145l-133 84l61 145z" />
    <glyph glyph-name="uni066E.init" unicode="&#x649;" horiz-adv-x="410" arabic-form="initial" 
d="M455 293h-467v174h407q0 118 -23 180q-15 43 -77 124l64 163q59 -91 74 -142q22 -77 22 -255v-244z" />
    <glyph glyph-name="uni066F.init" unicode="&#x66f;" horiz-adv-x="450" 
d="M499 293h-507v174h437q0 89 -17 167q-43 -17 -66 -24q-38 -12 -66 -12q-60 0 -98 37q-43 42 -43 121q0 139 41 243q46 116 119 116q100 0 155 -191q45 -158 45 -371v-260zM365 813q-11 36 -37 73q-34 50 -65 50q-23 0 -37 -22.5t-14 -53.5q0 -80 72 -80q19 0 40 9t41 24z
" />
    <glyph glyph-name="uni066F.medi" unicode="&#x66f;" horiz-adv-x="442" 
d="M490 293h-499v174h281q51 0 86.5 4.5t77.5 19.5q-141 25 -183 47q-94 50 -94 170q0 105 45 198q51 105 124 105q84 0 127 -130q35 -103 35 -243v-345zM416 642q-19 80 -36 119q-34 75 -81 75q-23 0 -39.5 -22t-16.5 -52q0 -76 65 -102q23 -9 108 -18z" />
    <glyph glyph-name="uni0671" unicode="&#x671;" horiz-adv-x="347" arabic-form="isolated" 
d="M315 548q0 -80 -23 -155q-13 -40 -54 -127l-15 10q3 29 5 67t2 51q0 104 -13.5 290.5t-32.5 389.5q-11 123 -25 251q16 44 37 95t40 96q13 -114 33 -312t32 -357q14 -198 14 -299zM353 1725q0 -53 -39 -97q-43 -48 -102 -48h-137q-25 0 -25 -45q0 -5 2 -18v-18
q-40 49 -40 101q0 66 63 66h19q97 159 192 159q67 0 67 -100zM280 1726q0 38 -27 38q-45 0 -114 -98h67q74 0 74 60z" />
    <glyph glyph-name="uni0671.fina" unicode="&#x671;" horiz-adv-x="442" arabic-form="final" 
d="M428 293h-115q-56 0 -89 55q-30 48 -45 143t-24 234q-4 113 -9.5 232t-14 180.5t-23.5 100.5q-18 48 -50 84l101 194q32 -120 45 -287q8 -104 16 -492q15 -178 43 -228q23 -42 50 -42h115v-174zM273 1725q0 -53 -39 -97q-43 -48 -102 -48h-137q-25 0 -25 -45q0 -5 2 -18
v-18q-40 49 -40 101q0 66 63 66h19q97 159 192 159q67 0 67 -100zM200 1726q0 38 -27 38q-45 0 -114 -98h67q74 0 74 60z" />
    <glyph glyph-name="uni0672.fina" unicode="&#x672;" horiz-adv-x="435" 
d="M428 293h-115q-56 0 -89 55q-30 48 -45 143t-24 234q-4 113 -9.5 232t-14 180.5t-23.5 100.5q-18 48 -50 84l101 194q32 -120 45 -287q8 -104 16 -492q15 -178 43 -228q23 -42 50 -42h115v-174zM260 1658q0 -40 -77 -73q-62 -26 -106 -43q-5 -2 -13 -2q-13 0 -36.5 11.5
t-32.5 11.5q-14 0 -35 -35l-9 13q33 70 57 70q17 0 36.5 -11t35.5 -11q18 0 33 13q-56 35 -56 71q0 31 43 87q49 62 86 62q40 0 40 -49q0 -23 -19 -61q-26 28 -55 28q-53 0 -53 -30q0 -19 43 -44q40 -23 60 -23q27 0 58 15z" />
    <glyph glyph-name="uni0673.fina" unicode="&#x673;" horiz-adv-x="428" 
d="M428 293h-115q-56 0 -89 55q-30 48 -45 143t-24 234q-4 113 -9.5 232t-14 180.5t-23.5 100.5q-18 48 -50 84l101 194q32 -120 45 -287q8 -104 16 -492q15 -178 43 -228q23 -42 50 -42h115v-174zM300 -42q0 -40 -77 -73q-62 -26 -106 -43q-5 -2 -13 -2q-13 0 -36.5 11.5
t-32.5 11.5q-14 0 -35 -35l-9 13q33 70 57 70q17 0 36.5 -11t35.5 -11q18 0 33 13q-56 35 -56 71q0 31 43 87q49 62 86 62q40 0 40 -49q0 -23 -19 -61q-26 28 -55 28q-53 0 -53 -30q0 -19 43 -44q40 -23 60 -23q27 0 58 15z" />
    <glyph glyph-name="uni0675.fina" unicode="&#x675;" horiz-adv-x="380" 
d="M428 293h-115q-56 0 -89 55q-30 48 -45 143t-24 234q-4 113 -9.5 232t-14 180.5t-23.5 100.5q-18 48 -50 84l101 194q32 -120 45 -287q8 -104 16 -492q15 -178 43 -228q23 -42 50 -42h115v-174zM500 1338q0 -25 -25 -45q-18 -13 -52 -28l-152 -64q0 46 82 81
q-26 16 -39 31q-17 19 -17 40q0 31 43 87q49 62 86 62q16 0 28 -13.5t12 -35.5q0 -14 -5 -28.5t-14 -32.5q-26 28 -55 28q-18 0 -35.5 -9t-17.5 -21q0 -15 38 -41t65 -26q18 0 26 1.5t32 13.5z" />
    <glyph glyph-name="uni0677" unicode="&#x677;" horiz-adv-x="768" arabic-form="isolated" 
d="M805 353q0 -165 -100 -328q-111 -182 -257 -182q-54 0 -112 15q-42 11 -109 38q-53 23 -106 45l14 35q46 -13 96 -27.5t91 -14.5q100 0 189 62q70 49 139 142q36 47 100 153q-110 0 -165 43q-63 49 -63 161q0 103 40 191q46 102 116 102q72 0 103 -101q24 -79 24 -220
v-114zM754 462q-18 96 -44 133q-22 32 -54 32q-23 0 -39.5 -18.5t-16.5 -46.5q0 -49 36 -74.5t118 -25.5zM980 1058q0 -25 -25 -45q-18 -13 -52 -28l-152 -64q0 46 82 81q-26 16 -39 31q-17 19 -17 40q0 31 43 87q49 62 86 62q16 0 28 -13.5t12 -35.5q0 -14 -5 -28.5
t-14 -32.5q-26 28 -55 28q-18 0 -35.5 -9t-17.5 -21q0 -15 38 -41t65 -26q18 0 26 1.5t32 13.5zM552 992q0 -17 -2.5 -35t-5.5 -36l-68 50q-41 -55 -55 -73q-61 -72 -102 -72h-60q44 25 102 81q52 51 79 90q-25 19 -38 40q-17 26 -17 57q0 66 31.5 116.5t68.5 50.5
q22 0 39 -28t17 -68q0 -19 -4.5 -39.5t-20.5 -75.5q13 -14 27 -27q9 -11 9 -31zM490 1105q0 27 -15.5 50t-30.5 23q-8 0 -12.5 -7t-4.5 -14q0 -22 21 -46l36 -34q6 20 6 28z" />
    <glyph glyph-name="uni0678.fina" unicode="&#x678;" horiz-adv-x="992" 
d="M1097 293h-144q-126 0 -189.5 -8t-63.5 -32q0 -33 76 -33q34 0 53.5 -2t85.5 -11q40 -6 54 -15q24 -15 24 -52q0 -187 -101 -272q-110 -93 -363 -93q-176 0 -280 73q-111 78 -111 222q0 116 52 246q19 47 100 201l32 -20q-31 -65 -61 -129q-47 -110 -47 -180
q0 -123 105 -187q100 -61 275 -61q117 0 207 22q109 27 109 74q0 17 -12 25.5t-41 8.5q-22 3 -69 6.5t-62 3.5q-52 0 -74 16.5t-22 49.5q0 124 60 203q49 64 132 95q62 23 131 23h144v-174zM1100 738q0 -25 -25 -45q-18 -13 -52 -28l-152 -64q0 46 82 81q-26 16 -39 31
q-17 19 -17 40q0 31 43 87q49 62 86 62q16 0 28 -13.5t12 -35.5q0 -14 -5 -28.5t-14 -32.5q-26 28 -55 28q-18 0 -35.5 -9t-17.5 -21q0 -15 38 -41t65 -26q18 0 26 1.5t32 13.5z" />
    <glyph glyph-name="uni0679" unicode="&#x679;" horiz-adv-x="1198" arabic-form="isolated" 
d="M1330 293h-783q-157 0 -251 67q-117 84 -117 263q0 93 34 190q13 35 60 133l24 -19q-18 -46 -35 -92q-24 -71 -24 -127q0 -118 102 -183q91 -58 230 -58h695v27q0 112 -22.5 182.5t-75.5 120.5l63 163q36 -55 44 -69q56 -112 56 -326v-272zM1001 1062h-492v83h59
q52 0 110 44q16 46 16 91q0 49 -8 113q-7 49 -18 105q-5 30 -16 77l-24 14q7 65 22 107q7 -24 33 -37q17 -8 43 -11q-2 -31 -13 -95q-4 1 -15 4l-5 2q31 -127 31 -213q0 -32 -5 -75q-2 -13 -7 -46q66 47 88 59q59 34 98 34q103 0 103 -136v-120zM939 1181q0 50 -79 50
q-51 0 -130 -50q-32 -20 -52 -36h169q92 0 92 36z" />
    <glyph glyph-name="uni0679.fina" unicode="&#x679;" horiz-adv-x="1198" arabic-form="final" 
d="M1330 293h-783q-157 0 -251 67q-117 84 -117 263q0 93 34 190q13 35 60 133l24 -19q-18 -46 -35 -92q-24 -71 -24 -127q0 -118 102 -183q91 -58 230 -58h695v27q0 112 -22.5 182.5t-75.5 120.5l63 163q36 -55 44 -69q56 -112 56 -326v-272zM1001 1062h-492v83h59
q52 0 110 44q16 46 16 91q0 49 -8 113q-7 49 -18 105q-5 30 -16 77l-24 14q7 65 22 107q7 -24 33 -37q17 -8 43 -11q-2 -31 -13 -95q-4 1 -15 4l-5 2q31 -127 31 -213q0 -32 -5 -75q-2 -13 -7 -46q66 47 88 59q59 34 98 34q103 0 103 -136v-120zM939 1181q0 50 -79 50
q-51 0 -130 -50q-32 -20 -52 -36h169q92 0 92 36z" />
    <glyph glyph-name="uni0679.init" unicode="&#x679;" horiz-adv-x="415" arabic-form="initial" 
d="M455 293h-467v174h407q0 118 -23 180q-15 43 -77 124l64 163q59 -91 74 -142q22 -77 22 -255v-244zM501 1062h-492v83h59q52 0 110 44q16 46 16 91q0 49 -8 113q-7 49 -18 105q-5 30 -16 77l-24 14q7 65 22 107q7 -24 33 -37q17 -8 43 -11q-2 -31 -13 -95q-4 1 -15 4
l-5 2q31 -127 31 -213q0 -32 -5 -75q-2 -13 -7 -46q66 47 88 59q59 34 98 34q103 0 103 -136v-120zM439 1181q0 50 -79 50q-51 0 -130 -50q-32 -20 -52 -36h169q92 0 92 36z" />
    <glyph glyph-name="uni0679.medi" unicode="&#x679;" horiz-adv-x="415" arabic-form="medial" 
d="M455 293h-467v174h407q0 118 -23 180q-15 43 -77 124l64 163q59 -91 74 -142q22 -77 22 -255v-244zM501 1062h-492v83h59q52 0 110 44q16 46 16 91q0 49 -8 113q-7 49 -18 105q-5 30 -16 77l-24 14q7 65 22 107q7 -24 33 -37q17 -8 43 -11q-2 -31 -13 -95q-4 1 -15 4
l-5 2q31 -127 31 -213q0 -32 -5 -75q-2 -13 -7 -46q66 47 88 59q59 34 98 34q103 0 103 -136v-120zM439 1181q0 50 -79 50q-51 0 -130 -50q-32 -20 -52 -36h169q92 0 92 36z" />
    <glyph glyph-name="uni067A" unicode="&#x67a;" horiz-adv-x="1198" arabic-form="isolated" 
d="M1330 293h-783q-157 0 -251 67q-117 84 -117 263q0 93 34 190q13 35 60 133l24 -19q-18 -46 -35 -92q-24 -71 -24 -127q0 -118 102 -183q91 -58 230 -58h695v27q0 112 -22.5 182.5t-75.5 120.5l63 163q36 -55 44 -69q56 -112 56 -326v-272zM828 1456l-61 -145l-134 84
l62 145zM866 1206l-61 -146l-134 86l63 146z" />
    <glyph glyph-name="uni067A.fina" unicode="&#x67a;" horiz-adv-x="1198" arabic-form="final" 
d="M1330 293h-783q-157 0 -251 67q-117 84 -117 263q0 93 34 190q13 35 60 133l24 -19q-18 -46 -35 -92q-24 -71 -24 -127q0 -118 102 -183q91 -58 230 -58h695v27q0 112 -22.5 182.5t-75.5 120.5l63 163q36 -55 44 -69q56 -112 56 -326v-272zM828 1456l-61 -145l-134 84
l62 145zM866 1206l-61 -146l-134 86l63 146z" />
    <glyph glyph-name="uni067A.init" unicode="&#x67a;" horiz-adv-x="410" arabic-form="initial" 
d="M455 293h-467v174h407q0 118 -23 180q-15 43 -77 124l64 163q59 -91 74 -142q22 -77 22 -255v-244zM288 1456l-61 -145l-134 84l62 145zM326 1206l-61 -146l-134 86l63 146z" />
    <glyph glyph-name="uni067A.medi" unicode="&#x67a;" horiz-adv-x="410" arabic-form="medial" 
d="M455 293h-467v174h407q0 118 -23 180q-15 43 -77 124l64 163q59 -91 74 -142q22 -77 22 -255v-244zM288 1456l-61 -145l-134 84l62 145zM326 1206l-61 -146l-134 86l63 146z" />
    <glyph glyph-name="uni067B" unicode="&#x67b;" horiz-adv-x="1198" arabic-form="isolated" 
d="M1330 293h-783q-157 0 -251 67q-117 84 -117 263q0 93 34 190q13 35 60 133l24 -19q-18 -46 -35 -92q-24 -71 -24 -127q0 -118 102 -183q91 -58 230 -58h695v27q0 112 -22.5 182.5t-75.5 120.5l63 163q36 -55 44 -69q56 -112 56 -326v-272zM888 56l-61 -145l-134 84
l62 145zM926 -194l-61 -146l-134 86l63 146z" />
    <glyph glyph-name="uni067B.fina" unicode="&#x67b;" horiz-adv-x="1198" arabic-form="final" 
d="M1330 293h-783q-157 0 -251 67q-117 84 -117 263q0 93 34 190q13 35 60 133l24 -19q-18 -46 -35 -92q-24 -71 -24 -127q0 -118 102 -183q91 -58 230 -58h695v27q0 112 -22.5 182.5t-75.5 120.5l63 163q36 -55 44 -69q56 -112 56 -326v-272zM888 56l-61 -145l-134 84
l62 145zM926 -194l-61 -146l-134 86l63 146z" />
    <glyph glyph-name="uni067B.init" unicode="&#x67b;" horiz-adv-x="410" arabic-form="initial" 
d="M455 293h-467v174h407q0 118 -23 180q-15 43 -77 124l64 163q59 -91 74 -142q22 -77 22 -255v-244zM328 56l-61 -145l-134 84l62 145zM366 -194l-61 -146l-134 86l63 146z" />
    <glyph glyph-name="uni067B.medi" unicode="&#x67b;" horiz-adv-x="410" arabic-form="medial" 
d="M455 293h-467v174h407q0 118 -23 180q-15 43 -77 124l64 163q59 -91 74 -142q22 -77 22 -255v-244zM328 56l-61 -145l-134 84l62 145zM366 -194l-61 -146l-134 86l63 146z" />
    <glyph glyph-name="uni067C.init" unicode="&#x67c;" horiz-adv-x="410" 
d="M451 1281l-64 -144l-133 86l62 143zM262 1191l-62 -145l-133 84l61 145zM455 293h-467v174h407q0 118 -23 180q-15 43 -77 124l64 163q59 -91 74 -142q22 -77 22 -255v-244zM316 224q0 -62 -37.5 -111t-92.5 -49q-44 0 -66.5 30t-22.5 84q0 77 33 136.5t81 59.5
q45 0 75 -45t30 -105zM267 197q0 28 -32 62t-54 34q-21 0 -36 -22.5t-15 -46.5q0 -35 27 -49q22 -11 62 -11q20 0 34 7t14 26z" />
    <glyph glyph-name="uni067D.init" unicode="&#x67d;" horiz-adv-x="410" 
d="M455 293h-467v174h407q0 118 -23 180q-15 43 -77 124l64 163q59 -91 74 -142q22 -77 22 -255v-244zM402 1456l-61 -145l-134 84l62 145zM374 1187l-61 -146l-133 86l63 146zM215 1363l-62 -143l-135 85l64 144z" />
    <glyph glyph-name="uni067F" unicode="&#x67f;" horiz-adv-x="1198" arabic-form="isolated" 
d="M1330 293h-783q-157 0 -251 67q-117 84 -117 263q0 93 34 190q13 35 60 133l24 -19q-18 -46 -35 -92q-24 -71 -24 -127q0 -118 102 -183q91 -58 230 -58h695v27q0 112 -22.5 182.5t-75.5 120.5l63 163q36 -55 44 -69q56 -112 56 -326v-272zM921 1454l-63 -146l-131 86
l61 146zM961 1204l-64 -144l-133 86l61 143zM772 1114l-62 -145l-133 84l61 145zM670 1217l-131 90l58 144l137 -90z" />
    <glyph glyph-name="uni067F.fina" unicode="&#x67f;" horiz-adv-x="1198" arabic-form="final" 
d="M1330 293h-783q-157 0 -251 67q-117 84 -117 263q0 93 34 190q13 35 60 133l24 -19q-18 -46 -35 -92q-24 -71 -24 -127q0 -118 102 -183q91 -58 230 -58h695v27q0 112 -22.5 182.5t-75.5 120.5l63 163q36 -55 44 -69q56 -112 56 -326v-272zM921 1454l-63 -146l-131 86
l61 146zM961 1204l-64 -144l-133 86l61 143zM772 1114l-62 -145l-133 84l61 145zM670 1217l-131 90l58 144l137 -90z" />
    <glyph glyph-name="uni067F.init" unicode="&#x67f;" horiz-adv-x="410" arabic-form="initial" 
d="M455 293h-467v174h407q0 118 -23 180q-15 43 -77 124l64 163q59 -91 74 -142q22 -77 22 -255v-244zM381 1454l-63 -146l-131 86l61 146zM421 1204l-64 -144l-133 86l61 143zM232 1114l-62 -145l-133 84l61 145zM130 1217l-131 90l58 144l137 -90z" />
    <glyph glyph-name="uni067F.medi" unicode="&#x67f;" horiz-adv-x="410" arabic-form="medial" 
d="M455 293h-467v174h407q0 118 -23 180q-15 43 -77 124l64 163q59 -91 74 -142q22 -77 22 -255v-244zM381 1454l-63 -146l-131 86l61 146zM421 1204l-64 -144l-133 86l61 143zM232 1114l-62 -145l-133 84l61 145zM130 1217l-131 90l58 144l137 -90z" />
    <glyph glyph-name="uni0680" unicode="&#x680;" horiz-adv-x="1198" arabic-form="isolated" 
d="M1330 293h-783q-157 0 -251 67q-117 84 -117 263q0 93 34 190q13 35 60 133l24 -19q-18 -46 -35 -92q-24 -71 -24 -127q0 -118 102 -183q91 -58 230 -58h695v27q0 112 -22.5 182.5t-75.5 120.5l63 163q36 -55 44 -69q56 -112 56 -326v-272zM961 54l-63 -146l-131 86
l61 146zM1001 -196l-64 -144l-133 86l61 143zM812 -286l-62 -145l-133 84l61 145zM710 -183l-131 90l58 144l137 -90z" />
    <glyph glyph-name="uni0680.fina" unicode="&#x680;" horiz-adv-x="1198" arabic-form="final" 
d="M1330 293h-783q-157 0 -251 67q-117 84 -117 263q0 93 34 190q13 35 60 133l24 -19q-18 -46 -35 -92q-24 -71 -24 -127q0 -118 102 -183q91 -58 230 -58h695v27q0 112 -22.5 182.5t-75.5 120.5l63 163q36 -55 44 -69q56 -112 56 -326v-272zM961 54l-63 -146l-131 86
l61 146zM1001 -196l-64 -144l-133 86l61 143zM812 -286l-62 -145l-133 84l61 145zM710 -183l-131 90l58 144l137 -90z" />
    <glyph glyph-name="uni0680.init" unicode="&#x680;" horiz-adv-x="410" arabic-form="initial" 
d="M455 293h-467v174h407q0 118 -23 180q-15 43 -77 124l64 163q59 -91 74 -142q22 -77 22 -255v-244zM421 54l-63 -146l-131 86l61 146zM461 -196l-64 -144l-133 86l61 143zM272 -286l-62 -145l-133 84l61 145zM170 -183l-131 90l58 144l137 -90z" />
    <glyph glyph-name="uni0680.medi" unicode="&#x680;" horiz-adv-x="410" arabic-form="medial" 
d="M455 293h-467v174h407q0 118 -23 180q-15 43 -77 124l64 163q59 -91 74 -142q22 -77 22 -255v-244zM421 54l-63 -146l-131 86l61 146zM461 -196l-64 -144l-133 86l61 143zM272 -286l-62 -145l-133 84l61 145zM170 -183l-131 90l58 144l137 -90z" />
    <glyph glyph-name="uni0681.init" unicode="&#x681;" horiz-adv-x="890" 
d="M987 293h-947v174h669q-84 79 -141 123q-72 55 -131 80q-66 28 -134 28q-42 0 -85 -7q24 74 63 119q55 65 141 65q83 0 197 -100q57 -50 185 -190q99 -109 134 -118h49v-174zM600 1238q0 -25 -25 -45q-18 -13 -52 -28l-152 -64q0 46 82 81q-26 16 -39 31q-17 19 -17 40
q0 31 43 87q49 62 86 62q16 0 28 -13.5t12 -35.5q0 -14 -5 -28.5t-14 -32.5q-26 28 -55 28q-18 0 -35.5 -9t-17.5 -21q0 -15 38 -41t65 -26q18 0 26 1.5t32 13.5z" />
    <glyph glyph-name="uni0681.fina" unicode="&#x681;" horiz-adv-x="883" 
d="M980 293h-112q-99 0 -141 45t-42 149q0 39 8 97q3 22 9 58q-140 -52 -211 -89q-132 -68 -204 -154q-91 -108 -91 -246q0 -215 184 -323q160 -94 427 -94h151l5 -11l-185 -159h-48q-177 0 -294 40q-141 48 -213 154q-82 121 -82 320q0 171 70 299q54 100 158 183
q31 25 169 115q-33 5 -69.5 8.5t-65.5 3.5q-83 0 -135 -9q-17 -3 -107 -27q28 98 58 136q68 84 213 84q80 0 172.5 -18.5t155.5 -18.5q42 0 82 4t83 11l-33 -170q-33 -5 -76 -14q-27 -6 -75 -17l-1 -56q0 -82 41 -110q25 -17 87 -17h112v-174zM700 1238q0 -25 -25 -45
q-18 -13 -52 -28l-152 -64q0 46 82 81q-26 16 -39 31q-17 19 -17 40q0 31 43 87q49 62 86 62q16 0 28 -13.5t12 -35.5q0 -14 -5 -28.5t-14 -32.5q-26 28 -55 28q-18 0 -35.5 -9t-17.5 -21q0 -15 38 -41t65 -26q18 0 26 1.5t32 13.5z" />
    <glyph glyph-name="uni0682.init" unicode="&#x682;" horiz-adv-x="890" 
d="M987 293h-947v174h669q-84 79 -141 123q-72 55 -131 80q-66 28 -134 28q-42 0 -85 -7q24 74 63 119q55 65 141 65q83 0 197 -100q57 -50 185 -190q99 -109 134 -118h49v-174zM528 1456l-61 -145l-134 84l62 145zM566 1206l-61 -146l-134 86l63 146z" />
    <glyph glyph-name="uni0682.fina" unicode="&#x682;" horiz-adv-x="883" 
d="M980 293h-112q-99 0 -141 45t-42 149q0 39 8 97q3 22 9 58q-140 -52 -211 -89q-132 -68 -204 -154q-91 -108 -91 -246q0 -215 184 -323q160 -94 427 -94h151l5 -11l-185 -159h-48q-177 0 -294 40q-141 48 -213 154q-82 121 -82 320q0 171 70 299q54 100 158 183
q31 25 169 115q-33 5 -69.5 8.5t-65.5 3.5q-83 0 -135 -9q-17 -3 -107 -27q28 98 58 136q68 84 213 84q80 0 172.5 -18.5t155.5 -18.5q42 0 82 4t83 11l-33 -170q-33 -5 -76 -14q-27 -6 -75 -17l-1 -56q0 -82 41 -110q25 -17 87 -17h112v-174zM628 1456l-61 -145l-134 84
l62 145zM666 1206l-61 -146l-134 86l63 146z" />
    <glyph glyph-name="uni0683" unicode="&#x683;" horiz-adv-x="945" arabic-form="isolated" 
d="M501 696q-17 0 -48 3t-47 3q-52 0 -118 -12q-42 -8 -116 -26q33 113 61 147q62 74 207 74q54 0 221 -28q78 -13 135 -13q24 0 69.5 7t68.5 7l-30 -169q-173 -36 -294 -82q-181 -68 -282 -166q-125 -122 -125 -288q0 -215 184 -323q160 -94 427 -94h151l5 -11l-186 -159
h-47q-177 0 -295 40q-140 48 -212 154q-82 121 -82 320q0 168 65 302q49 102 143 193q29 28 145 121zM822 256l-61 -145l-134 84l62 145zM635 163l-62 -143l-135 85l64 144z" />
    <glyph glyph-name="uni0683.fina" unicode="&#x683;" horiz-adv-x="883" arabic-form="final" 
d="M980 293h-112q-99 0 -141 45t-42 149q0 39 8 97q3 22 9 58q-140 -52 -211 -89q-132 -68 -204 -154q-91 -108 -91 -246q0 -215 184 -323q160 -94 427 -94h151l5 -11l-185 -159h-48q-177 0 -294 40q-141 48 -213 154q-82 121 -82 320q0 171 70 299q54 100 158 183
q31 25 169 115q-33 5 -69.5 8.5t-65.5 3.5q-83 0 -135 -9q-17 -3 -107 -27q28 98 58 136q68 84 213 84q80 0 172.5 -18.5t155.5 -18.5q42 0 82 4t83 11l-33 -170q-33 -5 -76 -14q-27 -6 -75 -17l-1 -56q0 -82 41 -110q25 -17 87 -17h112v-174zM682 236l-61 -145l-134 84
l62 145zM495 143l-62 -143l-135 85l64 144z" />
    <glyph glyph-name="uni0683.init" unicode="&#x683;" horiz-adv-x="890" arabic-form="initial" 
d="M987 293h-947v174h669q-84 79 -141 123q-72 55 -131 80q-66 28 -134 28q-42 0 -85 -7q24 74 63 119q55 65 141 65q83 0 197 -100q57 -50 185 -190q99 -109 134 -118h49v-174zM702 56l-61 -145l-134 84l62 145zM515 -37l-62 -143l-135 85l64 144z" />
    <glyph glyph-name="uni0683.medi" unicode="&#x683;" horiz-adv-x="890" arabic-form="medial" 
d="M987 293h-947v174h669q-84 79 -141 123q-72 55 -131 80q-66 28 -134 28q-42 0 -85 -7q24 74 63 119q55 65 141 65q83 0 197 -100q57 -50 185 -190q99 -109 134 -118h49v-174zM702 56l-61 -145l-134 84l62 145zM515 -37l-62 -143l-135 85l64 144z" />
    <glyph glyph-name="uni0684" unicode="&#x684;" horiz-adv-x="945" arabic-form="isolated" 
d="M501 696q-17 0 -48 3t-47 3q-52 0 -118 -12q-42 -8 -116 -26q33 113 61 147q62 74 207 74q54 0 221 -28q78 -13 135 -13q24 0 69.5 7t68.5 7l-30 -169q-173 -36 -294 -82q-181 -68 -282 -166q-125 -122 -125 -288q0 -215 184 -323q160 -94 427 -94h151l5 -11l-186 -159
h-47q-177 0 -295 40q-140 48 -212 154q-82 121 -82 320q0 168 65 302q49 102 143 193q29 28 145 121zM708 316l-61 -145l-134 84l62 145zM746 66l-61 -146l-134 86l63 146z" />
    <glyph glyph-name="uni0684.fina" unicode="&#x684;" horiz-adv-x="883" arabic-form="final" 
d="M980 293h-112q-99 0 -141 45t-42 149q0 39 8 97q3 22 9 58q-140 -52 -211 -89q-132 -68 -204 -154q-91 -108 -91 -246q0 -215 184 -323q160 -94 427 -94h151l5 -11l-185 -159h-48q-177 0 -294 40q-141 48 -213 154q-82 121 -82 320q0 171 70 299q54 100 158 183
q31 25 169 115q-33 5 -69.5 8.5t-65.5 3.5q-83 0 -135 -9q-17 -3 -107 -27q28 98 58 136q68 84 213 84q80 0 172.5 -18.5t155.5 -18.5q42 0 82 4t83 11l-33 -170q-33 -5 -76 -14q-27 -6 -75 -17l-1 -56q0 -82 41 -110q25 -17 87 -17h112v-174zM608 296l-61 -145l-134 84
l62 145zM646 46l-61 -146l-134 86l63 146z" />
    <glyph glyph-name="uni0684.init" unicode="&#x684;" horiz-adv-x="890" arabic-form="initial" 
d="M987 293h-947v174h669q-84 79 -141 123q-72 55 -131 80q-66 28 -134 28q-42 0 -85 -7q24 74 63 119q55 65 141 65q83 0 197 -100q57 -50 185 -190q99 -109 134 -118h49v-174zM588 56l-61 -145l-134 84l62 145zM626 -194l-61 -146l-134 86l63 146z" />
    <glyph glyph-name="uni0684.medi" unicode="&#x684;" horiz-adv-x="890" arabic-form="medial" 
d="M987 293h-947v174h669q-84 79 -141 123q-72 55 -131 80q-66 28 -134 28q-42 0 -85 -7q24 74 63 119q55 65 141 65q83 0 197 -100q57 -50 185 -190q99 -109 134 -118h49v-174zM588 56l-61 -145l-134 84l62 145zM626 -194l-61 -146l-134 86l63 146z" />
    <glyph glyph-name="uni0685.init" unicode="&#x685;" horiz-adv-x="890" 
d="M987 293h-947v174h669q-84 79 -141 123q-72 55 -131 80q-66 28 -134 28q-42 0 -85 -7q24 74 63 119q55 65 141 65q83 0 197 -100q57 -50 185 -190q99 -109 134 -118h49v-174zM569 1454l-63 -146l-131 86l61 146zM731 1276l-64 -144l-133 86l62 143zM542 1186l-62 -145
l-133 84l61 145z" />
    <glyph glyph-name="uni0685.fina" unicode="&#x685;" horiz-adv-x="883" 
d="M980 293h-112q-99 0 -141 45t-42 149q0 39 8 97q3 22 9 58q-140 -52 -211 -89q-132 -68 -204 -154q-91 -108 -91 -246q0 -215 184 -323q160 -94 427 -94h151l5 -11l-185 -159h-48q-177 0 -294 40q-141 48 -213 154q-82 121 -82 320q0 171 70 299q54 100 158 183
q31 25 169 115q-33 5 -69.5 8.5t-65.5 3.5q-83 0 -135 -9q-17 -3 -107 -27q28 98 58 136q68 84 213 84q80 0 172.5 -18.5t155.5 -18.5q42 0 82 4t83 11l-33 -170q-33 -5 -76 -14q-27 -6 -75 -17l-1 -56q0 -82 41 -110q25 -17 87 -17h112v-174zM629 1454l-63 -146l-131 86
l61 146zM791 1276l-64 -144l-133 86l62 143zM602 1186l-62 -145l-133 84l61 145z" />
    <glyph glyph-name="uni0687" unicode="&#x687;" horiz-adv-x="945" arabic-form="isolated" 
d="M501 696q-17 0 -48 3t-47 3q-52 0 -118 -12q-42 -8 -116 -26q33 113 61 147q62 74 207 74q54 0 221 -28q78 -13 135 -13q24 0 69.5 7t68.5 7l-30 -169q-173 -36 -294 -82q-181 -68 -282 -166q-125 -122 -125 -288q0 -215 184 -323q160 -94 427 -94h151l5 -11l-186 -159
h-47q-177 0 -295 40q-140 48 -212 154q-82 121 -82 320q0 168 65 302q49 102 143 193q29 28 145 121zM841 394l-63 -146l-131 86l61 146zM881 144l-64 -144l-133 86l61 143zM692 54l-62 -145l-133 84l61 145zM590 157l-131 90l58 144l137 -90z" />
    <glyph glyph-name="uni0687.fina" unicode="&#x687;" horiz-adv-x="883" arabic-form="final" 
d="M980 293h-112q-99 0 -141 45t-42 149q0 39 8 97q3 22 9 58q-140 -52 -211 -89q-132 -68 -204 -154q-91 -108 -91 -246q0 -215 184 -323q160 -94 427 -94h151l5 -11l-185 -159h-48q-177 0 -294 40q-141 48 -213 154q-82 121 -82 320q0 171 70 299q54 100 158 183
q31 25 169 115q-33 5 -69.5 8.5t-65.5 3.5q-83 0 -135 -9q-17 -3 -107 -27q28 98 58 136q68 84 213 84q80 0 172.5 -18.5t155.5 -18.5q42 0 82 4t83 11l-33 -170q-33 -5 -76 -14q-27 -6 -75 -17l-1 -56q0 -82 41 -110q25 -17 87 -17h112v-174zM691 344l-63 -146l-131 86
l61 146zM731 94l-64 -144l-133 86l61 143zM542 4l-62 -145l-133 84l61 145zM440 107l-131 90l58 144l137 -90z" />
    <glyph glyph-name="uni0687.init" unicode="&#x687;" horiz-adv-x="890" arabic-form="initial" 
d="M987 293h-947v174h669q-84 79 -141 123q-72 55 -131 80q-66 28 -134 28q-42 0 -85 -7q24 74 63 119q55 65 141 65q83 0 197 -100q57 -50 185 -190q99 -109 134 -118h49v-174zM701 54l-63 -146l-131 86l61 146zM741 -196l-64 -144l-133 86l61 143zM552 -286l-62 -145
l-133 84l61 145zM450 -183l-131 90l58 144l137 -90z" />
    <glyph glyph-name="uni0687.medi" unicode="&#x687;" horiz-adv-x="890" arabic-form="medial" 
d="M987 293h-947v174h669q-84 79 -141 123q-72 55 -131 80q-66 28 -134 28q-42 0 -85 -7q24 74 63 119q55 65 141 65q83 0 197 -100q57 -50 185 -190q99 -109 134 -118h49v-174zM701 54l-63 -146l-131 86l61 146zM741 -196l-64 -144l-133 86l61 143zM552 -286l-62 -145
l-133 84l61 145zM450 -183l-131 90l58 144l137 -90z" />
    <glyph glyph-name="uni0688" unicode="&#x688;" horiz-adv-x="561" arabic-form="isolated" 
d="M629 293h-368q-46 0 -83.5 33t-37.5 78q0 38 3.5 69t12.5 68h19q9 -41 32 -59q20 -15 54 -15h318q0 179 -41 288q-51 136 -170 181l12 194q142 -85 201 -271q48 -150 48 -392v-174zM601 1191h-492v83h59q52 0 110 44q16 46 16 91q0 49 -8 113q-7 49 -18 105q-5 30 -16 77
l-24 14q7 65 22 107q7 -24 33 -37q17 -8 43 -11q-2 -31 -13 -95q-4 1 -15 4l-5 2q31 -127 31 -213q0 -32 -5 -75q-2 -13 -7 -46q66 47 88 59q59 34 98 34q103 0 103 -136v-120zM539 1310q0 50 -79 50q-51 0 -130 -50q-32 -20 -52 -36h169q92 0 92 36z" />
    <glyph glyph-name="uni0688.fina" unicode="&#x688;" horiz-adv-x="561" arabic-form="final" 
d="M629 293h-368q-46 0 -83.5 33t-37.5 78q0 38 3.5 69t12.5 68h19q9 -41 32 -59q20 -15 54 -15h318q0 179 -41 288q-51 136 -170 181l12 194q142 -85 201 -271q48 -150 48 -392v-174zM601 1191h-492v83h59q52 0 110 44q16 46 16 91q0 49 -8 113q-7 49 -18 105q-5 30 -16 77
l-24 14q7 65 22 107q7 -24 33 -37q17 -8 43 -11q-2 -31 -13 -95q-4 1 -15 4l-5 2q31 -127 31 -213q0 -32 -5 -75q-2 -13 -7 -46q66 47 88 59q59 34 98 34q103 0 103 -136v-120zM539 1310q0 50 -79 50q-51 0 -130 -50q-32 -20 -52 -36h169q92 0 92 36z" />
    <glyph glyph-name="uni068C" unicode="&#x68c;" horiz-adv-x="569" arabic-form="isolated" 
d="M629 293h-368q-46 0 -83.5 33t-37.5 78q0 38 3.5 69t12.5 68h19q9 -41 32 -59q20 -15 54 -15h318q0 179 -41 288q-51 136 -170 181l12 194q142 -85 201 -271q48 -150 48 -392v-174zM522 1456l-61 -145l-134 84l62 145zM335 1363l-62 -143l-135 85l64 144z" />
    <glyph glyph-name="uni068C.fina" unicode="&#x68c;" horiz-adv-x="569" arabic-form="final" 
d="M629 293h-368q-46 0 -83.5 33t-37.5 78q0 38 3.5 69t12.5 68h19q9 -41 32 -59q20 -15 54 -15h318q0 179 -41 288q-51 136 -170 181l12 194q142 -85 201 -271q48 -150 48 -392v-174zM522 1456l-61 -145l-134 84l62 145zM335 1363l-62 -143l-135 85l64 144z" />
    <glyph glyph-name="uni068D" unicode="&#x68d;" horiz-adv-x="567" arabic-form="isolated" 
d="M629 293h-368q-46 0 -83.5 33t-37.5 78q0 38 3.5 69t12.5 68h19q9 -41 32 -59q20 -15 54 -15h318q0 179 -41 288q-51 136 -170 181l12 194q142 -85 201 -271q48 -150 48 -392v-174zM582 56l-61 -145l-134 84l62 145zM395 -37l-62 -143l-135 85l64 144z" />
    <glyph glyph-name="uni068D.fina" unicode="&#x68d;" horiz-adv-x="567" arabic-form="final" 
d="M629 293h-368q-46 0 -83.5 33t-37.5 78q0 38 3.5 69t12.5 68h19q9 -41 32 -59q20 -15 54 -15h318q0 179 -41 288q-51 136 -170 181l12 194q142 -85 201 -271q48 -150 48 -392v-174zM582 56l-61 -145l-134 84l62 145zM395 -37l-62 -143l-135 85l64 144z" />
    <glyph glyph-name="uni068E" unicode="&#x68e;" horiz-adv-x="567" arabic-form="isolated" 
d="M629 293h-368q-46 0 -83.5 33t-37.5 78q0 38 3.5 69t12.5 68h19q9 -41 32 -59q20 -15 54 -15h318q0 179 -41 288q-51 136 -170 181l12 194q142 -85 201 -271q48 -150 48 -392v-174zM389 1654l-63 -146l-131 86l61 146zM551 1476l-64 -144l-133 86l62 143zM362 1386
l-62 -145l-133 84l61 145z" />
    <glyph glyph-name="uni068E.fina" unicode="&#x68e;" horiz-adv-x="567" arabic-form="final" 
d="M629 293h-368q-46 0 -83.5 33t-37.5 78q0 38 3.5 69t12.5 68h19q9 -41 32 -59q20 -15 54 -15h318q0 179 -41 288q-51 136 -170 181l12 194q142 -85 201 -271q48 -150 48 -392v-174zM389 1654l-63 -146l-131 86l61 146zM551 1476l-64 -144l-133 86l62 143zM362 1386
l-62 -145l-133 84l61 145z" />
    <glyph glyph-name="uni0691" unicode="&#x691;" horiz-adv-x="821" arabic-form="isolated" 
d="M911 293q0 -110 -77 -228q-67 -104 -167 -179q-96 -72 -157 -72q-57 0 -122 20q-50 15 -120 47q-59 27 -117 54l14 40q54 -13 112.5 -26.5t106.5 -13.5q105 0 219 82q103 75 176 189.5t73 206.5q0 79 -38 166q-30 70 -85 144l47 157q67 -76 99 -152q36 -86 36 -192v-243z
M901 1062h-492v83h59q52 0 110 44q16 46 16 91q0 49 -8 113q-7 49 -18 105q-5 30 -16 77l-24 14q7 65 22 107q7 -24 33 -37q17 -8 43 -11q-2 -31 -13 -95q-4 1 -15 4l-5 2q31 -127 31 -213q0 -32 -5 -75q-2 -13 -7 -46q66 47 88 59q59 34 98 34q103 0 103 -136v-120z
M839 1181q0 50 -79 50q-51 0 -130 -50q-32 -20 -52 -36h169q92 0 92 36z" />
    <glyph glyph-name="uni0691.fina" unicode="&#x691;" horiz-adv-x="821" arabic-form="final" 
d="M911 293q0 -110 -77 -228q-67 -104 -167 -179q-96 -72 -157 -72q-57 0 -122 20q-50 15 -120 47q-59 27 -117 54l14 40q54 -13 112.5 -26.5t106.5 -13.5q105 0 219 82q103 75 176 189.5t73 206.5q0 79 -38 166q-30 70 -85 144l47 157q67 -76 99 -152q36 -86 36 -192v-243z
M901 1062h-492v83h59q52 0 110 44q16 46 16 91q0 49 -8 113q-7 49 -18 105q-5 30 -16 77l-24 14q7 65 22 107q7 -24 33 -37q17 -8 43 -11q-2 -31 -13 -95q-4 1 -15 4l-5 2q31 -127 31 -213q0 -32 -5 -75q-2 -13 -7 -46q66 47 88 59q59 34 98 34q103 0 103 -136v-120z
M839 1181q0 50 -79 50q-51 0 -130 -50q-32 -20 -52 -36h169q92 0 92 36z" />
    <glyph glyph-name="uni069A.init" unicode="&#x69a;" horiz-adv-x="892" 
d="M989 293h-63q-52 0 -90 17.5t-69 49.5q-39 -37 -67 -49q-42 -18 -115 -18h-53q-43 0 -86 20q-28 13 -69 43q-39 -36 -72 -49.5t-106 -13.5h-159v174h159q66 0 95 14q47 23 47 92q0 29 -2.5 58t-8.5 65l34 60q22 -92 37 -134q26 -73 58 -110q37 -45 90 -45h55q61 0 91 23
q33 26 33 83q0 31 -3.5 60t-9.5 63l35 60l17 -94q22 -111 54 -154q28 -38 76 -38q22 0 35.5 16.5t13.5 42.5q0 56 -34 118q-6 10 -40 65l53 109q34 -62 46 -107q18 -68 18 -181v-240zM771 1130l-64 -145l-132 84l60 146zM971 50l-64 -145l-132 84l60 146z" />
    <glyph glyph-name="uni069B.init" unicode="&#x69b;" horiz-adv-x="944" 
d="M989 293h-63q-52 0 -90 17.5t-69 49.5q-39 -37 -67 -49q-42 -18 -115 -18h-53q-43 0 -86 20q-28 13 -69 43q-39 -36 -72 -49.5t-106 -13.5h-159v174h159q66 0 95 14q47 23 47 92q0 29 -2.5 58t-8.5 65l34 60q22 -92 37 -134q26 -73 58 -110q37 -45 90 -45h55q61 0 91 23
q33 26 33 83q0 31 -3.5 60t-9.5 63l35 60l17 -94q22 -111 54 -154q28 -38 76 -38q22 0 35.5 16.5t13.5 42.5q0 56 -34 118q-6 10 -40 65l53 109q34 -62 46 -107q18 -68 18 -181v-240zM1042 56l-61 -145l-134 84l62 145zM1014 -213l-61 -146l-133 86l63 146zM855 -37
l-62 -143l-135 85l64 144z" />
    <glyph glyph-name="uni069C.init" unicode="&#x69c;" horiz-adv-x="944" 
d="M989 293h-63q-52 0 -90 17.5t-69 49.5q-39 -37 -67 -49q-42 -18 -115 -18h-53q-43 0 -86 20q-28 13 -69 43q-39 -36 -72 -49.5t-106 -13.5h-159v174h159q66 0 95 14q47 23 47 92q0 29 -2.5 58t-8.5 65l34 60q22 -92 37 -134q26 -73 58 -110q37 -45 90 -45h55q61 0 91 23
q33 26 33 83q0 31 -3.5 60t-9.5 63l35 60l17 -94q22 -111 54 -154q28 -38 76 -38q22 0 35.5 16.5t13.5 42.5q0 56 -34 118q-6 10 -40 65l53 109q34 -62 46 -107q18 -68 18 -181v-240zM1042 56l-61 -145l-134 84l62 145zM1014 -213l-61 -146l-133 86l63 146zM855 -37
l-62 -143l-135 85l64 144zM689 1394l-63 -146l-131 86l61 146zM851 1216l-64 -144l-133 86l62 143zM662 1126l-62 -145l-133 84l61 145z" />
    <glyph glyph-name="uni069D.init" unicode="&#x69d;" horiz-adv-x="1421" 
d="M1577 293h-986q-44 0 -84 18q-30 14 -71 45q-35 -36 -69.5 -49.5t-109.5 -13.5h-158v174h158q66 0 95 14q48 23 48 92q0 29 -3 58.5t-9 64.5l34 60q28 -136 78 -210q54 -79 126 -79q69 0 161 38q100 41 173 104q117 102 143 122q66 52 121 74q60 25 132 25q112 0 169 -79
q52 -73 52 -205v-253zM1443 544q0 49 -50 76.5t-116 27.5q-82 0 -199 -67l-184 -114h378q89 0 130 19t41 58zM1442 56l-61 -145l-134 84l62 145zM1255 -37l-62 -143l-135 85l64 144z" />
    <glyph glyph-name="uni069E.init" unicode="&#x69e;" horiz-adv-x="1421" 
d="M1577 293h-986q-44 0 -84 18q-30 14 -71 45q-35 -36 -69.5 -49.5t-109.5 -13.5h-158v174h158q66 0 95 14q48 23 48 92q0 29 -3 58.5t-9 64.5l34 60q28 -136 78 -210q54 -79 126 -79q69 0 161 38q100 41 173 104q117 102 143 122q66 52 121 74q60 25 132 25q112 0 169 -79
q52 -73 52 -205v-253zM1443 544q0 49 -50 76.5t-116 27.5q-82 0 -199 -67l-184 -114h378q89 0 130 19t41 58zM1289 1394l-63 -146l-131 86l61 146zM1451 1216l-64 -144l-133 86l62 143zM1262 1126l-62 -145l-133 84l61 145z" />
    <glyph glyph-name="uni06A0.init" unicode="&#x6a0;" horiz-adv-x="884" 
d="M887 605l-57 -182q-124 -55 -286.5 -92.5t-299.5 -37.5h-204v174h196q-23 47 -38 106.5t-15 115.5q0 118 81 198t208 80q101 0 166 -60q28 -25 94 -123l-15 -17q-57 19 -102 28.5t-93 9.5q-113 0 -177.5 -30.5t-64.5 -80.5q0 -49 40.5 -109.5t104.5 -107.5
q134 25 220.5 48.5t241.5 79.5zM409 1494l-63 -146l-131 86l61 146zM571 1316l-64 -144l-133 86l62 143zM382 1226l-62 -145l-133 84l61 145z" />
    <glyph glyph-name="uni06A0.medi" unicode="&#x6a0;" horiz-adv-x="662" 
d="M734 293h-120q-53 0 -108 31q-66 37 -96 103q-54 -60 -125 -93q-86 -41 -196 -41h-74v174h74q69 0 128 18q67 21 132 67l-34 54q-27 38 -60 38q-14 0 -25.5 -6.5t-25.5 -28.5h-17v59q0 110 47 151q44 37 151 37q93 0 151 -30q76 -39 76 -120q0 -43 -30 -89
q-22 -34 -81 -94q13 -24 50 -40t63 -16h120v-174zM389 1394l-63 -146l-131 86l61 146zM551 1216l-64 -144l-133 86l62 143zM362 1126l-62 -145l-133 84l61 145z" />
    <glyph glyph-name="uni06A0.fina" unicode="&#x6a0;" horiz-adv-x="756" 
d="M899 -274l-166 -160q-153 0 -241 17q-159 31 -249 120q-116 115 -116 322q0 137 44 254q34 93 103 187q33 45 121 145q-9 34 -24 50t-32 16q-21 0 -42 -35h-14q17 105 36 145q46 96 151 96q71 0 121 -42q57 -47 57 -122q0 -49 -31 -83q-29 -28 -47 -46q46 -67 88 -95
t106 -28h75v-174h-75q-126 0 -195 46t-111 152q-60 -47 -109 -97q-65 -68 -102 -133q-46 -81 -46 -156q0 -169 139 -262q106 -71 292 -96q99 -13 264 -13zM449 1394l-63 -146l-131 86l61 146zM611 1216l-64 -144l-133 86l62 143zM422 1126l-62 -145l-133 84l61 145z" />
    <glyph glyph-name="uni06A2.init" unicode="&#x6a2;" horiz-adv-x="450" 
d="M499 293h-507v174h437q0 89 -17 167q-43 -17 -66 -24q-38 -12 -66 -12q-60 0 -98 37q-43 42 -43 121q0 139 41 243q46 116 119 116q100 0 155 -191q45 -158 45 -371v-260zM365 813q-11 36 -37 73q-34 50 -65 50q-23 0 -37 -22.5t-14 -53.5q0 -80 72 -80q19 0 40 9t41 24z
M371 50l-64 -145l-132 84l60 146z" />
    <glyph glyph-name="uni06A2.medi" unicode="&#x6a2;" horiz-adv-x="442" 
d="M490 293h-499v174h281q51 0 86.5 4.5t77.5 19.5q-141 25 -183 47q-94 50 -94 170q0 105 45 198q51 105 124 105q84 0 127 -130q35 -103 35 -243v-345zM416 642q-19 80 -36 119q-34 75 -81 75q-23 0 -39.5 -22t-16.5 -52q0 -76 65 -102q23 -9 108 -18zM371 50l-64 -145
l-132 84l60 146z" />
    <glyph glyph-name="uni06A3.init" unicode="&#x6a3;" horiz-adv-x="450" 
d="M499 293h-507v174h437q0 89 -17 167q-43 -17 -66 -24q-38 -12 -66 -12q-60 0 -98 37q-43 42 -43 121q0 139 41 243q46 116 119 116q100 0 155 -191q45 -158 45 -371v-260zM365 813q-11 36 -37 73q-34 50 -65 50q-23 0 -37 -22.5t-14 -53.5q0 -80 72 -80q19 0 40 9t41 24z
M371 50l-64 -145l-132 84l60 146zM311 1330l-64 -145l-132 84l60 146z" />
    <glyph glyph-name="uni06A3.medi" unicode="&#x6a3;" horiz-adv-x="442" 
d="M490 293h-499v174h281q51 0 86.5 4.5t77.5 19.5q-141 25 -183 47q-94 50 -94 170q0 105 45 198q51 105 124 105q84 0 127 -130q35 -103 35 -243v-345zM416 642q-19 80 -36 119q-34 75 -81 75q-23 0 -39.5 -22t-16.5 -52q0 -76 65 -102q23 -9 108 -18zM371 50l-64 -145
l-132 84l60 146zM311 1330l-64 -145l-132 84l60 146z" />
    <glyph glyph-name="uni06A4" unicode="&#x6a4;" horiz-adv-x="1406" arabic-form="isolated" 
d="M1470 293h-752q-173 0 -279 26q-126 31 -191 103q-71 78 -71 212q0 89 42 208q30 81 45 121l33 -23q-35 -87 -46.5 -132.5t-11.5 -82.5q0 -132 118 -195t375 -63h605q-96 32 -141 74q-52 48 -52 119q0 93 51 199q57 119 127 119q81 0 117 -117q31 -98 31 -279v-289z
M1384 596q0 87 -15 134q-19 56 -58 56q-27 0 -41 -20.5t-14 -57.5q0 -49 34 -74q25 -18 94 -38zM1389 1494l-63 -146l-131 86l61 146zM1551 1316l-64 -144l-133 86l62 143zM1362 1226l-62 -145l-133 84l61 145z" />
    <glyph glyph-name="uni06A4.fina" unicode="&#x6a4;" horiz-adv-x="1406" arabic-form="final" 
d="M1470 293h-752q-173 0 -279 26q-126 31 -191 103q-71 78 -71 212q0 89 42 208q30 81 45 121l33 -23q-35 -87 -46.5 -132.5t-11.5 -82.5q0 -132 118 -195t375 -63h605q-96 32 -141 74q-52 48 -52 119q0 93 51 199q57 119 127 119q81 0 117 -117q31 -98 31 -279v-289z
M1384 596q0 87 -15 134q-19 56 -58 56q-27 0 -41 -20.5t-14 -57.5q0 -49 34 -74q25 -18 94 -38zM1389 1494l-63 -146l-131 86l61 146zM1551 1316l-64 -144l-133 86l62 143zM1362 1226l-62 -145l-133 84l61 145z" />
    <glyph glyph-name="uni06A4.init" unicode="&#x6a4;" horiz-adv-x="450" arabic-form="initial" 
d="M499 293h-507v174h437q0 89 -17 167q-43 -17 -66 -24q-38 -12 -66 -12q-60 0 -98 37q-43 42 -43 121q0 139 41 243q46 116 119 116q100 0 155 -191q45 -158 45 -371v-260zM365 813q-11 36 -37 73q-34 50 -65 50q-23 0 -37 -22.5t-14 -53.5q0 -80 72 -80q19 0 40 9t41 24z
M249 1594l-63 -146l-131 86l61 146zM411 1416l-64 -144l-133 86l62 143zM222 1326l-62 -145l-133 84l61 145z" />
    <glyph glyph-name="uni06A4.medi" unicode="&#x6a4;" horiz-adv-x="442" arabic-form="medial" 
d="M490 293h-499v174h281q51 0 86.5 4.5t77.5 19.5q-141 25 -183 47q-94 50 -94 170q0 105 45 198q51 105 124 105q84 0 127 -130q35 -103 35 -243v-345zM416 642q-19 80 -36 119q-34 75 -81 75q-23 0 -39.5 -22t-16.5 -52q0 -76 65 -102q23 -9 108 -18zM269 1594l-63 -146
l-131 86l61 146zM431 1416l-64 -144l-133 86l62 143zM242 1326l-62 -145l-133 84l61 145z" />
    <glyph glyph-name="uni06A5.init" unicode="&#x6a5;" horiz-adv-x="450" 
d="M499 293h-507v174h437q0 89 -17 167q-43 -17 -66 -24q-38 -12 -66 -12q-60 0 -98 37q-43 42 -43 121q0 139 41 243q46 116 119 116q100 0 155 -191q45 -158 45 -371v-260zM365 813q-11 36 -37 73q-34 50 -65 50q-23 0 -37 -22.5t-14 -53.5q0 -80 72 -80q19 0 40 9t41 24z
M482 56l-61 -145l-134 84l62 145zM454 -213l-61 -146l-133 86l63 146zM295 -37l-62 -143l-135 85l64 144z" />
    <glyph glyph-name="uni06A5.medi" unicode="&#x6a5;" horiz-adv-x="442" 
d="M490 293h-499v174h281q51 0 86.5 4.5t77.5 19.5q-141 25 -183 47q-94 50 -94 170q0 105 45 198q51 105 124 105q84 0 127 -130q35 -103 35 -243v-345zM416 642q-19 80 -36 119q-34 75 -81 75q-23 0 -39.5 -22t-16.5 -52q0 -76 65 -102q23 -9 108 -18zM482 56l-61 -145
l-134 84l62 145zM454 -213l-61 -146l-133 86l63 146zM295 -37l-62 -143l-135 85l64 144z" />
    <glyph glyph-name="uni06A6" unicode="&#x6a6;" horiz-adv-x="1415" arabic-form="isolated" 
d="M1470 293h-752q-173 0 -279 26q-126 31 -191 103q-71 78 -71 212q0 89 42 208q30 81 45 121l33 -23q-35 -87 -46.5 -132.5t-11.5 -82.5q0 -132 118 -195t375 -63h605q-96 32 -141 74q-52 48 -52 119q0 93 51 199q57 119 127 119q81 0 117 -117q31 -98 31 -279v-289z
M1384 596q0 87 -15 134q-19 56 -58 56q-27 0 -41 -20.5t-14 -57.5q0 -49 34 -74q25 -18 94 -38zM1521 1554l-63 -146l-131 86l61 146zM1561 1304l-64 -144l-133 86l61 143zM1372 1214l-62 -145l-133 84l61 145zM1270 1317l-131 90l58 144l137 -90z" />
    <glyph glyph-name="uni06A6.fina" unicode="&#x6a6;" horiz-adv-x="1415" arabic-form="final" 
d="M1470 293h-752q-173 0 -279 26q-126 31 -191 103q-71 78 -71 212q0 89 42 208q30 81 45 121l33 -23q-35 -87 -46.5 -132.5t-11.5 -82.5q0 -132 118 -195t375 -63h605q-96 32 -141 74q-52 48 -52 119q0 93 51 199q57 119 127 119q81 0 117 -117q31 -98 31 -279v-289z
M1384 596q0 87 -15 134q-19 56 -58 56q-27 0 -41 -20.5t-14 -57.5q0 -49 34 -74q25 -18 94 -38zM1521 1554l-63 -146l-131 86l61 146zM1561 1304l-64 -144l-133 86l61 143zM1372 1214l-62 -145l-133 84l61 145zM1270 1317l-131 90l58 144l137 -90z" />
    <glyph glyph-name="uni06A6.init" unicode="&#x6a6;" horiz-adv-x="450" arabic-form="initial" 
d="M499 293h-507v174h437q0 89 -17 167q-43 -17 -66 -24q-38 -12 -66 -12q-60 0 -98 37q-43 42 -43 121q0 139 41 243q46 116 119 116q100 0 155 -191q45 -158 45 -371v-260zM365 813q-11 36 -37 73q-34 50 -65 50q-23 0 -37 -22.5t-14 -53.5q0 -80 72 -80q19 0 40 9t41 24z
M381 1634l-63 -146l-131 86l61 146zM421 1384l-64 -144l-133 86l61 143zM232 1294l-62 -145l-133 84l61 145zM130 1397l-131 90l58 144l137 -90z" />
    <glyph glyph-name="uni06A6.medi" unicode="&#x6a6;" horiz-adv-x="442" arabic-form="medial" 
d="M490 293h-499v174h281q51 0 86.5 4.5t77.5 19.5q-141 25 -183 47q-94 50 -94 170q0 105 45 198q51 105 124 105q84 0 127 -130q35 -103 35 -243v-345zM416 642q-19 80 -36 119q-34 75 -81 75q-23 0 -39.5 -22t-16.5 -52q0 -76 65 -102q23 -9 108 -18zM381 1634l-63 -146
l-131 86l61 146zM421 1384l-64 -144l-133 86l61 143zM232 1294l-62 -145l-133 84l61 145zM130 1397l-131 90l58 144l137 -90z" />
    <glyph glyph-name="uni06AA.init" unicode="&#x6aa;" horiz-adv-x="1522" 
d="M1632 753q0 -236 -155 -309q-97 -46 -391 -94q-349 -57 -681 -57h-295v174h310q438 0 747 47q94 14 272 58q110 27 110 86q0 37 -58 37q-110 0 -479 -32.5t-684 -32.5q-101 0 -101 66q0 115 61 196q73 96 179 165q72 47 232 122v-133q-185 -68 -308 -154q-94 -65 -94 -89
q0 -33 81 -33q275 0 619 31t553 31q82 0 82 -79z" />
    <glyph glyph-name="uni06AA.medi" unicode="&#x6aa;" horiz-adv-x="1522" 
d="M1689 293h-62q-123 0 -136 158q-5 -3 -14 -7q-103 -48 -372 -94q-339 -57 -702 -57h-293v174h310q438 0 747 47q94 14 272 58q110 27 110 86q0 37 -58 37q-110 0 -479 -32.5t-684 -32.5q-101 0 -101 66q0 115 61 196q73 96 179 165q72 47 232 122v-133
q-185 -68 -308 -154q-94 -65 -94 -89q0 -33 81 -33q275 0 619 31t553 31q82 0 82 -79q0 -158 -75 -247q20 -39 70 -39h62v-174z" />
    <glyph glyph-name="uni06AA.fina" unicode="&#x6aa;" horiz-adv-x="1940" 
d="M2153 293h-61q-124 0 -137 158q-5 -3 -14 -7q-92 -44 -436 -94q-390 -57 -726 -57q-154 0 -344 23l-181 196l5 12q233 -57 535 -57q682 0 1109 105q110 27 110 86q0 37 -58 37q-110 0 -479 -32.5t-684 -32.5q-101 0 -101 66q0 115 62 196q72 96 178 165q72 47 232 122
v-133q-185 -68 -308 -154q-94 -65 -94 -89q0 -33 81 -33q275 0 619 31t553 31q82 0 82 -79q0 -158 -75 -247q20 -39 71 -39h61v-174z" />
    <glyph glyph-name="uni06AB.init" unicode="&#x6ab;" horiz-adv-x="662" 
d="M734 293h-719v174h624q-57 106 -131 184.5t-199 169.5l-27 -31l-97 90q-51 52 -51 81q0 172 69 270q64 90 221 162l231 110v-173l-172 -70q-102 -41 -165 -75q-81 -43 -81 -66t53 -71l66 -60q125 -115 218 -241q100 -135 160 -280v-174zM656 1203q0 -62 -37.5 -111
t-92.5 -49q-44 0 -66.5 30t-22.5 84q0 77 33 136.5t81 59.5q45 0 75 -45t30 -105zM607 1176q0 28 -32 62t-54 34q-21 0 -36 -22.5t-15 -46.5q0 -35 27 -49q22 -11 62 -11q20 0 34 7t14 26z" />
    <glyph glyph-name="uni06AB.medi" unicode="&#x6ab;" horiz-adv-x="865" 
d="M689 613q39 -57 76 -95q50 -51 87 -51h107v-174h-101q-67 0 -141 84q-36 41 -102 146q-40 63 -49 76q-21 30 -63 79q0 -178 -91 -278q-97 -107 -290 -107h-85v174h89q130 0 219 41q106 49 106 138q0 67 -40 113q-21 24 -80 62l-27 -31l-97 90q-51 52 -51 81q0 172 69 270
q64 90 221 162l231 110v-173l-171 -70q-103 -41 -166 -75q-80 -43 -80 -66t52 -71q33 -30 67 -60q72 -67 130 -132q50 -56 93 -116q28 -37 87 -127zM656 1203q0 -62 -37.5 -111t-92.5 -49q-44 0 -66.5 30t-22.5 84q0 77 33 136.5t81 59.5q45 0 75 -45t30 -105zM607 1176
q0 28 -32 62t-54 34q-21 0 -36 -22.5t-15 -46.5q0 -35 27 -49q22 -11 62 -11q20 0 34 7t14 26z" />
    <glyph glyph-name="uni06AB.fina" unicode="&#x6ab;" horiz-adv-x="1566" 
d="M556 293q-196 0 -279 57q-89 61 -89 208q0 88 39 200q11 31 45 115l28 -20q-28 -78 -36.5 -120t-8.5 -80q0 -109 94 -153q71 -33 207 -33h349q130 0 219 41q106 49 106 138q0 67 -40 113q-21 24 -80 62l-27 -31l-97 90q-51 52 -51 81q0 172 69 270q64 90 221 162l231 110
v-173l-171 -70q-141 -58 -198 -93q-48 -30 -48 -48q0 -23 52 -71q33 -30 67 -60q72 -67 130 -132q50 -56 93 -116q27 -37 87 -127q39 -57 76 -95q50 -51 87 -51h107v-174h-101q-67 0 -141 84q-36 41 -102 146q-40 63 -49 76q-21 30 -63 79q0 -178 -91 -278
q-97 -107 -290 -107h-345zM1506 1203q0 -62 -37.5 -111t-92.5 -49q-44 0 -66.5 30t-22.5 84q0 77 33 136.5t81 59.5q45 0 75 -45t30 -105zM1457 1176q0 28 -32 62t-54 34q-21 0 -36 -22.5t-15 -46.5q0 -35 27 -49q22 -11 62 -11q20 0 34 7t14 26z" />
    <glyph glyph-name="uni06AC.init" unicode="&#x6ac;" horiz-adv-x="662" 
d="M734 293h-719v174h624q-57 106 -131 184.5t-199 169.5l-27 -31l-97 90q-51 52 -51 81q0 172 69 270q64 90 221 162l231 110v-173l-172 -70q-102 -41 -165 -75q-81 -43 -81 -66t53 -71l66 -60q125 -115 218 -241q100 -135 160 -280v-174zM451 1642l-64 -145l-132 84
l60 146z" />
    <glyph glyph-name="uni06AD" unicode="&#x6ad;" horiz-adv-x="1010" arabic-form="isolated" 
d="M820 904q0 -109 -60 -169t-168 -60q-50 0 -111 17q-36 10 -108 37l14 21q20 0 48 -3q64 -7 80 -7q94 0 162 33.5t68 79.5q0 21 -14 36t-33 15q-21 0 -33 -1l-57 -5q-21 0 -35 13t-14 44q0 84 71.5 201t150.5 149l-16 -131q-56 -19 -87 -41q-49 -35 -49 -84
q0 -17 13 -24.5t30 -7.5q15 0 27 2l44 7q43 0 60 -27t17 -95zM1120 293h-605q-196 0 -279 57q-88 61 -88 208q0 88 38 200q11 31 45 115l28 -20q-28 -78 -36.5 -120t-8.5 -80q0 -109 94 -153q71 -33 207 -33h522l-102 848l-43 25q0 69 10 129.5t30 117.5l12 -11
q0 -58 59 -87l89 -40q0 -46 -9.5 -103t-19.5 -89l-40 16l97 -784v-196zM649 1714l-63 -146l-131 86l61 146zM811 1536l-64 -144l-133 86l62 143zM622 1446l-62 -145l-133 84l61 145z" />
    <glyph glyph-name="uni06AD.fina" unicode="&#x6ad;" horiz-adv-x="1010" arabic-form="final" 
d="M820 904q0 -109 -60 -169t-168 -60q-50 0 -111 17q-36 10 -108 37l14 21q20 0 48 -3q64 -7 80 -7q94 0 162 33.5t68 79.5q0 21 -14 36t-33 15q-21 0 -33 -1l-57 -5q-21 0 -35 13t-14 44q0 84 71.5 201t150.5 149l-16 -131q-56 -19 -87 -41q-49 -35 -49 -84
q0 -17 13 -24.5t30 -7.5q15 0 27 2l44 7q43 0 60 -27t17 -95zM1120 293h-605q-196 0 -279 57q-88 61 -88 208q0 88 38 200q11 31 45 115l28 -20q-28 -78 -36.5 -120t-8.5 -80q0 -109 94 -153q71 -33 207 -33h522l-102 848l-43 25q0 69 10 129.5t30 117.5l12 -11
q0 -58 59 -87l89 -40q0 -46 -9.5 -103t-19.5 -89l-40 16l97 -784v-196zM649 1714l-63 -146l-131 86l61 146zM811 1536l-64 -144l-133 86l62 143zM622 1446l-62 -145l-133 84l61 145z" />
    <glyph glyph-name="uni06AD.init" unicode="&#x6ad;" horiz-adv-x="662" arabic-form="initial" 
d="M734 293h-719v174h624q-57 106 -131 184.5t-199 169.5l-27 -31l-97 90q-51 52 -51 81q0 172 69 270q64 90 221 162l231 110v-173l-172 -70q-102 -41 -165 -75q-81 -43 -81 -66t53 -71l66 -60q125 -115 218 -241q100 -135 160 -280v-174zM321 1709l-47 -96l-106 36l44 96z
M465 1660l-47 -96l-107 36l45 96zM287 1572l-47 -96l-107 36l45 96z" />
    <glyph glyph-name="uni06AD.medi" unicode="&#x6ad;" horiz-adv-x="662" arabic-form="medial" 
d="M734 293h-719v174h624q-57 106 -131 184.5t-199 169.5l-27 -31l-97 90q-51 52 -51 81q0 172 69 270q64 90 221 162l231 110v-173l-172 -70q-102 -41 -165 -75q-81 -43 -81 -66t53 -71l66 -60q125 -115 218 -241q100 -135 160 -280v-174zM321 1709l-47 -96l-106 36l44 96z
M465 1660l-47 -96l-107 36l45 96zM287 1572l-47 -96l-107 36l45 96z" />
    <glyph glyph-name="uni06AE.init" unicode="&#x6ae;" horiz-adv-x="662" 
d="M734 293h-719v174h624q-57 106 -131 184.5t-199 169.5l-27 -31l-97 90q-51 52 -51 81q0 172 69 270q64 90 221 162l231 110v-173l-172 -70q-102 -41 -165 -75q-81 -43 -81 -66t53 -71l66 -60q125 -115 218 -241q100 -135 160 -280v-174zM582 56l-61 -145l-134 84l62 145z
M554 -213l-61 -146l-133 86l63 146zM395 -37l-62 -143l-135 85l64 144z" />
    <glyph glyph-name="uni06B0.init" unicode="&#x6b0;" horiz-adv-x="662" 
d="M734 293h-719v174h624q-57 106 -131 184.5t-199 169.5l-27 -31l-97 90q-51 52 -51 81q0 172 69 270q64 90 221 162l231 110v-173l-172 -70q-102 -41 -165 -75q-81 -43 -81 -66t53 -71l66 -60q125 -115 218 -241q100 -135 160 -280v-174zM655 1794v-169
q-177 -79 -328 -168q-134 -78 -210 -141v106q26 36 105 99t188 133q123 79 245 140zM656 1203q0 -62 -37.5 -111t-92.5 -49q-44 0 -66.5 30t-22.5 84q0 77 33 136.5t81 59.5q45 0 75 -45t30 -105zM607 1176q0 28 -32 62t-54 34q-21 0 -36 -22.5t-15 -46.5q0 -35 27 -49
q22 -11 62 -11q20 0 34 7t14 26z" />
    <glyph glyph-name="uni06B0.medi" unicode="&#x6b0;" horiz-adv-x="865" 
d="M689 613q39 -57 76 -95q50 -51 87 -51h107v-174h-101q-67 0 -141 84q-36 41 -102 146q-40 63 -49 76q-21 30 -63 79q0 -178 -91 -278q-97 -107 -290 -107h-85v174h89q130 0 219 41q106 49 106 138q0 67 -40 113q-21 24 -80 62l-27 -31l-97 90q-51 52 -51 81q0 172 69 270
q64 90 221 162l231 110v-173l-171 -70q-103 -41 -166 -75q-80 -43 -80 -66t52 -71q33 -30 67 -60q72 -67 130 -132q50 -56 93 -116q28 -37 87 -127zM677 1794v-169q-177 -79 -328 -168q-134 -78 -210 -141v106q26 36 105 99t189 133q123 79 244 140zM656 1203
q0 -62 -37.5 -111t-92.5 -49q-44 0 -66.5 30t-22.5 84q0 77 33 136.5t81 59.5q45 0 75 -45t30 -105zM607 1176q0 28 -32 62t-54 34q-21 0 -36 -22.5t-15 -46.5q0 -35 27 -49q22 -11 62 -11q20 0 34 7t14 26z" />
    <glyph glyph-name="uni06B0.fina" unicode="&#x6b0;" horiz-adv-x="1566" 
d="M556 293q-196 0 -279 57q-89 61 -89 208q0 88 39 200q11 31 45 115l28 -20q-28 -78 -36.5 -120t-8.5 -80q0 -109 94 -153q71 -33 207 -33h349q130 0 219 41q106 49 106 138q0 67 -40 113q-21 24 -80 62l-27 -31l-97 90q-51 52 -51 81q0 172 69 270q64 90 221 162l231 110
v-173l-171 -70q-141 -58 -198 -93q-48 -30 -48 -48q0 -23 52 -71q33 -30 67 -60q72 -67 130 -132q50 -56 93 -116q27 -37 87 -127q39 -57 76 -95q50 -51 87 -51h107v-174h-101q-67 0 -141 84q-36 41 -102 146q-40 63 -49 76q-21 30 -63 79q0 -178 -91 -278
q-97 -107 -290 -107h-345zM1456 1776v-169q-177 -79 -328 -168q-134 -78 -210 -141v106q26 36 105 99t189 133q123 79 244 140zM1506 1203q0 -62 -37.5 -111t-92.5 -49q-44 0 -66.5 30t-22.5 84q0 77 33 136.5t81 59.5q45 0 75 -45t30 -105zM1457 1176q0 28 -32 62t-54 34
q-21 0 -36 -22.5t-15 -46.5q0 -35 27 -49q22 -11 62 -11q20 0 34 7t14 26z" />
    <glyph glyph-name="uni06B1" unicode="&#x6b1;" horiz-adv-x="1363" arabic-form="isolated" 
d="M1418 467q-57 106 -131 184.5t-199 169.5l-27 -31l-97 90q-51 52 -51 81q0 172 69 270q64 90 221 162l231 110v-173l-172 -70q-102 -41 -165 -75q-81 -43 -81 -66t53 -71l66 -60q125 -115 218 -241q100 -135 160 -280v-174h-980q-196 0 -278 57q-89 61 -89 208
q0 88 39 200q10 31 45 115l28 -20q-28 -78 -37 -120t-9 -80q0 -109 95 -153q70 -33 206 -33h885zM1434 1776v-169q-177 -79 -328 -168q-134 -78 -210 -141v106q26 36 105 99t188 133q123 79 245 140zM1297 1781l-44 -105l-118 44l46 105zM1126 1690l-44 -105l-118 44l45 105
z" />
    <glyph glyph-name="uni06B1.fina" unicode="&#x6b1;" horiz-adv-x="1566" arabic-form="final" 
d="M556 293q-196 0 -279 57q-89 61 -89 208q0 88 39 200q11 31 45 115l28 -20q-28 -78 -36.5 -120t-8.5 -80q0 -109 94 -153q71 -33 207 -33h349q130 0 219 41q106 49 106 138q0 67 -40 113q-21 24 -80 62l-27 -31l-97 90q-51 52 -51 81q0 172 69 270q64 90 221 162l231 110
v-173l-171 -70q-141 -58 -198 -93q-48 -30 -48 -48q0 -23 52 -71q33 -30 67 -60q72 -67 130 -132q50 -56 93 -116q27 -37 87 -127q39 -57 76 -95q50 -51 87 -51h107v-174h-101q-67 0 -141 84q-36 41 -102 146q-40 63 -49 76q-21 30 -63 79q0 -178 -91 -278
q-97 -107 -290 -107h-345zM1456 1776v-169q-177 -79 -328 -168q-134 -78 -210 -141v106q26 36 105 99t189 133q123 79 244 140zM1297 1781l-44 -105l-118 44l46 105zM1126 1690l-44 -105l-118 44l45 105z" />
    <glyph glyph-name="uni06B1.init" unicode="&#x6b1;" horiz-adv-x="662" arabic-form="initial" 
d="M734 293h-719v174h624q-57 106 -131 184.5t-199 169.5l-27 -31l-97 90q-51 52 -51 81q0 172 69 270q64 90 221 162l231 110v-173l-172 -70q-102 -41 -165 -75q-81 -43 -81 -66t53 -71l66 -60q125 -115 218 -241q100 -135 160 -280v-174zM655 1794v-169
q-177 -79 -328 -168q-134 -78 -210 -141v106q26 36 105 99t188 133q123 79 245 140zM417 1781l-44 -105l-118 44l46 105zM246 1690l-44 -105l-118 44l45 105z" />
    <glyph glyph-name="uni06B1.medi" unicode="&#x6b1;" horiz-adv-x="865" arabic-form="medial" 
d="M689 613q39 -57 76 -95q50 -51 87 -51h107v-174h-101q-67 0 -141 84q-36 41 -102 146q-40 63 -49 76q-21 30 -63 79q0 -178 -91 -278q-97 -107 -290 -107h-85v174h89q130 0 219 41q106 49 106 138q0 67 -40 113q-21 24 -80 62l-27 -31l-97 90q-51 52 -51 81q0 172 69 270
q64 90 221 162l231 110v-173l-171 -70q-103 -41 -166 -75q-80 -43 -80 -66t52 -71q33 -30 67 -60q72 -67 130 -132q50 -56 93 -116q28 -37 87 -127zM677 1794v-169q-177 -79 -328 -168q-134 -78 -210 -141v106q26 36 105 99t189 133q123 79 244 140zM417 1781l-44 -105
l-118 44l46 105zM246 1690l-44 -105l-118 44l45 105z" />
    <glyph glyph-name="uni06B2.init" unicode="&#x6b2;" horiz-adv-x="662" 
d="M734 293h-719v174h624q-57 106 -131 184.5t-199 169.5l-27 -31l-97 90q-51 52 -51 81q0 172 69 270q64 90 221 162l231 110v-173l-172 -70q-102 -41 -165 -75q-81 -43 -81 -66t53 -71l66 -60q125 -115 218 -241q100 -135 160 -280v-174zM655 1794v-169
q-177 -79 -328 -168q-134 -78 -210 -141v106q26 36 105 99t188 133q123 79 245 140zM602 56l-61 -145l-134 84l62 145zM415 -37l-62 -143l-135 85l64 144z" />
    <glyph glyph-name="uni06B2.medi" unicode="&#x6b2;" horiz-adv-x="865" 
d="M689 613q39 -57 76 -95q50 -51 87 -51h107v-174h-101q-67 0 -141 84q-36 41 -102 146q-40 63 -49 76q-21 30 -63 79q0 -178 -91 -278q-97 -107 -290 -107h-85v174h89q130 0 219 41q106 49 106 138q0 67 -40 113q-21 24 -80 62l-27 -31l-97 90q-51 52 -51 81q0 172 69 270
q64 90 221 162l231 110v-173l-171 -70q-103 -41 -166 -75q-80 -43 -80 -66t52 -71q33 -30 67 -60q72 -67 130 -132q50 -56 93 -116q28 -37 87 -127zM677 1794v-169q-177 -79 -328 -168q-134 -78 -210 -141v106q26 36 105 99t189 133q123 79 244 140zM462 56l-61 -145
l-134 84l62 145zM275 -37l-62 -143l-135 85l64 144z" />
    <glyph glyph-name="uni06B2.fina" unicode="&#x6b2;" horiz-adv-x="1566" 
d="M556 293q-196 0 -279 57q-89 61 -89 208q0 88 39 200q11 31 45 115l28 -20q-28 -78 -36.5 -120t-8.5 -80q0 -109 94 -153q71 -33 207 -33h349q130 0 219 41q106 49 106 138q0 67 -40 113q-21 24 -80 62l-27 -31l-97 90q-51 52 -51 81q0 172 69 270q64 90 221 162l231 110
v-173l-171 -70q-141 -58 -198 -93q-48 -30 -48 -48q0 -23 52 -71q33 -30 67 -60q72 -67 130 -132q50 -56 93 -116q27 -37 87 -127q39 -57 76 -95q50 -51 87 -51h107v-174h-101q-67 0 -141 84q-36 41 -102 146q-40 63 -49 76q-21 30 -63 79q0 -178 -91 -278
q-97 -107 -290 -107h-345zM1456 1776v-169q-177 -79 -328 -168q-134 -78 -210 -141v106q26 36 105 99t189 133q123 79 244 140zM862 56l-61 -145l-134 84l62 145zM675 -37l-62 -143l-135 85l64 144z" />
    <glyph glyph-name="uni06B3" unicode="&#x6b3;" horiz-adv-x="1363" arabic-form="isolated" 
d="M1418 467q-57 106 -131 184.5t-199 169.5l-27 -31l-97 90q-51 52 -51 81q0 172 69 270q64 90 221 162l231 110v-173l-172 -70q-102 -41 -165 -75q-81 -43 -81 -66t53 -71l66 -60q125 -115 218 -241q100 -135 160 -280v-174h-980q-196 0 -278 57q-89 61 -89 208
q0 88 39 200q10 31 45 115l28 -20q-28 -78 -37 -120t-9 -80q0 -109 95 -153q70 -33 206 -33h885zM1434 1776v-169q-177 -79 -328 -168q-134 -78 -210 -141v106q26 36 105 99t188 133q123 79 245 140zM988 56l-61 -145l-134 84l62 145zM1026 -194l-61 -146l-134 86l63 146z
" />
    <glyph glyph-name="uni06B3.fina" unicode="&#x6b3;" horiz-adv-x="1566" arabic-form="final" 
d="M556 293q-196 0 -279 57q-89 61 -89 208q0 88 39 200q11 31 45 115l28 -20q-28 -78 -36.5 -120t-8.5 -80q0 -109 94 -153q71 -33 207 -33h349q130 0 219 41q106 49 106 138q0 67 -40 113q-21 24 -80 62l-27 -31l-97 90q-51 52 -51 81q0 172 69 270q64 90 221 162l231 110
v-173l-171 -70q-141 -58 -198 -93q-48 -30 -48 -48q0 -23 52 -71q33 -30 67 -60q72 -67 130 -132q50 -56 93 -116q27 -37 87 -127q39 -57 76 -95q50 -51 87 -51h107v-174h-101q-67 0 -141 84q-36 41 -102 146q-40 63 -49 76q-21 30 -63 79q0 -178 -91 -278
q-97 -107 -290 -107h-345zM1456 1776v-169q-177 -79 -328 -168q-134 -78 -210 -141v106q26 36 105 99t189 133q123 79 244 140zM788 56l-61 -145l-134 84l62 145zM826 -194l-61 -146l-134 86l63 146z" />
    <glyph glyph-name="uni06B3.init" unicode="&#x6b3;" horiz-adv-x="662" arabic-form="initial" 
d="M734 293h-719v174h624q-57 106 -131 184.5t-199 169.5l-27 -31l-97 90q-51 52 -51 81q0 172 69 270q64 90 221 162l231 110v-173l-172 -70q-102 -41 -165 -75q-81 -43 -81 -66t53 -71l66 -60q125 -115 218 -241q100 -135 160 -280v-174zM655 1794v-169
q-177 -79 -328 -168q-134 -78 -210 -141v106q26 36 105 99t188 133q123 79 245 140zM488 56l-61 -145l-134 84l62 145zM526 -194l-61 -146l-134 86l63 146z" />
    <glyph glyph-name="uni06B3.medi" unicode="&#x6b3;" horiz-adv-x="865" arabic-form="medial" 
d="M689 613q39 -57 76 -95q50 -51 87 -51h107v-174h-101q-67 0 -141 84q-36 41 -102 146q-40 63 -49 76q-21 30 -63 79q0 -178 -91 -278q-97 -107 -290 -107h-85v174h89q130 0 219 41q106 49 106 138q0 67 -40 113q-21 24 -80 62l-27 -31l-97 90q-51 52 -51 81q0 172 69 270
q64 90 221 162l231 110v-173l-171 -70q-103 -41 -166 -75q-80 -43 -80 -66t52 -71q33 -30 67 -60q72 -67 130 -132q50 -56 93 -116q28 -37 87 -127zM677 1794v-169q-177 -79 -328 -168q-134 -78 -210 -141v106q26 36 105 99t189 133q123 79 244 140zM328 56l-61 -145
l-134 84l62 145zM366 -194l-61 -146l-134 86l63 146z" />
    <glyph glyph-name="uni06B4.init" unicode="&#x6b4;" horiz-adv-x="662" 
d="M734 293h-719v174h624q-57 106 -131 184.5t-199 169.5l-27 -31l-97 90q-51 52 -51 81q0 172 69 270q64 90 221 162l231 110v-173l-172 -70q-102 -41 -165 -75q-81 -43 -81 -66t53 -71l66 -60q125 -115 218 -241q100 -135 160 -280v-174zM655 1794v-169
q-177 -79 -328 -168q-134 -78 -210 -141v106q26 36 105 99t188 133q123 79 245 140zM266 1789l-47 -96l-106 36l44 96zM410 1740l-47 -96l-107 36l45 96zM232 1652l-47 -96l-107 36l45 96z" />
    <glyph glyph-name="uni06B4.medi" unicode="&#x6b4;" horiz-adv-x="865" 
d="M689 613q39 -57 76 -95q50 -51 87 -51h107v-174h-101q-67 0 -141 84q-36 41 -102 146q-40 63 -49 76q-21 30 -63 79q0 -178 -91 -278q-97 -107 -290 -107h-85v174h89q130 0 219 41q106 49 106 138q0 67 -40 113q-21 24 -80 62l-27 -31l-97 90q-51 52 -51 81q0 172 69 270
q64 90 221 162l231 110v-173l-171 -70q-103 -41 -166 -75q-80 -43 -80 -66t52 -71q33 -30 67 -60q72 -67 130 -132q50 -56 93 -116q28 -37 87 -127zM677 1794v-169q-177 -79 -328 -168q-134 -78 -210 -141v106q26 36 105 99t189 133q123 79 244 140zM266 1789l-47 -96
l-106 36l44 96zM410 1740l-47 -96l-107 36l45 96zM232 1652l-47 -96l-107 36l45 96z" />
    <glyph glyph-name="uni06B4.fina" unicode="&#x6b4;" horiz-adv-x="1566" 
d="M556 293q-196 0 -279 57q-89 61 -89 208q0 88 39 200q11 31 45 115l28 -20q-28 -78 -36.5 -120t-8.5 -80q0 -109 94 -153q71 -33 207 -33h349q130 0 219 41q106 49 106 138q0 67 -40 113q-21 24 -80 62l-27 -31l-97 90q-51 52 -51 81q0 172 69 270q64 90 221 162l231 110
v-173l-171 -70q-141 -58 -198 -93q-48 -30 -48 -48q0 -23 52 -71q33 -30 67 -60q72 -67 130 -132q50 -56 93 -116q27 -37 87 -127q39 -57 76 -95q50 -51 87 -51h107v-174h-101q-67 0 -141 84q-36 41 -102 146q-40 63 -49 76q-21 30 -63 79q0 -178 -91 -278
q-97 -107 -290 -107h-345zM1456 1776v-169q-177 -79 -328 -168q-134 -78 -210 -141v106q26 36 105 99t189 133q123 79 244 140zM1121 1789l-47 -96l-106 36l44 96zM1265 1740l-47 -96l-107 36l45 96zM1087 1652l-47 -96l-107 36l45 96z" />
    <glyph glyph-name="uni06B5.init" unicode="&#x6b5;" horiz-adv-x="348" 
d="M386 293h-405v174h322l-98 848l-42 25q0 69 9.5 129.5t29.5 117.5l12 -11q0 -58 54 -87q41 -20 83 -40q0 -50 -7 -107t-16 -85l-39 16l97 -784v-196zM365 1824l-112 -230h-46l-111 230h71l63 -140l63 140h72z" />
    <glyph glyph-name="uni06B5.medi" unicode="&#x6b5;" horiz-adv-x="348" 
d="M386 293h-405v174h322l-98 848l-42 25q0 69 9.5 129.5t29.5 117.5l12 -11q0 -58 54 -87q41 -20 83 -40q0 -50 -7 -107t-16 -85l-39 16l97 -784v-196zM365 1824l-112 -230h-46l-111 230h71l63 -140l63 140h72z" />
    <glyph glyph-name="uni06B6.init" unicode="&#x6b6;" horiz-adv-x="348" 
d="M386 293h-405v174h322l-98 848l-42 25q0 69 9.5 129.5t29.5 117.5l12 -11q0 -58 54 -87q41 -20 83 -40q0 -50 -7 -107t-16 -85l-39 16l97 -784v-196zM318 1740l-64 -145l-132 84l60 146z" />
    <glyph glyph-name="uni06B6.medi" unicode="&#x6b6;" horiz-adv-x="348" 
d="M386 293h-405v174h322l-98 848l-42 25q0 69 9.5 129.5t29.5 117.5l12 -11q0 -58 54 -87q41 -20 83 -40q0 -50 -7 -107t-16 -85l-39 16l97 -784v-196zM318 1740l-64 -145l-132 84l60 146z" />
    <glyph glyph-name="uni06B7.init" unicode="&#x6b7;" horiz-adv-x="348" 
d="M386 293h-405v174h322l-98 848l-42 25q0 69 9.5 129.5t29.5 117.5l12 -11q0 -58 54 -87q41 -20 83 -40q0 -50 -7 -107t-16 -85l-39 16l97 -784v-196zM221 1789l-47 -96l-106 36l44 96zM365 1740l-47 -96l-107 36l45 96zM187 1652l-47 -96l-107 36l45 96z" />
    <glyph glyph-name="uni06B7.medi" unicode="&#x6b7;" horiz-adv-x="348" 
d="M386 293h-405v174h322l-98 848l-42 25q0 69 9.5 129.5t29.5 117.5l12 -11q0 -58 54 -87q41 -20 83 -40q0 -50 -7 -107t-16 -85l-39 16l97 -784v-196zM221 1789l-47 -96l-106 36l44 96zM365 1740l-47 -96l-107 36l45 96zM187 1652l-47 -96l-107 36l45 96z" />
    <glyph glyph-name="uni06B8.init" unicode="&#x6b8;" horiz-adv-x="348" 
d="M386 293h-405v174h322l-98 848l-42 25q0 69 9.5 129.5t29.5 117.5l12 -11q0 -58 54 -87q41 -20 83 -40q0 -50 -7 -107t-16 -85l-39 16l97 -784v-196zM402 56l-61 -145l-134 84l62 145zM374 -213l-61 -146l-133 86l63 146zM215 -37l-62 -143l-135 85l64 144z" />
    <glyph glyph-name="uni06B8.medi" unicode="&#x6b8;" horiz-adv-x="348" 
d="M386 293h-405v174h322l-98 848l-42 25q0 69 9.5 129.5t29.5 117.5l12 -11q0 -58 54 -87q41 -20 83 -40q0 -50 -7 -107t-16 -85l-39 16l97 -784v-196zM402 56l-61 -145l-134 84l62 145zM374 -213l-61 -146l-133 86l63 146zM215 -37l-62 -143l-135 85l64 144z" />
    <glyph glyph-name="uni06B9.init" unicode="&#x6b9;" horiz-adv-x="410" 
d="M389 1218l-62 -145l-133 84l61 145zM455 293h-467v174h407q0 118 -23 180q-15 43 -77 124l64 163q59 -91 74 -142q22 -77 22 -255v-244zM371 50l-64 -145l-132 84l60 146z" />
    <glyph glyph-name="uni06BA" unicode="&#x6ba;" horiz-adv-x="884" arabic-form="isolated" 
d="M980 293q0 -223 -107 -328q-116 -113 -373 -113q-164 0 -251 70q-95 77 -95 236q0 86 17 174t46 177q19 54 63 166l33 -18q-58 -144 -76.5 -227t-18.5 -152q0 -124 72.5 -188.5t207.5 -64.5q155 0 275 67q148 83 148 232q0 102 -25 190q-21 78 -60 136l68 205
q43 -81 59.5 -165t16.5 -223v-174z" />
    <glyph glyph-name="uni06BA.fina" unicode="&#x6ba;" horiz-adv-x="884" arabic-form="final" 
d="M980 293q0 -223 -107 -328q-116 -113 -373 -113q-164 0 -251 70q-95 77 -95 236q0 86 17 174t46 177q19 54 63 166l33 -18q-58 -144 -76.5 -227t-18.5 -152q0 -124 72.5 -188.5t207.5 -64.5q155 0 275 67q148 83 148 232q0 102 -25 190q-21 78 -60 136l68 205
q43 -81 59.5 -165t16.5 -223v-174z" />
    <glyph glyph-name="uni06BB" unicode="&#x6bb;" horiz-adv-x="884" arabic-form="isolated" 
d="M980 293q0 -223 -107 -328q-116 -113 -373 -113q-164 0 -251 70q-95 77 -95 236q0 86 17 174t46 177q19 54 63 166l33 -18q-58 -144 -76.5 -227t-18.5 -152q0 -124 72.5 -188.5t207.5 -64.5q155 0 275 67q148 83 148 232q0 102 -25 190q-21 78 -60 136l68 205
q43 -81 59.5 -165t16.5 -223v-174zM841 982h-492v83h59q52 0 110 44q16 46 16 91q0 49 -8 113q-7 49 -18 105q-5 30 -16 77l-24 14q7 65 22 107q7 -24 33 -37q17 -8 43 -11q-2 -31 -13 -95q-4 1 -15 4l-5 2q31 -127 31 -213q0 -32 -5 -75q-2 -13 -7 -46q66 47 88 59
q59 34 98 34q103 0 103 -136v-120zM779 1101q0 50 -79 50q-51 0 -130 -50q-32 -20 -52 -36h169q92 0 92 36z" />
    <glyph glyph-name="uni06BB.fina" unicode="&#x6bb;" horiz-adv-x="884" arabic-form="final" 
d="M980 293q0 -223 -107 -328q-116 -113 -373 -113q-164 0 -251 70q-95 77 -95 236q0 86 17 174t46 177q19 54 63 166l33 -18q-58 -144 -76.5 -227t-18.5 -152q0 -124 72.5 -188.5t207.5 -64.5q155 0 275 67q148 83 148 232q0 102 -25 190q-21 78 -60 136l68 205
q43 -81 59.5 -165t16.5 -223v-174zM841 982h-492v83h59q52 0 110 44q16 46 16 91q0 49 -8 113q-7 49 -18 105q-5 30 -16 77l-24 14q7 65 22 107q7 -24 33 -37q17 -8 43 -11q-2 -31 -13 -95q-4 1 -15 4l-5 2q31 -127 31 -213q0 -32 -5 -75q-2 -13 -7 -46q66 47 88 59
q59 34 98 34q103 0 103 -136v-120zM779 1101q0 50 -79 50q-51 0 -130 -50q-32 -20 -52 -36h169q92 0 92 36z" />
    <glyph glyph-name="uni06BC.init" unicode="&#x6bc;" horiz-adv-x="410" 
d="M389 1218l-62 -145l-133 84l61 145zM455 293h-467v174h407q0 118 -23 180q-15 43 -77 124l64 163q59 -91 74 -142q22 -77 22 -255v-244zM316 224q0 -62 -37.5 -111t-92.5 -49q-44 0 -66.5 30t-22.5 84q0 77 33 136.5t81 59.5q45 0 75 -45t30 -105zM267 197q0 28 -32 62
t-54 34q-21 0 -36 -22.5t-15 -46.5q0 -35 27 -49q22 -11 62 -11q20 0 34 7t14 26z" />
    <glyph glyph-name="uni06BF.init" unicode="&#x6bf;" horiz-adv-x="890" 
d="M987 293h-947v174h669q-84 79 -141 123q-72 55 -131 80q-66 28 -134 28q-42 0 -85 -7q24 74 63 119q55 65 141 65q83 0 197 -100q57 -50 185 -190q99 -109 134 -118h49v-174zM677 56l-61 -145l-135 84l63 145zM649 -213l-61 -146l-134 86l63 146zM490 -37l-62 -143
l-135 85l64 144zM581 1224l-64 -145l-132 84l60 146z" />
    <glyph glyph-name="uni06BF.fina" unicode="&#x6bf;" horiz-adv-x="883" 
d="M980 293h-112q-99 0 -141 45t-42 149q0 39 8 97q3 22 9 58q-140 -52 -211 -89q-132 -68 -204 -154q-91 -108 -91 -246q0 -215 184 -323q160 -94 427 -94h151l5 -11l-185 -159h-48q-177 0 -294 40q-141 48 -213 154q-82 121 -82 320q0 171 70 299q54 100 158 183
q31 25 169 115q-33 5 -69.5 8.5t-65.5 3.5q-83 0 -135 -9q-17 -3 -107 -27q28 98 58 136q68 84 213 84q80 0 172.5 -18.5t155.5 -18.5q42 0 82 4t83 11l-33 -170q-33 -5 -76 -14q-27 -6 -75 -17l-1 -56q0 -82 41 -110q25 -17 87 -17h112v-174zM687 248l-60 -145l-135 84
l62 145zM659 -21l-60 -146l-134 86l63 146zM500 155l-61 -143l-135 85l64 144zM655 1224l-64 -145l-132 84l60 146z" />
    <glyph glyph-name="uni06C0" unicode="&#x6c0;" horiz-adv-x="474" arabic-form="isolated" 
d="M492 588q0 -141 -38 -212q-58 -110 -213 -110q-60 0 -100 29q-45 33 -45 94q0 70 29 162q26 78 53 157l-12 4l50 169q148 -95 177 -120q99 -84 99 -173zM420 510q0 38 -90 101q-39 27 -83 53q-37 -49 -44 -61q-23 -39 -23 -74q0 -51 23.5 -79.5t62.5 -28.5q46 0 100 31.5
t54 57.5zM360 1138q0 -25 -25 -45q-18 -13 -52 -28l-152 -64q0 46 82 81q-26 16 -39 31q-17 19 -17 40q0 31 43 87q49 62 86 62q16 0 28 -13.5t12 -35.5q0 -14 -5 -28.5t-14 -32.5q-26 28 -55 28q-18 0 -35.5 -9t-17.5 -21q0 -15 38 -41t65 -26q18 0 26 1.5t32 13.5z" />
    <glyph glyph-name="uni06C0.fina" unicode="&#x6c0;" horiz-adv-x="630" arabic-form="final" 
d="M699 293h-117q-59 0 -105 123q-33 92 -54 237q-24 -56 -62 -87t-79 -31q-95 0 -157.5 15.5t-62.5 39.5q0 86 91.5 190.5t229.5 182.5q-1 8 -6.5 42t-5.5 42q0 34 19 76q15 34 41 70q8 -62 16.5 -120t20.5 -120l24 -172q21 -142 37 -210q26 -104 53 -104h117v-174z
M413 740l-16 109q-71 -31 -112 -64.5t-69 -88.5q17 -9 40 -14t63 -5q49 0 94 63zM360 1338q0 -25 -25 -45q-18 -13 -52 -28l-152 -64q0 46 82 81q-26 16 -39 31q-17 19 -17 40q0 31 43 87q49 62 86 62q16 0 28 -13.5t12 -35.5q0 -14 -5 -28.5t-14 -32.5q-26 28 -55 28
q-18 0 -35.5 -9t-17.5 -21q0 -15 38 -41t65 -26q18 0 26 1.5t32 13.5z" />
    <glyph glyph-name="uni06C1.fina" unicode="&#x6c1;" horiz-adv-x="651" arabic-form="final" 
d="M723 293h-59q-55 0 -93 26.5t-90 97.5q-46 62 -50 67q-27 29 -54 29q-55 0 -138 -143q-58 -100 -108 -225l-38 29q163 497 334 497q47 0 116 -97q75 -107 130 -107h50v-174z" />
    <glyph glyph-name="uni06C5" unicode="&#x6c5;" horiz-adv-x="726" arabic-form="isolated" 
d="M805 353q0 -165 -100 -328q-111 -182 -257 -182q-54 0 -112 15q-47 12 -109 38q-35 15 -106 45l14 35l96 -27q54 -15 91 -15q100 0 189 62q67 47 131 132l9 12q-14 -3 -27 -3q-38 0 -113 25q-99 33 -108 33q-17 0 -42 -14l-9 13q39 75 88 75q17 0 115 -33q75 -25 99 -25
q26 0 51 8q24 37 45 72q-228 0 -228 204q0 103 40 191q46 102 116 102q127 0 127 -321v-114zM754 462q-31 165 -98 165q-56 0 -56 -65q0 -100 154 -100z" />
    <glyph glyph-name="uni06C5.fina" unicode="&#x6c5;" horiz-adv-x="726" arabic-form="final" 
d="M805 353q0 -165 -100 -328q-111 -182 -257 -182q-54 0 -112 15q-47 12 -109 38q-35 15 -106 45l14 35l96 -27q54 -15 91 -15q100 0 189 62q67 47 131 132l9 12q-14 -3 -27 -3q-38 0 -113 25q-99 33 -108 33q-17 0 -42 -14l-9 13q39 75 88 75q17 0 115 -33q75 -25 99 -25
q26 0 51 8q24 37 45 72q-228 0 -228 204q0 103 40 191q46 102 116 102q127 0 127 -321v-114zM754 462q-31 165 -98 165q-56 0 -56 -65q0 -100 154 -100z" />
    <glyph glyph-name="uni06C6" unicode="&#x6c6;" horiz-adv-x="779" arabic-form="isolated" 
d="M805 353q0 -165 -100 -328q-111 -182 -257 -182q-54 0 -112 15q-42 11 -109 38q-53 23 -106 45l14 35q46 -13 96 -27.5t91 -14.5q100 0 189 62q70 49 139 142q36 47 100 153q-110 0 -165 43q-63 49 -63 161q0 103 40 191q46 102 116 102q72 0 103 -101q24 -79 24 -220
v-114zM754 462q-18 96 -44 133q-22 32 -54 32q-23 0 -39.5 -18.5t-16.5 -46.5q0 -49 36 -74.5t118 -25.5zM865 1199l-112 -230h-46l-111 230h71l63 -140l63 140h72z" />
    <glyph glyph-name="uni06C6.fina" unicode="&#x6c6;" horiz-adv-x="779" arabic-form="final" 
d="M805 353q0 -165 -100 -328q-111 -182 -257 -182q-54 0 -112 15q-42 11 -109 38q-53 23 -106 45l14 35q46 -13 96 -27.5t91 -14.5q100 0 189 62q70 49 139 142q36 47 100 153q-110 0 -165 43q-63 49 -63 161q0 103 40 191q46 102 116 102q72 0 103 -101q24 -79 24 -220
v-114zM754 462q-18 96 -44 133q-22 32 -54 32q-23 0 -39.5 -18.5t-16.5 -46.5q0 -49 36 -74.5t118 -25.5zM865 1199l-112 -230h-46l-111 230h71l63 -140l63 140h72z" />
    <glyph glyph-name="uni06C7" unicode="&#x6c7;" horiz-adv-x="726" arabic-form="isolated" 
d="M805 353q0 -165 -100 -328q-111 -182 -257 -182q-54 0 -112 15q-42 11 -109 38q-53 23 -106 45l14 35q46 -13 96 -27.5t91 -14.5q100 0 189 62q70 49 139 142q36 47 100 153q-110 0 -165 43q-63 49 -63 161q0 103 40 191q46 102 116 102q72 0 103 -101q24 -79 24 -220
v-114zM754 462q-18 96 -44 133q-22 32 -54 32q-23 0 -39.5 -18.5t-16.5 -46.5q0 -49 36 -74.5t118 -25.5zM772 1092q0 -17 -2.5 -35t-5.5 -36l-68 50q-41 -55 -55 -73q-61 -72 -102 -72h-60q44 25 102 81q52 51 79 90q-25 19 -38 40q-17 26 -17 57q0 66 31.5 116.5
t68.5 50.5q22 0 39 -28t17 -68q0 -19 -4.5 -39.5t-20.5 -75.5q13 -14 27 -27q9 -11 9 -31zM710 1205q0 27 -15.5 50t-30.5 23q-8 0 -12.5 -7t-4.5 -14q0 -22 21 -46l36 -34q6 20 6 28z" />
    <glyph glyph-name="uni06C7.fina" unicode="&#x6c7;" horiz-adv-x="726" arabic-form="final" 
d="M805 353q0 -165 -100 -328q-111 -182 -257 -182q-54 0 -112 15q-42 11 -109 38q-53 23 -106 45l14 35q46 -13 96 -27.5t91 -14.5q100 0 189 62q70 49 139 142q36 47 100 153q-110 0 -165 43q-63 49 -63 161q0 103 40 191q46 102 116 102q72 0 103 -101q24 -79 24 -220
v-114zM754 462q-18 96 -44 133q-22 32 -54 32q-23 0 -39.5 -18.5t-16.5 -46.5q0 -49 36 -74.5t118 -25.5zM772 1092q0 -17 -2.5 -35t-5.5 -36l-68 50q-41 -55 -55 -73q-61 -72 -102 -72h-60q44 25 102 81q52 51 79 90q-25 19 -38 40q-17 26 -17 57q0 66 31.5 116.5
t68.5 50.5q22 0 39 -28t17 -68q0 -19 -4.5 -39.5t-20.5 -75.5q13 -14 27 -27q9 -11 9 -31zM710 1205q0 27 -15.5 50t-30.5 23q-8 0 -12.5 -7t-4.5 -14q0 -22 21 -46l36 -34q6 20 6 28z" />
    <glyph glyph-name="uni06C8" unicode="&#x6c8;" horiz-adv-x="726" arabic-form="isolated" 
d="M805 353q0 -165 -100 -328q-111 -182 -257 -182q-54 0 -112 15q-42 11 -109 38q-53 23 -106 45l14 35q46 -13 96 -27.5t91 -14.5q100 0 189 62q70 49 139 142q36 47 100 153q-110 0 -165 43q-63 49 -63 161q0 103 40 191q46 102 116 102q72 0 103 -101q24 -79 24 -220
v-114zM754 462q-18 96 -44 133q-22 32 -54 32q-23 0 -39.5 -18.5t-16.5 -46.5q0 -49 36 -74.5t118 -25.5zM721 1051q0 -54 -39 -129l-7 4q3 37 3 54q0 124 -38 450q15 38 38 87q43 -334 43 -466z" />
    <glyph glyph-name="uni06C8.fina" unicode="&#x6c8;" horiz-adv-x="726" arabic-form="final" 
d="M805 353q0 -165 -100 -328q-111 -182 -257 -182q-54 0 -112 15q-42 11 -109 38q-53 23 -106 45l14 35q46 -13 96 -27.5t91 -14.5q100 0 189 62q70 49 139 142q36 47 100 153q-110 0 -165 43q-63 49 -63 161q0 103 40 191q46 102 116 102q72 0 103 -101q24 -79 24 -220
v-114zM754 462q-18 96 -44 133q-22 32 -54 32q-23 0 -39.5 -18.5t-16.5 -46.5q0 -49 36 -74.5t118 -25.5zM721 1051q0 -54 -39 -129l-7 4q3 37 3 54q0 124 -38 450q15 38 38 87q43 -334 43 -466z" />
    <glyph glyph-name="uni06C9" unicode="&#x6c9;" horiz-adv-x="779" arabic-form="isolated" 
d="M805 353q0 -165 -100 -328q-111 -182 -257 -182q-54 0 -112 15q-42 11 -109 38q-53 23 -106 45l14 35q46 -13 96 -27.5t91 -14.5q100 0 189 62q70 49 139 142q36 47 100 153q-110 0 -165 43q-63 49 -63 161q0 103 40 191q46 102 116 102q72 0 103 -101q24 -79 24 -220
v-114zM754 462q-18 96 -44 133q-22 32 -54 32q-23 0 -39.5 -18.5t-16.5 -46.5q0 -49 36 -74.5t118 -25.5zM865 969h-72l-63 140l-63 -140h-71l111 230h46z" />
    <glyph glyph-name="uni06C9.fina" unicode="&#x6c9;" horiz-adv-x="779" arabic-form="final" 
d="M805 353q0 -165 -100 -328q-111 -182 -257 -182q-54 0 -112 15q-42 11 -109 38q-53 23 -106 45l14 35q46 -13 96 -27.5t91 -14.5q100 0 189 62q70 49 139 142q36 47 100 153q-110 0 -165 43q-63 49 -63 161q0 103 40 191q46 102 116 102q72 0 103 -101q24 -79 24 -220
v-114zM754 462q-18 96 -44 133q-22 32 -54 32q-23 0 -39.5 -18.5t-16.5 -46.5q0 -49 36 -74.5t118 -25.5zM865 969h-72l-63 140l-63 -140h-71l111 230h46z" />
    <glyph glyph-name="uni06CB" unicode="&#x6cb;" horiz-adv-x="763" arabic-form="isolated" 
d="M805 353q0 -165 -100 -328q-111 -182 -257 -182q-54 0 -112 15q-42 11 -109 38q-53 23 -106 45l14 35q46 -13 96 -27.5t91 -14.5q100 0 189 62q70 49 139 142q36 47 100 153q-110 0 -165 43q-63 49 -63 161q0 103 40 191q46 102 116 102q72 0 103 -101q24 -79 24 -220
v-114zM754 462q-18 96 -44 133q-22 32 -54 32q-23 0 -39.5 -18.5t-16.5 -46.5q0 -49 36 -74.5t118 -25.5zM689 1369l-63 -146l-131 86l61 146zM851 1191l-64 -144l-133 86l62 143zM662 1101l-62 -145l-133 84l61 145z" />
    <glyph glyph-name="uni06CB.fina" unicode="&#x6cb;" horiz-adv-x="763" arabic-form="final" 
d="M805 353q0 -165 -100 -328q-111 -182 -257 -182q-54 0 -112 15q-42 11 -109 38q-53 23 -106 45l14 35q46 -13 96 -27.5t91 -14.5q100 0 189 62q70 49 139 142q36 47 100 153q-110 0 -165 43q-63 49 -63 161q0 103 40 191q46 102 116 102q72 0 103 -101q24 -79 24 -220
v-114zM754 462q-18 96 -44 133q-22 32 -54 32q-23 0 -39.5 -18.5t-16.5 -46.5q0 -49 36 -74.5t118 -25.5zM689 1369l-63 -146l-131 86l61 146zM851 1191l-64 -144l-133 86l62 143zM662 1101l-62 -145l-133 84l61 145z" />
    <glyph glyph-name="uni06CD.fina" unicode="&#x6cd;" horiz-adv-x="989" 
d="M1097 293h-144q-253 0 -253 -40q0 -33 76 -33q47 0 139 -13q39 -6 54 -15q24 -15 24 -52q0 -222 -151 -306q-104 -59 -313 -59q-152 0 -253 56q-138 76 -138 239q0 116 52 246q15 36 53 111l-192 -121v61l239 150l32 -20q-21 -43 -61 -129q-47 -106 -47 -180
q0 -144 141 -206q95 -42 239 -42q117 0 207 22q109 27 109 74q0 18 -12 26q-6 5 -41 8q-14 3 -69 7q-44 3 -62 3q-96 0 -96 66q0 227 192 298q61 23 131 23h144v-174z" />
    <glyph glyph-name="uni06CE.init" unicode="&#x6ce;" horiz-adv-x="428" 
d="M455 293h-467v174h407q0 118 -23 180q-15 43 -77 124l64 163q59 -91 74 -142q22 -77 22 -255v-244zM451 93l-64 -144l-133 86l62 143zM262 3l-62 -145l-133 84l61 145zM473 1269l-112 -230h-46l-111 230h71l63 -140l63 140h72z" />
    <glyph glyph-name="uni06CE.fina" unicode="&#x6ce;" horiz-adv-x="989" 
d="M1097 293h-144q-126 0 -189.5 -8t-63.5 -32q0 -33 76 -33q34 0 53.5 -2t85.5 -11q40 -6 54 -15q24 -15 24 -52q0 -187 -101 -272q-110 -93 -363 -93q-176 0 -280 73q-111 78 -111 222q0 116 52 246q19 47 100 201l32 -20q-31 -65 -61 -129q-47 -110 -47 -180
q0 -123 105 -187q100 -61 275 -61q117 0 207 22q109 27 109 74q0 17 -12 25.5t-41 8.5q-22 3 -69 6.5t-62 3.5q-52 0 -74 16.5t-22 49.5q0 124 60 203q49 64 132 95q62 23 131 23h144v-174zM665 869l-112 -230h-46l-111 230h71l63 -140l63 140h72z" />
    <glyph glyph-name="uni06D0" unicode="&#x6d0;" horiz-adv-x="1072" arabic-form="isolated" 
d="M1135 800q0 -32 -5 -65.5t-6 -47.5q-29 45 -68.5 71t-80.5 26q-72 0 -151 -101q-72 -93 -72 -148q0 -19 18 -28.5t61 -9.5h66q59 0 87 -1.5t67.5 -9.5t39.5 -73q0 -251 -180 -382q-164 -120 -446 -120q-146 0 -223 69q-83 75 -83 226q0 104 28 218q21 87 59 182
q2 6 51 119l35 -17q-52 -112 -79.5 -209.5t-27.5 -172.5q0 -122 69.5 -183t197.5 -61q99 0 229 48q112 41 201 98t89 84q0 19 -10 25t-33 6h-192q-35 0 -62 31t-27 80q0 67 45 182q49 125 119 209q83 101 168 101q54 0 85 -40t31 -106zM595 -194l-28 -70l-77 24l30 70z
M616 -302l-27 -70l-78 24l30 70z" />
    <glyph glyph-name="uni06D0.fina" unicode="&#x6d0;" horiz-adv-x="989" arabic-form="final" 
d="M1097 293h-144q-126 0 -189.5 -8t-63.5 -32q0 -33 76 -33q34 0 53.5 -2t85.5 -11q40 -6 54 -15q24 -15 24 -52q0 -187 -101 -272q-110 -93 -363 -93q-176 0 -280 73q-111 78 -111 222q0 116 52 246q19 47 100 201l32 -20q-31 -65 -61 -129q-47 -110 -47 -180
q0 -123 105 -187q100 -61 275 -61q117 0 207 22q109 27 109 74q0 17 -12 25.5t-41 8.5q-22 3 -69 6.5t-62 3.5q-52 0 -74 16.5t-22 49.5q0 124 60 203q49 64 132 95q62 23 131 23h144v-174zM615 -256l-28 -70l-77 24l30 70zM636 -364l-27 -70l-78 24l30 70z" />
    <glyph glyph-name="uniFBE6" unicode="&#x6d0;" horiz-adv-x="410" arabic-form="initial" 
d="M455 293h-467v174h407q0 118 -23 180q-15 43 -77 124l64 163q59 -91 74 -142q22 -77 22 -255v-244zM328 56l-61 -145l-134 84l62 145zM366 -194l-61 -146l-134 86l63 146z" />
    <glyph glyph-name="uniFBE7" unicode="&#x6d0;" horiz-adv-x="410" arabic-form="medial" 
d="M455 293h-467v174h407q0 118 -23 180q-15 43 -77 124l64 163q59 -91 74 -142q22 -77 22 -255v-244zM328 56l-61 -145l-134 84l62 145zM366 -194l-61 -146l-134 86l63 146z" />
    <glyph glyph-name="uni06D1.fina" unicode="&#x6d1;" horiz-adv-x="989" 
d="M1097 293h-144q-126 0 -189.5 -8t-63.5 -32q0 -33 76 -33q34 0 53.5 -2t85.5 -11q40 -6 54 -15q24 -15 24 -52q0 -187 -101 -272q-110 -93 -363 -93q-176 0 -280 73q-111 78 -111 222q0 116 52 246q19 47 100 201l32 -20q-31 -65 -61 -129q-47 -110 -47 -180
q0 -123 105 -187q100 -61 275 -61q117 0 207 22q109 27 109 74q0 17 -12 25.5t-41 8.5q-22 3 -69 6.5t-62 3.5q-52 0 -74 16.5t-22 49.5q0 124 60 203q49 64 132 95q62 23 131 23h144v-174zM696 -264l-28 -70l-83 29l28 70zM668 -364l-27 -70l-84 29l28 70zM566 -315
l-28 -70l-84 29l28 70z" />
    <glyph glyph-name="uni06D2" unicode="&#x6d2;" horiz-adv-x="1364" arabic-form="isolated" 
d="M1513 114l-207 -165h-959q-95 0 -115 14q-23 16 -24 48q-2 64 20 155.5t50 131.5q19 27 128 100q72 48 145 96q67 47 149 158q57 78 61 82q25 29 52 29q34 0 55 -54q18 -48 18 -119q0 -77 -9 -123q-50 124 -100 124q-44 0 -98 -76q-3 -5 -44 -82q-29 -55 -54 -69
q-83 -52 -207 -129q-99 -58 -99 -83q0 -29 77 -29h1161v-9z" />
    <glyph glyph-name="uni06D2.fina" unicode="&#x6d2;" horiz-adv-x="1364" arabic-form="final" 
d="M1306 -425h-959q-95 0 -115 14q-23 16 -24 48q-2 60 23 158q24 117 47 161q40 72 132 172q357 339 910 339h193v-174h-198q-559 0 -944 -364q-96 -106 -96 -151q0 -29 77 -29h1161v-9z" />
    <glyph glyph-name="uni06D3" unicode="&#x6d3;" horiz-adv-x="1364" arabic-form="isolated" 
d="M1513 114l-207 -165h-959q-95 0 -115 14q-23 16 -24 48q-2 64 20 155.5t50 131.5q19 27 128 100q72 48 145 96q67 47 149 158q57 78 61 82q25 29 52 29q34 0 55 -54q18 -48 18 -119q0 -77 -9 -123q-50 124 -100 124q-44 0 -98 -76q-3 -5 -44 -82q-29 -55 -54 -69
q-83 -52 -207 -129q-99 -58 -99 -83q0 -29 77 -29h1161v-9zM600 838q0 -25 -25 -45q-18 -13 -52 -28l-152 -64q0 46 82 81q-26 16 -39 31q-17 19 -17 40q0 31 43 87q49 62 86 62q16 0 28 -13.5t12 -35.5q0 -14 -5 -28.5t-14 -32.5q-26 28 -55 28q-18 0 -35.5 -9t-17.5 -21
q0 -15 38 -41t65 -26q18 0 26 1.5t32 13.5z" />
    <glyph glyph-name="uni06D3.fina" unicode="&#x6d3;" horiz-adv-x="1364" arabic-form="final" 
d="M1306 -425h-959q-95 0 -115 14q-23 16 -24 48q-2 60 23 158q24 117 47 161q40 72 132 172q357 339 910 339h193v-174h-198q-559 0 -944 -364q-96 -106 -96 -151q0 -29 77 -29h1161v-9zM1300 758q0 -25 -25 -45q-18 -13 -52 -28l-152 -64q0 46 82 81q-26 16 -39 31
q-17 19 -17 40q0 31 43 87q49 62 86 62q16 0 28 -13.5t12 -35.5q0 -14 -5 -28.5t-14 -32.5q-26 28 -55 28q-18 0 -35.5 -9t-17.5 -21q0 -15 38 -41t65 -26q18 0 26 1.5t32 13.5z" />
    <glyph glyph-name="uni06FA.init" unicode="&#x6fa;" horiz-adv-x="892" 
d="M989 293h-63q-52 0 -90 17.5t-69 49.5q-39 -37 -67 -49q-42 -18 -115 -18h-53q-43 0 -86 20q-28 13 -69 43q-39 -36 -72 -49.5t-106 -13.5h-159v174h159q66 0 95 14q47 23 47 92q0 29 -2.5 58t-8.5 65l34 60q22 -92 37 -134q26 -73 58 -110q37 -45 90 -45h55q61 0 91 23
q33 26 33 83q0 31 -3.5 60t-9.5 63l35 60l17 -94q22 -111 54 -154q28 -38 76 -38q22 0 35.5 16.5t13.5 42.5q0 56 -34 118q-6 10 -40 65l53 109q34 -62 46 -107q18 -68 18 -181v-240zM971 50l-64 -145l-132 84l60 146zM689 1394l-63 -146l-131 86l61 146zM851 1216l-64 -144
l-133 86l62 143zM662 1126l-62 -145l-133 84l61 145z" />
    <glyph glyph-name="uni06FB.init" unicode="&#x6fb;" horiz-adv-x="1421" 
d="M1056 1124l-63 -145l-133 84l61 146zM1577 293h-986q-44 0 -84 18q-30 14 -71 45q-35 -36 -69.5 -49.5t-109.5 -13.5h-158v174h158q66 0 95 14q48 23 48 92q0 29 -3 58.5t-9 64.5l34 60q28 -136 78 -210q54 -79 126 -79q69 0 161 38q100 41 173 104q117 102 143 122
q66 52 121 74q60 25 132 25q112 0 169 -79q52 -73 52 -205v-253zM1443 544q0 49 -50 76.5t-116 27.5q-82 0 -199 -67l-184 -114h378q89 0 130 19t41 58zM1131 50l-64 -145l-132 84l60 146z" />
    <glyph glyph-name="uni06FC.init" unicode="&#x6fc;" horiz-adv-x="884" 
d="M542 1224l-61 -145l-134 84l62 146zM887 605l-57 -182q-124 -55 -286.5 -92.5t-299.5 -37.5h-204v174h196q-23 47 -38 106.5t-15 115.5q0 118 81 198t208 80q101 0 166 -60q28 -25 94 -123l-15 -17q-57 19 -102 28.5t-93 9.5q-113 0 -177.5 -30.5t-64.5 -80.5
q0 -49 40.5 -109.5t104.5 -107.5q134 25 220.5 48.5t241.5 79.5zM671 50l-64 -145l-132 84l60 146z" />
    <glyph glyph-name="uni06FC.medi" unicode="&#x6fc;" horiz-adv-x="662" 
d="M455 1224l-63 -145l-132 84l61 146zM734 293h-120q-53 0 -108 31q-66 37 -96 103q-54 -60 -125 -93q-86 -41 -196 -41h-74v174h74q69 0 128 18q67 21 132 67l-34 54q-27 38 -60 38q-14 0 -25.5 -6.5t-25.5 -28.5h-17v59q0 110 47 151q44 37 151 37q93 0 151 -30
q76 -39 76 -120q0 -43 -30 -89q-22 -34 -81 -94q13 -24 50 -40t63 -16h120v-174zM521 50l-64 -145l-132 84l60 146z" />
    <glyph glyph-name="uni06FC.fina" unicode="&#x6fc;" horiz-adv-x="756" 
d="M574 1224l-62 -145l-133 84l62 146zM899 -274l-166 -160q-153 0 -241 17q-159 31 -249 120q-116 115 -116 322q0 137 44 254q34 93 103 187q33 45 121 145q-9 34 -24 50t-32 16q-21 0 -42 -35h-14q17 105 36 145q46 96 151 96q71 0 121 -42q57 -47 57 -122q0 -49 -31 -83
q-29 -28 -47 -46q46 -67 88 -95t106 -28h75v-174h-75q-126 0 -195 46t-111 152q-60 -47 -109 -97q-65 -68 -102 -133q-46 -81 -46 -156q0 -169 139 -262q106 -71 292 -96q99 -13 264 -13zM691 90l-64 -145l-132 84l60 146z" />
    <glyph glyph-name="uniFBA6" unicode="&#x6c1;" horiz-adv-x="474" arabic-form="isolated" 
d="M492 588q0 -141 -38 -212q-58 -110 -213 -110q-60 0 -100 29q-45 33 -45 94q0 70 29 162q26 78 53 157l-12 4l50 169q148 -95 177 -120q99 -84 99 -173zM420 510q0 38 -90 101q-39 27 -83 53q-37 -49 -44 -61q-23 -39 -23 -74q0 -51 23.5 -79.5t62.5 -28.5q46 0 100 31.5
t54 57.5z" />
    <glyph glyph-name="uni06C1.init" unicode="&#x6c1;" horiz-adv-x="410" arabic-form="initial" 
d="M455 293h-467v174h407q0 117 -23 180q-15 44 -77 124l64 163q59 -91 74 -142q22 -77 22 -255v-244zM338 -183q0 -38 -22.5 -63t-53.5 -25q-46 0 -73 55q-22 47 -22 107q0 145 115 244l18 -35q-77 -86 -77 -142q0 -28 57.5 -50.5t57.5 -90.5z" />
    <glyph glyph-name="uni06C1.medi" unicode="&#x6c1;" horiz-adv-x="538" arabic-form="medial" 
d="M597 293h-33q-85 0 -126 -36q-52 -46 -67 -140q-14 -81 -22 -81q-32 0 -58 107q-22 90 -26 181q-3 87 3 133q-65 -164 -193 -164h-73v174h73q171 0 254 281l42 -18q-49 -175 -49 -327q0 -113 18 -173q2 77 43 142q62 95 181 95h33v-174zM452 -332q0 -38 -22 -63t-54 -25
q-46 0 -73 55q-22 47 -22 107q0 145 115 244l18 -35q-77 -86 -77 -142q0 -28 57.5 -50.5t57.5 -90.5z" />
    <glyph glyph-name="uni06EE.fina" unicode="&#x6ee;" horiz-adv-x="567" 
d="M629 293h-368q-46 0 -83.5 33t-37.5 78q0 38 3.5 69t12.5 68h19q9 -41 32 -59q20 -15 54 -15h318q0 179 -41 288q-51 136 -170 181l12 194q142 -85 201 -271q48 -150 48 -392v-174zM525 1239h-72l-63 140l-63 -140h-71l111 230h46z" />
    <glyph glyph-name="uni06EF.fina" unicode="&#x6ef;" horiz-adv-x="821" 
d="M911 293q0 -110 -77 -228q-67 -104 -167 -179q-96 -72 -157 -72q-57 0 -122 20q-50 15 -120 47q-59 27 -117 54l14 40q54 -13 112.5 -26.5t106.5 -13.5q105 0 219 82q103 75 176 189.5t73 206.5q0 79 -38 166q-30 70 -85 144l47 157q67 -76 99 -152q36 -86 36 -192v-243z
M865 1069h-72l-63 140l-63 -140h-71l111 230h46z" />
    <glyph glyph-name="uni06FF.init" unicode="&#x6ff;" horiz-adv-x="756" 
d="M729 462q0 -58 -29 -129q-32 -77 -64 -77q-34 0 -126 52q-84 48 -142 94q-96 -66 -139 -85q-55 -24 -130 -24h-73v174h73q34 0 65 6.5t85 23.5q-22 19 -43 39q-23 25 -23 49q0 17 1 25t11 30l82 173q16 35 29.5 48.5t37.5 21.5q-57 47 -57 67t36 103q13 28 38 83
q52 -61 132 -177q101 -146 159 -261q77 -152 77 -236zM441 679q0 43 -15 68q-17 30 -55 30t-71 -30.5t-33 -73.5q0 -41 101 -108q35 28 52 54q21 30 21 60zM638 450q0 35 -46 109q-28 47 -70 100q0 -49 -17 -91.5t-47 -65.5q49 -31 99 -61q41 -22 58 -22q10 0 16.5 9t6.5 22
zM485 1239h-72l-63 140l-63 -140h-71l111 230h46z" />
    <glyph glyph-name="uni06FF.medi" unicode="&#x6ff;" horiz-adv-x="662" 
d="M734 293h-300q53 -30 90 -85q46 -69 46 -150q0 -78 -19 -125q-25 -59 -77 -59q-99 0 -181 83q-98 100 -98 264l1 72h-181v174h208q28 93 63 173q43 101 91 165q55 74 103 74q26 0 45 -54t19 -115q0 -88 -38 -143q-22 -33 -132 -100h360v-174zM463 636q0 95 -33 95
q-35 0 -84 -94q-24 -45 -68 -150q75 25 126 63q59 44 59 86zM496 74q0 79 -95 152q-78 60 -154 76q0 -110 44 -181q52 -86 156 -86q20 0 34.5 10t14.5 29zM565 1069h-72l-63 140l-63 -140h-71l111 230h46z" />
    <glyph glyph-name="uni06FF.fina" unicode="&#x6ff;" horiz-adv-x="662" 
d="M734 293h-300q53 -30 90 -85q46 -69 46 -150q0 -78 -19 -125q-25 -59 -77 -59q-99 0 -181 83q-98 100 -98 264l1 72h-181v174h208q28 93 63 173q43 101 91 165q55 74 103 74q26 0 45 -54t19 -115q0 -88 -38 -143q-22 -33 -132 -100h360v-174zM463 636q0 95 -33 95
q-35 0 -84 -94q-24 -45 -68 -150q75 25 126 63q59 44 59 86zM496 74q0 79 -95 152q-78 60 -154 76q0 -110 44 -181q52 -86 156 -86q20 0 34.5 10t14.5 29zM565 1069h-72l-63 140l-63 -140h-71l111 230h46z" />
    <glyph glyph-name=".notdef" horiz-adv-x="1260" 
d="M348 0v1280h840v-1280h-840zM374 32h788v1216h-788v-1216z" />
    <glyph glyph-name=".null" 
 />
    <glyph glyph-name="nonmarkingreturn" horiz-adv-x="467" 
 />
    <glyph glyph-name="space" unicode=" " horiz-adv-x="467" 
 />
    <glyph glyph-name="space" unicode="&#xa0;" horiz-adv-x="467" 
 />
    <glyph glyph-name="exclam" unicode="!" horiz-adv-x="466" 
d="M241 364l-45 777v325h182v-325l-42 -777h-95zM202 0v205h170v-205h-170z" />
    <glyph glyph-name="quotedbl" unicode="&#x22;" horiz-adv-x="596" 
d="M184 947l-41 279v240h168v-240l-37 -279h-90zM455 947l-40 279v240h168v-240l-40 -279h-88z" />
    <glyph glyph-name="numbersign" unicode="#" horiz-adv-x="934" 
d="M187 -25l71 426h-138v149h163l61 363h-224v149h248l72 429h123l-72 -429h258l72 429h124l-72 -429h142v-149h-166l-62 -363h228v-149h-252l-72 -426h-123l71 426h-258l-71 -426h-123zM406 550h257l62 363h-258z" />
    <glyph glyph-name="dollar" unicode="$" horiz-adv-x="934" 
d="M521 -211v180q-111 17 -180.5 60.5t-119.5 140.5t-59 237l149 34q17 -145 60 -213q63 -96 150 -107v573q-91 21 -186 86q-71 48 -109 133t-38 193q0 192 111 311q75 80 222 98v86h87v-86q128 -15 204 -92q97 -98 116 -269l-152 -28q-13 106 -54.5 162.5t-113.5 74.5v-519
q111 -34 147 -53q69 -37 112.5 -90t67 -126t23.5 -158q0 -187 -97.5 -312t-252.5 -134v-182h-87zM521 1365q-86 -16 -136 -84t-50 -161q0 -92 42.5 -154t143.5 -99v498zM608 121q86 13 142 91t56 193q0 98 -39.5 157.5t-158.5 106.5v-548z" />
    <glyph glyph-name="percent" unicode="%" horiz-adv-x="1494" 
d="M261 1114q0 157 65 267t188 110q113 0 187.5 -98.5t74.5 -289.5q0 -186 -75 -286.5t-185 -100.5q-109 0 -182 99t-73 299zM518 1367q-55 0 -91.5 -58t-36.5 -213q0 -141 37 -198.5t91 -57.5q56 0 92.5 58t36.5 212q0 142 -37 199.5t-92 57.5zM519 -54l658 1545h119
l-655 -1545h-122zM1039 344q0 158 64.5 267.5t188.5 109.5q113 0 187.5 -98.5t74.5 -289.5q0 -186 -75 -286.5t-186 -100.5q-109 0 -181.5 99.5t-72.5 298.5zM1296 597q-55 0 -91.5 -58t-36.5 -213q0 -140 36.5 -198t90.5 -58q57 0 93.5 58t36.5 212q0 142 -37 199.5
t-92 57.5z" />
    <glyph glyph-name="ampersand" unicode="&#x26;" horiz-adv-x="1120" 
d="M921 173q-73 -99 -159 -148.5t-186 -49.5q-185 0 -293 152q-88 124 -88 277q0 136 72 245.5t214 192.5q-81 114 -108 185t-27 137q0 132 85 229.5t213 97.5q123 0 201.5 -92t78.5 -221q0 -209 -227 -357l216 -335q37 88 57 204l153 -40q-39 -192 -106 -316
q83 -134 188 -225l-100 -143q-89 70 -184 207zM621 937q96 69 124 121t28 115q0 75 -39 122.5t-97 47.5q-60 0 -99.5 -47t-39.5 -115q0 -34 14 -71.5t43 -79.5zM828 315l-270 409q-120 -87 -162 -161.5t-42 -147.5q0 -89 58.5 -185t164.5 -96q67 0 138 50.5t113 130.5z" />
    <glyph glyph-name="quotesingle" unicode="'" horiz-adv-x="321" 
d="M147 947l-38 274v245h168v-245l-39 -274h-91z" />
    <glyph glyph-name="parenleft" unicode="(" horiz-adv-x="560" 
d="M454 -431q-122 188 -206.5 440t-84.5 522q0 238 63 456q74 253 228 504h106q-99 -208 -131 -297q-50 -138 -79 -288q-35 -187 -35 -376q0 -481 245 -961h-106z" />
    <glyph glyph-name="parenright" unicode=")" horiz-adv-x="560" 
d="M269 -431h-106q245 480 245 961q0 188 -35 373q-28 150 -78 288q-32 90 -132 300h106q154 -251 228 -504q63 -218 63 -456q0 -270 -85 -522t-206 -440z" />
    <glyph glyph-name="asterisk" unicode="*" horiz-adv-x="653" 
d="M124 1197l38 142q130 -56 189 -97q-15 181 -16 249h119q-3 -99 -19 -248q84 52 194 96l37 -142q-104 -42 -204 -56q50 -53 141 -189l-98 -85q-48 79 -113 215q-60 -141 -106 -215l-97 85q95 143 136 189q-106 25 -201 56z" />
    <glyph glyph-name="plus" unicode="+" horiz-adv-x="980" 
d="M528 237v402h-327v168h327v399h140v-399h327v-168h-327v-402h-140z" />
    <glyph glyph-name="comma" unicode="," horiz-adv-x="466" 
d="M200 0v205h169v-205q0 -113 -33 -182.5t-104 -107.5l-41 77q46 25 68.5 73.5t24.5 139.5h-84z" />
    <glyph glyph-name="hyphen" unicode="-" horiz-adv-x="559" 
d="M115 440v181h453v-181h-453z" />
    <glyph glyph-name="hyphen" unicode="&#xad;" horiz-adv-x="559" 
d="M115 440v181h453v-181h-453z" />
    <glyph glyph-name="period" unicode="." horiz-adv-x="467" 
d="M204 0v205h168v-205h-168z" />
    <glyph glyph-name="slash" unicode="/" horiz-adv-x="467" 
d="M51 -25l349 1516h118l-348 -1516h-119z" />
    <glyph glyph-name="zero" unicode="0" horiz-adv-x="934" 
d="M172 723q0 260 44 418.5t130.5 244.5t217.5 86q97 0 170 -47.5t120.5 -137t74.5 -218t27 -346.5q0 -258 -43.5 -416.5t-130 -245t-218.5 -86.5q-174 0 -273 152q-119 183 -119 596zM324 723q0 -361 69 -480.5t171 -119.5t171 120t69 480q0 362 -69 481t-172 119
q-102 0 -163 -105q-76 -134 -76 -495z" />
    <glyph glyph-name="one" unicode="1" horiz-adv-x="934" 
d="M728 0h-147v1147q-54 -62 -140.5 -124t-155.5 -93v174q124 71 217 172t131 196h95v-1472z" />
    <glyph glyph-name="two" unicode="2" horiz-adv-x="934" 
d="M948 173v-173h-795q-1 65 18 125q30 99 97 195t193 222q196 196 265 310.5t69 216.5q0 107 -63 180.5t-164 73.5q-106 0 -170 -78t-65 -216l-152 19q16 207 117.5 315.5t273.5 108.5q173 0 273.5 -117t100.5 -290q0 -88 -29.5 -173t-98 -179t-227.5 -258
q-133 -136 -170.5 -184.5t-62.5 -97.5h590z" />
    <glyph glyph-name="three" unicode="3" horiz-adv-x="934" 
d="M173 387l148 24q25 -153 86 -220.5t149 -67.5q104 0 176 88t72 218q0 124 -66.5 204.5t-169.5 80.5q-42 0 -104 -20l17 158q14 -2 23 -2q95 0 170 60t75 185q0 99 -54.5 164t-141.5 65q-86 0 -143.5 -66t-74.5 -198l-147 32q27 181 123 280.5t238 99.5q99 0 181.5 -51.5
t126.5 -140.5t44 -189q0 -95 -41.5 -173t-123.5 -124q106 -30 165 -124.5t59 -236.5q0 -192 -114.5 -325.5t-290.5 -133.5q-158 0 -262.5 115t-119.5 298z" />
    <glyph glyph-name="four" unicode="4" horiz-adv-x="934" 
d="M645 0v351h-521v165l548 950h121v-950h162v-165h-162v-351h-148zM645 516v661l-376 -661h376z" />
    <glyph glyph-name="five" unicode="5" horiz-adv-x="934" 
d="M172 384l155 16q17 -138 80 -207.5t151 -69.5q107 0 181 98t74 260q0 154 -71 243t-186 89q-71 0 -128.5 -39.5t-90.5 -102.5l-139 22l117 753h598v-172h-480l-65 -394q108 92 227 92q158 0 266 -133t108 -342q0 -199 -95 -344q-115 -178 -316 -178q-164 0 -267.5 112
t-118.5 297z" />
    <glyph glyph-name="six" unicode="6" horiz-adv-x="934" 
d="M938 1107l-147 -14q-19 106 -55 154q-60 77 -148 77q-71 0 -124 -48q-70 -62 -110 -181t-42 -339q54 99 131 147t161 48q148 0 251.5 -132.5t103.5 -342.5q0 -138 -48.5 -256.5t-134 -181.5t-193.5 -63q-184 0 -300.5 165.5t-116.5 545.5q0 425 128 618q113 168 303 168
q142 0 232.5 -97t108.5 -268zM335 475q0 -93 32.5 -178t91 -129.5t122.5 -44.5q93 0 160.5 92t67.5 250q0 152 -66.5 239.5t-167.5 87.5q-100 0 -170 -87.5t-70 -229.5z" />
    <glyph glyph-name="seven" unicode="7" horiz-adv-x="934" 
d="M182 1274v173h778v-140q-115 -149 -227.5 -396t-174.5 -508q-44 -184 -56 -403h-152q3 173 56 418t152.5 472.5t212.5 383.5h-589z" />
    <glyph glyph-name="eight" unicode="8" horiz-adv-x="934" 
d="M399 795q-91 41 -135.5 117t-44.5 182q0 160 94.5 269t250.5 109q158 0 253.5 -111.5t95.5 -271.5q0 -102 -43.5 -177.5t-133.5 -116.5q111 -44 169 -142t58 -234q0 -188 -109 -316t-287 -128t-287 128.5t-109 320.5q0 143 59 239.5t169 131.5zM370 1100q0 -104 55 -170
t142 -66q86 0 140.5 65.5t54.5 160.5q0 99 -56.5 166.5t-139.5 67.5q-85 0 -140.5 -66t-55.5 -158zM322 423q0 -77 30 -149t89 -111.5t127 -39.5q106 0 175 83t69 211q0 130 -71 215t-178 85q-104 0 -172.5 -84t-68.5 -210z" />
    <glyph glyph-name="nine" unicode="9" horiz-adv-x="934" 
d="M194 339l142 16q18 -122 69 -177t130 -55q69 0 120 38t84 101.5t55 171.5t22 220q0 12 -1 36q-44 -86 -121 -139.5t-166 -53.5q-149 0 -252.5 132t-103.5 348q0 223 108 359t270 136q117 0 214.5 -77t148 -219.5t50.5 -412.5q0 -281 -50 -447.5t-149 -253.5t-232 -87
q-141 0 -230.5 95.5t-107.5 268.5zM799 986q0 155 -68 246t-163 91q-98 0 -171 -98t-73 -254q0 -140 69 -227.5t171 -87.5q103 0 169 87.5t66 242.5z" />
    <glyph glyph-name="colon" unicode=":" horiz-adv-x="467" 
d="M203 857v205h168v-205h-168zM203 0v205h168v-205h-168z" />
    <glyph glyph-name="semicolon" unicode=";" horiz-adv-x="466" 
d="M200 857v205h169v-205h-169zM200 0v205h169v-205q0 -113 -33 -182.5t-104 -107.5l-41 77q46 25 68.5 73.5t24.5 139.5h-84z" />
    <glyph glyph-name="semicolon" unicode="&#x37e;" horiz-adv-x="466" 
d="M200 857v205h169v-205h-169zM200 0v205h169v-205q0 -113 -33 -182.5t-104 -107.5l-41 77q46 25 68.5 73.5t24.5 139.5h-84z" />
    <glyph glyph-name="less" unicode="&#x3c;" horiz-adv-x="981" 
d="M199 641v168l797 410v-179l-632 -316l632 -319v-179z" />
    <glyph glyph-name="equal" unicode="=" horiz-adv-x="980" 
d="M995 862h-794v168h794v-168zM995 417h-794v168h794v-168z" />
    <glyph glyph-name="greater" unicode="&#x3e;" horiz-adv-x="981" 
d="M996 641l-797 -415v179l631 319l-631 316v179l797 -410v-168z" />
    <glyph glyph-name="question" unicode="?" horiz-adv-x="934" 
d="M490 361q-1 36 -1 54q0 106 24 183q18 58 59 117q29 43 105.5 125.5t99.5 131.5t23 107q0 105 -67 184.5t-165 79.5q-94 0 -157 -72t-83 -225l-152 22q21 205 122 314t268 109q176 0 281 -117t105 -283q0 -96 -37 -177t-144 -197q-72 -78 -94.5 -115t-33 -85t-12.5 -156
h-141zM481 0v205h168v-205h-168z" />
    <glyph glyph-name="at" unicode="@" horiz-adv-x="1705" 
d="M1139 163q-53 -75 -119 -120.5t-133 -45.5q-73 0 -141.5 52t-111.5 160t-43 237q0 159 66.5 318.5t166 239.5t192.5 80q71 0 136 -45.5t112 -138.5l28 155h146l-118 -671q-24 -140 -24 -155q0 -27 16.5 -46.5t40.5 -19.5q44 0 114 61q94 80 148.5 214.5t54.5 277.5
q0 167 -70.5 312t-209.5 232t-307 87q-192 0 -350.5 -109.5t-246 -314t-87.5 -438.5q0 -245 87.5 -422t253 -261.5t366.5 -84.5q214 0 359.5 88t217.5 214h148q-42 -105 -143.5 -214t-241.5 -172.5t-338 -63.5q-182 0 -336 57t-262 171.5t-163 263.5q-69 189 -69 408
q0 244 82 465q100 271 284 415t447 144q203 0 365 -101.5t255 -302.5q80 -173 80 -376q0 -290 -167 -515q-149 -202 -327 -202q-56 0 -91 21t-51 60q-11 25 -16 86zM742 434q0 -137 53.5 -213t122.5 -76q46 0 96.5 33.5t97 99.5t76 167.5t29.5 203.5q0 136 -55.5 211
t-134.5 75q-53 0 -99 -32.5t-89.5 -104.5t-70 -175t-26.5 -189z" />
    <glyph glyph-name="A" unicode="A" horiz-adv-x="1121" 
d="M120 0l462 1466h172l492 -1466h-182l-140 444h-503l-132 -444h-169zM467 602h408l-126 406q-57 185 -85 304q-23 -141 -65 -280z" />
    <glyph glyph-name="B" unicode="B" horiz-adv-x="1120" 
d="M246 0v1466h451q138 0 221 -44.5t130 -137t47 -193.5q0 -94 -41.5 -177t-126.5 -134q109 -39 168 -133t59 -222q0 -103 -36 -191.5t-88.5 -136.5t-131.5 -72.5t-194 -24.5h-458zM405 850h260q106 0 152 17q60 22 91 73t31 128q0 73 -29 128.5t-82 76t-183 20.5h-240v-443
zM405 173h299q77 0 109 7q55 12 91.5 40t60.5 81.5t24 123.5q0 82 -34.5 142.5t-95.5 85t-176 24.5h-278v-504z" />
    <glyph glyph-name="C" unicode="C" horiz-adv-x="1213" 
d="M1120 514l159 -49q-50 -239 -179.5 -364.5t-317.5 -125.5q-195 0 -316.5 96.5t-185 279.5t-63.5 393q0 229 71.5 399.5t204 259t291.5 88.5q181 0 304 -112t171 -315l-157 -45q-41 160 -121 233t-200 73q-139 0 -232 -81t-130.5 -217.5t-37.5 -281.5q0 -187 44.5 -326.5
t139 -208.5t204.5 -69q133 0 226 94t125 279z" />
    <glyph glyph-name="D" unicode="D" horiz-adv-x="1213" 
d="M263 0v1466h414q140 0 214 -21q103 -29 176 -105q95 -98 142.5 -250.5t47.5 -348.5q0 -167 -32 -296t-82 -213.5t-109.5 -133t-143.5 -73.5t-194 -25h-433zM422 173h256q119 0 187 27t108 76q56 69 88 185.5t32 282.5q0 230 -62 353.5t-151 165.5q-64 30 -206 30h-252
v-1120z" />
    <glyph glyph-name="E" unicode="E" horiz-adv-x="1120" 
d="M256 0v1466h869v-173h-710v-449h665v-172h-665v-499h738v-173h-897z" />
    <glyph glyph-name="F" unicode="F" horiz-adv-x="1026" 
d="M250 0v1466h811v-173h-652v-454h565v-173h-565v-666h-159z" />
    <glyph glyph-name="G" unicode="G" horiz-adv-x="1306" 
d="M835 575v172l510 1v-544q-118 -114 -242.5 -171.5t-255.5 -57.5q-177 0 -322 92.5t-218.5 267.5t-73.5 391q0 214 73.5 399.5t211 275.5t317.5 90q130 0 235.5 -51.5t165 -143.5t91.5 -240l-144 -48q-27 112 -67 176t-115 102.5t-166 38.5q-109 0 -188.5 -40.5
t-128 -106.5t-75.5 -145q-46 -136 -46 -295q0 -196 55 -328t161 -196t225 -64q103 0 201.5 48.5t149.5 103.5v273h-354z" />
    <glyph glyph-name="H" unicode="H" horiz-adv-x="1212" 
d="M268 0v1466h159v-602h625v602h159v-1466h-159v691h-625v-691h-159z" />
    <glyph glyph-name="I" unicode="I" horiz-adv-x="467" 
d="M208 0v1466h159v-1466h-159z" />
    <glyph glyph-name="J" unicode="J" horiz-adv-x="840" 
d="M141 416l143 24q6 -168 52 -230t127 -62q60 0 103.5 33.5t59.5 91t16 183.5v1010h159v-999q0 -184 -36.5 -285t-115.5 -154t-185 -53q-159 0 -243 111t-80 330z" />
    <glyph glyph-name="K" unicode="K" horiz-adv-x="1120" 
d="M246 0v1466h159v-727l597 727h216l-505 -594l527 -872h-210l-428 742l-197 -234v-508h-159z" />
    <glyph glyph-name="L" unicode="L" horiz-adv-x="934" 
d="M226 0v1466h159v-1293h592v-173h-751z" />
    <glyph glyph-name="M" unicode="M" horiz-adv-x="1399" 
d="M278 0v1466h240l284 -1038q40 -145 58 -217q20 80 64 235l287 1020h214v-1466h-153v1227l-349 -1227h-144l-347 1248v-1248h-154z" />
    <glyph glyph-name="N" unicode="N" horiz-adv-x="1213" 
d="M261 0v1466h163l632 -1151v1151h152v-1466h-163l-631 1152v-1152h-153z" />
    <glyph glyph-name="O" unicode="O" horiz-adv-x="1306" 
d="M225 714q0 365 160.5 571.5t414.5 206.5q167 0 300.5 -97t203.5 -270.5t70 -393.5q0 -223 -73.5 -399t-209 -266.5t-292.5 -90.5q-169 0 -303 100t-202.5 273t-68.5 366zM389 711q0 -265 116.5 -417.5t293.5 -152.5q179 0 295 154t116 437q0 179 -49.5 312.5t-145 207
t-214.5 73.5q-169 0 -290.5 -141.5t-121.5 -472.5z" />
    <glyph glyph-name="P" unicode="P" horiz-adv-x="1121" 
d="M253 0v1466h453q120 0 183 -14q88 -18 148 -68.5t96.5 -141.5t36.5 -200q0 -187 -97.5 -316.5t-352.5 -129.5h-308v-596h-159zM412 769h310q155 0 219.5 70t64.5 197q0 92 -38 157.5t-100 86.5q-41 13 -149 13h-307v-524z" />
    <glyph glyph-name="Q" unicode="Q" horiz-adv-x="1306" 
d="M1184 157q111 -93 204 -136l-47 -135q-129 57 -258 180q-134 -91 -295 -91q-163 0 -296 96t-204.5 270t-71.5 392q0 217 72 395t205 271t298 93q167 0 300.5 -96.5t203.5 -270t70 -391.5q0 -181 -45 -325.5t-136 -251.5zM834 405q138 -47 227 -140q140 156 140 469
q0 178 -49.5 311t-145 206.5t-214.5 73.5q-178 0 -295 -148.5t-117 -443.5q0 -286 116 -439t296 -153q85 0 161 39q-75 59 -158 84z" />
    <glyph glyph-name="R" unicode="R" horiz-adv-x="1213" 
d="M265 0v1466h533q161 0 244.5 -39.5t133.5 -139.5t50 -221q0 -156 -82.5 -263t-255.5 -136q63 -37 95 -73q70 -78 132 -195l210 -399h-201l-159 305q-69 132 -114 202t-81 98t-73 39q-27 7 -88 7h-185v-651h-159zM424 819h342q109 0 170.5 27.5t93.5 88t32 131.5
q0 104 -62 171t-195 67h-381v-485z" />
    <glyph glyph-name="S" unicode="S" horiz-adv-x="1120" 
d="M198 471l150 16q11 -110 50 -180.5t121 -114t185 -43.5q91 0 160.5 33t103.5 90.5t34 125.5q0 69 -33 120.5t-108 86.5q-48 23 -214 71.5t-232 91.5q-86 55 -128.5 136.5t-42.5 182.5q0 111 52 207.5t151 146.5t220 50q134 0 236 -52.5t157 -154.5t59 -231l-152 -14
q-13 139 -83.5 210t-209.5 71q-144 0 -210 -64.5t-66 -155.5q0 -79 46 -130t240 -104.5t266 -93.5q105 -59 155 -149.5t50 -208.5q0 -117 -55 -220.5t-157.5 -161t-231.5 -57.5q-163 0 -273.5 58t-173 174.5t-66.5 263.5z" />
    <glyph glyph-name="T" unicode="T" horiz-adv-x="1025" 
d="M548 0v1293h-396v173h953v-173h-398v-1293h-159z" />
    <glyph glyph-name="U" unicode="U" horiz-adv-x="1213" 
d="M1052 1466h159v-847q0 -221 -41 -351t-148 -211.5t-281 -81.5q-169 0 -276.5 71t-153.5 205.5t-46 367.5v847h159v-846q0 -191 29 -281.5t100 -139.5t174 -49q175 0 250 97t75 373v846z" />
    <glyph glyph-name="V" unicode="V" horiz-adv-x="1120" 
d="M596 0l-466 1466h173l312 -1065q38 -128 63 -240q28 120 65 240l325 1065h162l-471 -1466h-163z" />
    <glyph glyph-name="W" unicode="W" horiz-adv-x="1586" 
d="M513 0l-319 1466h164l183 -961q29 -151 50 -300q46 235 54 271l229 990h192l172 -742q65 -276 94 -519q23 139 60 319l188 942h160l-329 -1466h-154l-253 1117q-32 140 -38 172q-19 -101 -35 -172l-255 -1117h-163z" />
    <glyph glyph-name="X" unicode="X" horiz-adv-x="1120" 
d="M130 0l465 764l-410 702h190l218 -376q68 -117 97 -180q40 80 95 167l242 389h173l-423 -691l455 -775h-196l-303 523q-25 45 -52 98q-41 -80 -58 -110l-302 -511h-191z" />
    <glyph glyph-name="Y" unicode="Y" horiz-adv-x="1120" 
d="M591 0v621l-463 845h193l237 -442q66 -124 123 -248q54 115 131 259l233 431h185l-480 -845v-621h-159z" />
    <glyph glyph-name="Z" unicode="Z" horiz-adv-x="1026" 
d="M146 0v180l616 939q66 100 125 174h-671v173h861v-173l-675 -1017l-73 -103h768v-173h-951z" />
    <glyph glyph-name="bracketleft" unicode="[" horiz-adv-x="467" 
d="M165 -407v1873h326v-149h-178v-1575h178v-149h-326z" />
    <glyph glyph-name="backslash" unicode="\" horiz-adv-x="467" 
d="M400 -25l-349 1516h119l348 -1516h-118z" />
    <glyph glyph-name="bracketright" unicode="]" horiz-adv-x="467" 
d="M409 -407h-326v149h178v1575h-178v149h326v-1873z" />
    <glyph glyph-name="asciicircum" unicode="^" horiz-adv-x="788" 
d="M282 690h-151l289 801h119l291 -801h-148l-203 597z" />
    <glyph glyph-name="underscore" unicode="_" horiz-adv-x="934" 
d="M77 -407v130h978v-130h-978z" />
    <glyph glyph-name="grave" unicode="`" horiz-adv-x="559" 
d="M443 1194h-119l-190 280h198z" />
    <glyph glyph-name="a" unicode="a" horiz-adv-x="934" 
d="M781 131q-82 -85 -157.5 -120t-162.5 -35q-144 0 -221 85.5t-77 218.5q0 78 29 142.5t76.5 103.5t106.5 59q43 14 131 27q179 26 263 62q1 37 1 47q0 110 -42 155q-56 61 -168 61q-104 0 -153.5 -44.5t-73.5 -157.5l-144 24q19 113 64 182.5t130.5 107t197.5 37.5
t181.5 -32t102.5 -80.5t46 -122.5q7 -46 7 -166v-240q0 -251 9.5 -317.5t37.5 -127.5h-154q-23 56 -30 131zM769 533q-80 -40 -241 -68q-91 -16 -128.5 -36t-58 -58.5t-20.5 -85.5q0 -72 44.5 -120t130.5 -48q85 0 151.5 45.5t97.5 124.5q24 61 24 180v66z" />
    <glyph glyph-name="b" unicode="b" horiz-adv-x="934" 
d="M349 0h-137v1466h148v-523q93 143 239 143q80 0 151.5 -39.5t118 -111t73 -172.5t26.5 -216q0 -273 -111 -422t-266 -149q-154 0 -242 157v-133zM348 539q0 -191 42 -276q70 -139 189 -139q97 0 167.5 102.5t70.5 305.5q0 208 -68 307t-164 99t-166.5 -102.5
t-70.5 -296.5z" />
    <glyph glyph-name="c" unicode="c" horiz-adv-x="840" 
d="M771 389l145 -23q-24 -183 -121.5 -286.5t-240.5 -103.5q-179 0 -287.5 142.5t-108.5 408.5q0 172 46.5 301t142 193.5t208.5 64.5q142 0 232 -87.5t115 -248.5l-143 -27q-21 107 -73 161t-126 54q-111 0 -181 -97.5t-70 -308.5q0 -214 67.5 -311t175.5 -97
q87 0 145.5 65t73.5 200z" />
    <glyph glyph-name="d" unicode="d" horiz-adv-x="934" 
d="M778 0v134q-83 -158 -243 -158q-104 0 -191.5 70t-135.5 195.5t-48 288.5q0 159 43.5 288.5t130.5 198.5t194 69q79 0 140.5 -40.5t99.5 -105.5v526h147v-1466h-137zM312 530q0 -204 70.5 -305t166.5 -101t164 96.5t68 294.5q0 218 -69 320t-170 102q-98 0 -164 -98
t-66 -309z" />
    <glyph glyph-name="e" unicode="e" horiz-adv-x="934" 
d="M809 342l153 -23q-36 -163 -133.5 -253t-249.5 -90q-191 0 -303 143.5t-112 402.5q0 268 113 416t294 148q174 0 285 -145t111 -408q0 -16 -1 -48h-649q8 -175 81 -268t182 -93q81 0 138.5 52t90.5 166zM325 633h486q-10 134 -56 201q-70 104 -183 104q-101 0 -170.5 -83
t-76.5 -222z" />
    <glyph glyph-name="f" unicode="f" horiz-adv-x="467" 
d="M197 0v922h-130v140h130v113q0 107 16 159q21 70 74.5 113.5t150.5 43.5q63 0 138 -18l-22 -157q-46 10 -87 10q-67 0 -95 -35t-28 -131v-98h170v-140h-170v-922h-147z" />
    <glyph glyph-name="g" unicode="g" horiz-adv-x="934" 
d="M186 -88l144 -26q9 -81 50 -118q55 -50 150 -50q102 0 158 50t75 140q12 55 11 231q-97 -139 -241 -139q-180 0 -278 158t-98 379q0 152 45 280.5t130.5 198.5t201.5 70q154 0 254 -152v128h136v-918q0 -248 -41.5 -351.5t-131 -163.5t-220.5 -60q-156 0 -252 85.5
t-93 257.5zM308 550q0 -209 68 -305t171 -96q102 0 170.5 95.5t68.5 299.5q0 195 -70.5 294t-171.5 99q-98 0 -167 -97.5t-69 -289.5z" />
    <glyph glyph-name="h" unicode="h" horiz-adv-x="934" 
d="M213 0v1466h148v-526q103 146 261 146q96 0 167.5 -46.5t102.5 -128.5t31 -238v-673h-148v673q0 135 -48 196.5t-136 61.5q-65 0 -123 -41.5t-82.5 -112.5t-24.5 -196v-581h-148z" />
    <glyph glyph-name="i" unicode="i" horiz-adv-x="374" 
d="M152 1259v207h148v-207h-148zM152 0v1062h148v-1062h-148z" />
    <glyph glyph-name="j" unicode="j" horiz-adv-x="373" 
d="M151 1257v209h147v-209h-147zM-36 -412l28 153q44 -14 69 -14q46 0 68 36.5t22 182.5v1116h147v-1120q0 -196 -41 -273q-54 -100 -178 -100q-59 0 -115 19z" />
    <glyph glyph-name="k" unicode="k" horiz-adv-x="840" 
d="M204 0v1466h147v-836l350 432h191l-333 -394l366 -668h-182l-288 543l-104 -122v-421h-147z" />
    <glyph glyph-name="l" unicode="l" horiz-adv-x="373" 
d="M148 0v1466h148v-1466h-148z" />
    <glyph glyph-name="m" unicode="m" horiz-adv-x="1399" 
d="M264 0v1062h132v-149q41 78 109 125.5t155 47.5q97 0 159 -49t87 -137q104 186 269 186q130 0 199.5 -87.5t69.5 -269.5v-729h-147v669q0 108 -14 155.5t-52 76.5t-89 29q-91 0 -152 -74.5t-61 -238.5v-617h-147v690q0 120 -36 180t-118 60q-63 0 -116 -40t-76.5 -117
t-23.5 -222v-551h-148z" />
    <glyph glyph-name="n" unicode="n" horiz-adv-x="934" 
d="M213 0v1062h133v-151q96 175 277 175q79 0 145 -34.5t99 -90.5t46 -133q8 -50 8 -175v-653h-148v646q0 110 -17 164.5t-61 87t-103 32.5q-94 0 -162.5 -73t-68.5 -277v-580h-148z" />
    <glyph glyph-name="o" unicode="o" horiz-adv-x="934" 
d="M158 531q0 295 135 437q112 118 274 118q179 0 293 -143.5t114 -396.5q0 -205 -50.5 -322.5t-146.5 -182.5t-210 -65q-183 0 -296 143t-113 412zM310 531q0 -204 73 -305.5t184 -101.5q110 0 182.5 102t72.5 311q0 197 -73 298.5t-182 101.5q-111 0 -184 -101t-73 -305z
" />
    <glyph glyph-name="p" unicode="p" horiz-adv-x="934" 
d="M213 -407v1469h135v-138q47 81 107 121.5t145 40.5q112 0 197 -70t128.5 -197.5t43.5 -279.5q0 -163 -48 -293.5t-139.5 -200t-191.5 -69.5q-74 0 -132.5 38t-96.5 96v-517h-148zM347 525q0 -205 68 -303t165 -98q98 0 168 101.5t70 314.5q0 203 -68.5 304t-163.5 101
q-94 0 -166.5 -107.5t-72.5 -312.5z" />
    <glyph glyph-name="q" unicode="q" horiz-adv-x="934" 
d="M768 -407v520q-34 -59 -96 -98t-132 -39q-155 0 -266.5 151t-111.5 414q0 160 45.5 287t132 192.5t189.5 65.5q161 0 254 -166v142h133v-1469h-148zM313 534q0 -205 70.5 -307.5t169.5 -102.5q94 0 162 97.5t68 296.5q0 212 -71.5 319t-168.5 107q-96 0 -163 -99.5
t-67 -310.5z" />
    <glyph glyph-name="r" unicode="r" horiz-adv-x="559" 
d="M170 0v1062h133v-161q51 113 94 149t95 36q75 0 152 -58l-51 -167q-54 39 -108 39q-49 0 -87.5 -35.5t-54.5 -98.5q-25 -96 -25 -210v-556h-148z" />
    <glyph glyph-name="s" unicode="s" horiz-adv-x="840" 
d="M144 317l146 28q12 -107 68 -164t157 -57q102 0 151 50.5t49 118.5q0 61 -43 96q-30 24 -151 61q-162 50 -225 86.5t-95.5 101t-32.5 142.5q0 71 27 131.5t73 100.5q34 31 93.5 52.5t127.5 21.5q103 0 180.5 -36t114 -97.5t50.5 -164.5l-144 -24q-10 82 -57 128t-133 46
q-102 0 -145.5 -41t-43.5 -96q0 -35 18 -63q18 -29 57 -48q22 -10 130 -46q157 -51 219 -83.5t97 -94.5t35 -154q0 -90 -43 -169.5t-124 -123t-184 -43.5q-170 0 -259 86t-113 255z" />
    <glyph glyph-name="t" unicode="t" horiz-adv-x="467" 
d="M484 161l21 -159q-62 -16 -111 -16q-80 0 -124.5 31t-62.5 81.5t-18 212.5v611h-108v140h108v263l147 108v-371h148v-140h-148v-621q0 -77 7.5 -99t25.5 -35t50 -13q25 0 65 7z" />
    <glyph glyph-name="u" unicode="u" horiz-adv-x="934" 
d="M784 0v156q-102 -180 -276 -180q-77 0 -144 36t-99.5 90.5t-45.5 133.5q-9 53 -9 168v658h148v-589q0 -141 9 -190q13 -71 58.5 -111.5t111.5 -40.5q67 0 125 41.5t82 113t24 207.5v569h148v-1062h-132z" />
    <glyph glyph-name="v" unicode="v" horiz-adv-x="839" 
d="M445 0l-332 1062h156l187 -636q31 -103 56 -214q20 84 55 202l193 648h152l-329 -1062h-138z" />
    <glyph glyph-name="w" unicode="w" horiz-adv-x="1213" 
d="M405 0l-267 1062h153l138 -613l52 -228q3 17 45 219l138 622h152l131 -616l43 -203l50 205l149 614h144l-272 -1062h-154l-138 636l-34 181l-176 -817h-154z" />
    <glyph glyph-name="x" unicode="x" horiz-adv-x="839" 
d="M104 0l319 552l-295 510h185l133 -249q38 -71 61 -119q36 66 67 117l146 251h177l-301 -500l324 -562h-182l-178 330l-48 89l-229 -419h-179z" />
    <glyph glyph-name="y" unicode="y" horiz-adv-x="840" 
d="M196 -409l-16 169q48 -16 84 -16q50 0 79.5 20t47.5 56q14 27 46 134q4 15 13 44l-331 1064h159l182 -615q35 -117 63 -246q25 124 60 242l186 619h148l-331 -1080q-53 -175 -83 -241q-39 -89 -90 -130.5t-122 -41.5q-42 0 -95 22z" />
    <glyph glyph-name="z" unicode="z" horiz-adv-x="840" 
d="M125 0v146l554 776q-94 -6 -166 -6h-355v146h712v-119l-472 -674l-91 -123q99 9 186 9h403v-155h-771z" />
    <glyph glyph-name="braceleft" unicode="{" horiz-adv-x="561" 
d="M108 612q63 2 103 41.5t53 108.5t14 236t5 220q7 84 27.5 135t50 81.5t74.5 46.5q32 10 102 10h46v-157h-25q-86 0 -113.5 -37.5t-27.5 -167.5q0 -262 -9 -331q-15 -107 -50.5 -165t-112.5 -103q90 -46 131 -140.5t41 -309.5q0 -195 3 -232q6 -68 33 -95t105 -27h25v-157
h-46q-80 0 -116 16q-53 23 -87.5 74.5t-44.5 130.5t-11 259t-14 249t-53 109t-103 42v163z" />
    <glyph glyph-name="bar" unicode="|" horiz-adv-x="436" 
d="M202 -431v1922h129v-1922h-129z" />
    <glyph glyph-name="braceright" unicode="}" horiz-adv-x="561" 
d="M575 612v-163q-63 -2 -103 -42t-53 -108.5t-14 -235.5t-5 -220q-7 -85 -27 -135.5t-49.5 -81t-75.5 -46.5q-31 -11 -102 -11h-46v157h26q85 0 113 37.5t28 168.5q0 250 7 317q13 111 52.5 177.5t111.5 103.5q-94 55 -132.5 145.5t-38.5 305.5q0 195 -5 233
q-5 67 -32 93.5t-104 26.5h-26v157h46q80 0 116 -16q53 -22 87.5 -74t44.5 -131t11 -259t14 -248.5t53 -108.5t103 -42z" />
    <glyph glyph-name="asciitilde" unicode="~" horiz-adv-x="980" 
d="M179 557v205q87 120 228 120q49 0 103 -17.5t154 -69.5q57 -29 85.5 -38t56.5 -9q54 0 111 39t101 98v-212q-53 -60 -106.5 -87t-120.5 -27q-49 0 -94 14t-142 67t-162 53q-52 0 -98.5 -27.5t-115.5 -108.5z" />
    <glyph glyph-name="Adieresis" unicode="&#xc4;" horiz-adv-x="1121" 
d="M120 0l462 1466h172l492 -1466h-182l-140 444h-503l-132 -444h-169zM467 602h408l-126 406q-57 185 -85 304q-23 -141 -65 -280zM429 1556v205h155v-205h-155zM735 1556v205h154v-205h-154z" />
    <glyph glyph-name="Aring" unicode="&#xc5;" horiz-adv-x="1121" 
d="M120 0l462 1466h172l492 -1466h-182l-140 444h-503l-132 -444h-169zM467 602h408l-126 406q-57 185 -85 304q-23 -141 -65 -280zM513 1601q0 73 44 126t104 53q61 0 104 -53.5t43 -129.5q0 -77 -43 -130t-103 -53q-62 0 -105.5 53.5t-43.5 133.5zM576 1600
q0 -47 25.5 -79t60.5 -32q36 0 61.5 32t25.5 77t-25 77t-62 32q-35 0 -60.5 -31.5t-25.5 -75.5z" />
    <glyph glyph-name="Ccedilla" unicode="&#xc7;" horiz-adv-x="1213" 
d="M1120 514l159 -49q-50 -239 -179.5 -364.5t-317.5 -125.5q-195 0 -316.5 96.5t-185 279.5t-63.5 393q0 229 71.5 399.5t204 259t291.5 88.5q181 0 304 -112t171 -315l-157 -45q-41 160 -121 233t-200 73q-139 0 -232 -81t-130.5 -217.5t-37.5 -281.5q0 -187 44.5 -326.5
t139 -208.5t204.5 -69q133 0 226 94t125 279zM643 -154l42 177h110l-27 -107q70 -10 105 -52.5t35 -94.5q0 -75 -59 -132.5t-178 -57.5q-67 0 -118 12l9 117q53 -4 77 -4q77 0 108 26q24 20 24 49q0 18 -9.5 32t-34.5 24t-84 11z" />
    <glyph glyph-name="Eacute" unicode="&#xc9;" horiz-adv-x="1120" 
d="M256 0v1466h869v-173h-710v-449h665v-172h-665v-499h738v-173h-897zM583 1556l109 280h194l-180 -280h-123z" />
    <glyph glyph-name="Ntilde" unicode="&#xd1;" horiz-adv-x="1213" 
d="M261 0v1466h163l632 -1151v1151h152v-1466h-163l-631 1152v-1152h-153zM490 1556q-1 104 47 166q47 62 120 62q50 0 138 -54q49 -30 77 -30q26 0 40 17.5t20 69.5h107q-3 -114 -47.5 -171t-113.5 -57q-52 0 -136 56q-55 36 -80 36q-28 0 -46 -24t-17 -71h-109z" />
    <glyph glyph-name="Odieresis" unicode="&#xd6;" horiz-adv-x="1306" 
d="M225 714q0 365 160.5 571.5t414.5 206.5q167 0 300.5 -97t203.5 -270.5t70 -393.5q0 -223 -73.5 -399t-209 -266.5t-292.5 -90.5q-169 0 -303 100t-202.5 273t-68.5 366zM389 711q0 -265 116.5 -417.5t293.5 -152.5q179 0 295 154t116 437q0 179 -49.5 312.5t-145 207
t-214.5 73.5q-169 0 -290.5 -141.5t-121.5 -472.5zM566 1556v205h155v-205h-155zM872 1556v205h154v-205h-154z" />
    <glyph glyph-name="Udieresis" unicode="&#xdc;" horiz-adv-x="1213" 
d="M1052 1466h159v-847q0 -221 -41 -351t-148 -211.5t-281 -81.5q-169 0 -276.5 71t-153.5 205.5t-46 367.5v847h159v-846q0 -191 29 -281.5t100 -139.5t174 -49q175 0 250 97t75 373v846zM504 1556v205h155v-205h-155zM810 1556v205h154v-205h-154z" />
    <glyph glyph-name="aacute" unicode="&#xe1;" horiz-adv-x="934" 
d="M781 131q-82 -85 -157.5 -120t-162.5 -35q-144 0 -221 85.5t-77 218.5q0 78 29 142.5t76.5 103.5t106.5 59q43 14 131 27q179 26 263 62q1 37 1 47q0 110 -42 155q-56 61 -168 61q-104 0 -153.5 -44.5t-73.5 -157.5l-144 24q19 113 64 182.5t130.5 107t197.5 37.5
t181.5 -32t102.5 -80.5t46 -122.5q7 -46 7 -166v-240q0 -251 9.5 -317.5t37.5 -127.5h-154q-23 56 -30 131zM769 533q-80 -40 -241 -68q-91 -16 -128.5 -36t-58 -58.5t-20.5 -85.5q0 -72 44.5 -120t130.5 -48q85 0 151.5 45.5t97.5 124.5q24 61 24 180v66zM484 1194l109 280
h194l-180 -280h-123z" />
    <glyph glyph-name="agrave" unicode="&#xe0;" horiz-adv-x="934" 
d="M781 131q-82 -85 -157.5 -120t-162.5 -35q-144 0 -221 85.5t-77 218.5q0 78 29 142.5t76.5 103.5t106.5 59q43 14 131 27q179 26 263 62q1 37 1 47q0 110 -42 155q-56 61 -168 61q-104 0 -153.5 -44.5t-73.5 -157.5l-144 24q19 113 64 182.5t130.5 107t197.5 37.5
t181.5 -32t102.5 -80.5t46 -122.5q7 -46 7 -166v-240q0 -251 9.5 -317.5t37.5 -127.5h-154q-23 56 -30 131zM769 533q-80 -40 -241 -68q-91 -16 -128.5 -36t-58 -58.5t-20.5 -85.5q0 -72 44.5 -120t130.5 -48q85 0 151.5 45.5t97.5 124.5q24 61 24 180v66zM693 1194h-119
l-190 280h198z" />
    <glyph glyph-name="acircumflex" unicode="&#xe2;" horiz-adv-x="934" 
d="M781 131q-82 -85 -157.5 -120t-162.5 -35q-144 0 -221 85.5t-77 218.5q0 78 29 142.5t76.5 103.5t106.5 59q43 14 131 27q179 26 263 62q1 37 1 47q0 110 -42 155q-56 61 -168 61q-104 0 -153.5 -44.5t-73.5 -157.5l-144 24q19 113 64 182.5t130.5 107t197.5 37.5
t181.5 -32t102.5 -80.5t46 -122.5q7 -46 7 -166v-240q0 -251 9.5 -317.5t37.5 -127.5h-154q-23 56 -30 131zM769 533q-80 -40 -241 -68q-91 -16 -128.5 -36t-58 -58.5t-20.5 -85.5q0 -72 44.5 -120t130.5 -48q85 0 151.5 45.5t97.5 124.5q24 61 24 180v66zM565 1364
l-92 -170h-169l177 280h157l185 -280h-167z" />
    <glyph glyph-name="adieresis" unicode="&#xe4;" horiz-adv-x="934" 
d="M781 131q-82 -85 -157.5 -120t-162.5 -35q-144 0 -221 85.5t-77 218.5q0 78 29 142.5t76.5 103.5t106.5 59q43 14 131 27q179 26 263 62q1 37 1 47q0 110 -42 155q-56 61 -168 61q-104 0 -153.5 -44.5t-73.5 -157.5l-144 24q19 113 64 182.5t130.5 107t197.5 37.5
t181.5 -32t102.5 -80.5t46 -122.5q7 -46 7 -166v-240q0 -251 9.5 -317.5t37.5 -127.5h-154q-23 56 -30 131zM769 533q-80 -40 -241 -68q-91 -16 -128.5 -36t-58 -58.5t-20.5 -85.5q0 -72 44.5 -120t130.5 -48q85 0 151.5 45.5t97.5 124.5q24 61 24 180v66zM333 1270v205h155
v-205h-155zM639 1270v205h154v-205h-154z" />
    <glyph glyph-name="atilde" unicode="&#xe3;" horiz-adv-x="934" 
d="M781 131q-82 -85 -157.5 -120t-162.5 -35q-144 0 -221 85.5t-77 218.5q0 78 29 142.5t76.5 103.5t106.5 59q43 14 131 27q179 26 263 62q1 37 1 47q0 110 -42 155q-56 61 -168 61q-104 0 -153.5 -44.5t-73.5 -157.5l-144 24q19 113 64 182.5t130.5 107t197.5 37.5
t181.5 -32t102.5 -80.5t46 -122.5q7 -46 7 -166v-240q0 -251 9.5 -317.5t37.5 -127.5h-154q-23 56 -30 131zM769 533q-80 -40 -241 -68q-91 -16 -128.5 -36t-58 -58.5t-20.5 -85.5q0 -72 44.5 -120t130.5 -48q85 0 151.5 45.5t97.5 124.5q24 61 24 180v66zM289 1219
q-1 104 47 166q47 62 120 62q50 0 138 -54q49 -30 77 -30q26 0 40 17.5t20 69.5h107q-3 -114 -47.5 -171t-113.5 -57q-52 0 -136 56q-55 36 -80 36q-28 0 -46 -24t-17 -71h-109z" />
    <glyph glyph-name="aring" unicode="&#xe5;" horiz-adv-x="934" 
d="M781 131q-82 -85 -157.5 -120t-162.5 -35q-144 0 -221 85.5t-77 218.5q0 78 29 142.5t76.5 103.5t106.5 59q43 14 131 27q179 26 263 62q1 37 1 47q0 110 -42 155q-56 61 -168 61q-104 0 -153.5 -44.5t-73.5 -157.5l-144 24q19 113 64 182.5t130.5 107t197.5 37.5
t181.5 -32t102.5 -80.5t46 -122.5q7 -46 7 -166v-240q0 -251 9.5 -317.5t37.5 -127.5h-154q-23 56 -30 131zM769 533q-80 -40 -241 -68q-91 -16 -128.5 -36t-58 -58.5t-20.5 -85.5q0 -72 44.5 -120t130.5 -48q85 0 151.5 45.5t97.5 124.5q24 61 24 180v66zM415 1338
q0 73 44 126t104 53q61 0 104 -53.5t43 -129.5q0 -77 -43 -130t-103 -53q-62 0 -105.5 53.5t-43.5 133.5zM478 1337q0 -47 25.5 -79t60.5 -32q36 0 61.5 32t25.5 77t-25 77t-62 32q-35 0 -60.5 -31.5t-25.5 -75.5z" />
    <glyph glyph-name="ccedilla" unicode="&#xe7;" horiz-adv-x="840" 
d="M771 389l145 -23q-24 -183 -121.5 -286.5t-240.5 -103.5q-179 0 -287.5 142.5t-108.5 408.5q0 172 46.5 301t142 193.5t208.5 64.5q142 0 232 -87.5t115 -248.5l-143 -27q-21 107 -73 161t-126 54q-111 0 -181 -97.5t-70 -308.5q0 -214 67.5 -311t175.5 -97
q87 0 145.5 65t73.5 200zM434 -134l42 177h110l-27 -107q70 -10 105 -52.5t35 -94.5q0 -75 -59 -132.5t-178 -57.5q-67 0 -118 12l9 117q53 -4 77 -4q77 0 108 26q24 20 24 49q0 18 -9.5 32t-34.5 24t-84 11z" />
    <glyph glyph-name="eacute" unicode="&#xe9;" horiz-adv-x="934" 
d="M809 342l153 -23q-36 -163 -133.5 -253t-249.5 -90q-191 0 -303 143.5t-112 402.5q0 268 113 416t294 148q174 0 285 -145t111 -408q0 -16 -1 -48h-649q8 -175 81 -268t182 -93q81 0 138.5 52t90.5 166zM325 633h486q-10 134 -56 201q-70 104 -183 104q-101 0 -170.5 -83
t-76.5 -222zM486 1194l109 280h194l-180 -280h-123z" />
    <glyph glyph-name="egrave" unicode="&#xe8;" horiz-adv-x="934" 
d="M809 342l153 -23q-36 -163 -133.5 -253t-249.5 -90q-191 0 -303 143.5t-112 402.5q0 268 113 416t294 148q174 0 285 -145t111 -408q0 -16 -1 -48h-649q8 -175 81 -268t182 -93q81 0 138.5 52t90.5 166zM325 633h486q-10 134 -56 201q-70 104 -183 104q-101 0 -170.5 -83
t-76.5 -222zM664 1194h-119l-190 280h198z" />
    <glyph glyph-name="ecircumflex" unicode="&#xea;" horiz-adv-x="934" 
d="M809 342l153 -23q-36 -163 -133.5 -253t-249.5 -90q-191 0 -303 143.5t-112 402.5q0 268 113 416t294 148q174 0 285 -145t111 -408q0 -16 -1 -48h-649q8 -175 81 -268t182 -93q81 0 138.5 52t90.5 166zM325 633h486q-10 134 -56 201q-70 104 -183 104q-101 0 -170.5 -83
t-76.5 -222zM566 1364l-92 -170h-169l177 280h157l185 -280h-167z" />
    <glyph glyph-name="edieresis" unicode="&#xeb;" horiz-adv-x="934" 
d="M809 342l153 -23q-36 -163 -133.5 -253t-249.5 -90q-191 0 -303 143.5t-112 402.5q0 268 113 416t294 148q174 0 285 -145t111 -408q0 -16 -1 -48h-649q8 -175 81 -268t182 -93q81 0 138.5 52t90.5 166zM325 633h486q-10 134 -56 201q-70 104 -183 104q-101 0 -170.5 -83
t-76.5 -222zM334 1270v205h155v-205h-155zM640 1270v205h154v-205h-154z" />
    <glyph glyph-name="iacute" unicode="&#xed;" horiz-adv-x="467" 
d="M214 0v1062h147v-1062h-147zM210 1194l109 280h194l-180 -280h-123z" />
    <glyph glyph-name="igrave" unicode="&#xec;" horiz-adv-x="467" 
d="M214 0v1062h147v-1062h-147zM389 1194h-119l-190 280h198z" />
    <glyph glyph-name="icircumflex" unicode="&#xee;" horiz-adv-x="467" 
d="M214 0v1062h147v-1062h-147zM301 1364l-92 -170h-169l177 280h157l185 -280h-167z" />
    <glyph glyph-name="idieresis" unicode="&#xef;" horiz-adv-x="466" 
d="M214 0v1062h147v-1062h-147zM59 1270v205h155v-205h-155zM365 1270v205h154v-205h-154z" />
    <glyph glyph-name="ntilde" unicode="&#xf1;" horiz-adv-x="934" 
d="M213 0v1062h133v-151q96 175 277 175q79 0 145 -34.5t99 -90.5t46 -133q8 -50 8 -175v-653h-148v646q0 110 -17 164.5t-61 87t-103 32.5q-94 0 -162.5 -73t-68.5 -277v-580h-148zM322 1219q-1 104 47 166q47 62 120 62q50 0 138 -54q49 -30 77 -30q26 0 40 17.5t20 69.5
h107q-3 -114 -47.5 -171t-113.5 -57q-52 0 -136 56q-55 36 -80 36q-28 0 -46 -24t-17 -71h-109z" />
    <glyph glyph-name="oacute" unicode="&#xf3;" horiz-adv-x="934" 
d="M158 531q0 295 135 437q112 118 274 118q179 0 293 -143.5t114 -396.5q0 -205 -50.5 -322.5t-146.5 -182.5t-210 -65q-183 0 -296 143t-113 412zM310 531q0 -204 73 -305.5t184 -101.5q110 0 182.5 102t72.5 311q0 197 -73 298.5t-182 101.5q-111 0 -184 -101t-73 -305z
M487 1194l109 280h194l-180 -280h-123z" />
    <glyph glyph-name="ograve" unicode="&#xf2;" horiz-adv-x="934" 
d="M158 531q0 295 135 437q112 118 274 118q179 0 293 -143.5t114 -396.5q0 -205 -50.5 -322.5t-146.5 -182.5t-210 -65q-183 0 -296 143t-113 412zM310 531q0 -204 73 -305.5t184 -101.5q110 0 182.5 102t72.5 311q0 197 -73 298.5t-182 101.5q-111 0 -184 -101t-73 -305z
M665 1194h-119l-190 280h198z" />
    <glyph glyph-name="ocircumflex" unicode="&#xf4;" horiz-adv-x="934" 
d="M158 531q0 295 135 437q112 118 274 118q179 0 293 -143.5t114 -396.5q0 -205 -50.5 -322.5t-146.5 -182.5t-210 -65q-183 0 -296 143t-113 412zM310 531q0 -204 73 -305.5t184 -101.5q110 0 182.5 102t72.5 311q0 197 -73 298.5t-182 101.5q-111 0 -184 -101t-73 -305z
M567 1364l-92 -170h-169l177 280h157l185 -280h-167z" />
    <glyph glyph-name="odieresis" unicode="&#xf6;" horiz-adv-x="934" 
d="M158 531q0 295 135 437q112 118 274 118q179 0 293 -143.5t114 -396.5q0 -205 -50.5 -322.5t-146.5 -182.5t-210 -65q-183 0 -296 143t-113 412zM310 531q0 -204 73 -305.5t184 -101.5q110 0 182.5 102t72.5 311q0 197 -73 298.5t-182 101.5q-111 0 -184 -101t-73 -305z
M335 1270v205h155v-205h-155zM641 1270v205h154v-205h-154z" />
    <glyph glyph-name="otilde" unicode="&#xf5;" horiz-adv-x="934" 
d="M158 531q0 295 135 437q112 118 274 118q179 0 293 -143.5t114 -396.5q0 -205 -50.5 -322.5t-146.5 -182.5t-210 -65q-183 0 -296 143t-113 412zM310 531q0 -204 73 -305.5t184 -101.5q110 0 182.5 102t72.5 311q0 197 -73 298.5t-182 101.5q-111 0 -184 -101t-73 -305z
M291 1219q-1 104 47 166q47 62 120 62q50 0 138 -54q49 -30 77 -30q26 0 40 17.5t20 69.5h107q-3 -114 -47.5 -171t-113.5 -57q-52 0 -136 56q-55 36 -80 36q-28 0 -46 -24t-17 -71h-109z" />
    <glyph glyph-name="uacute" unicode="&#xfa;" horiz-adv-x="934" 
d="M784 0v156q-102 -180 -276 -180q-77 0 -144 36t-99.5 90.5t-45.5 133.5q-9 53 -9 168v658h148v-589q0 -141 9 -190q13 -71 58.5 -111.5t111.5 -40.5q67 0 125 41.5t82 113t24 207.5v569h148v-1062h-132zM474 1194l109 280h194l-180 -280h-123z" />
    <glyph glyph-name="ugrave" unicode="&#xf9;" horiz-adv-x="934" 
d="M784 0v156q-102 -180 -276 -180q-77 0 -144 36t-99.5 90.5t-45.5 133.5q-9 53 -9 168v658h148v-589q0 -141 9 -190q13 -71 58.5 -111.5t111.5 -40.5q67 0 125 41.5t82 113t24 207.5v569h148v-1062h-132zM706 1194h-119l-190 280h198z" />
    <glyph glyph-name="ucircumflex" unicode="&#xfb;" horiz-adv-x="934" 
d="M784 0v156q-102 -180 -276 -180q-77 0 -144 36t-99.5 90.5t-45.5 133.5q-9 53 -9 168v658h148v-589q0 -141 9 -190q13 -71 58.5 -111.5t111.5 -40.5q67 0 125 41.5t82 113t24 207.5v569h148v-1062h-132zM563 1364l-92 -170h-169l177 280h157l185 -280h-167z" />
    <glyph glyph-name="udieresis" unicode="&#xfc;" horiz-adv-x="934" 
d="M784 0v156q-102 -180 -276 -180q-77 0 -144 36t-99.5 90.5t-45.5 133.5q-9 53 -9 168v658h148v-589q0 -141 9 -190q13 -71 58.5 -111.5t111.5 -40.5q67 0 125 41.5t82 113t24 207.5v569h148v-1062h-132zM331 1270v205h155v-205h-155zM637 1270v205h154v-205h-154z" />
    <glyph glyph-name="dagger" unicode="&#x2020;" horiz-adv-x="934" 
d="M490 -346v1212h-328v160h328v406h147v-406h330v-160h-330v-1212h-147z" />
    <glyph glyph-name="degree" unicode="&#xb0;" horiz-adv-x="672" 
d="M179 1214q0 115 66.5 196t160.5 81q95 0 161.5 -81t66.5 -196t-67 -196.5t-161 -81.5t-160.5 81t-66.5 197zM268 1214q0 -70 40.5 -119.5t98.5 -49.5q56 0 96.5 49.5t40.5 119.5t-40.5 119.5t-96.5 49.5q-58 0 -98.5 -49.5t-40.5 -119.5z" />
    <glyph glyph-name="cent" unicode="&#xa2;" horiz-adv-x="934" 
d="M713 894l-182 -766q27 -9 50 -9q85 0 147 71t76 199l146 -20q-27 -185 -128 -291t-239 -106q-40 0 -84 14l-97 -395l-92 32l94 398q-94 55 -154 183.5t-60 321.5q0 178 48 305.5t143.5 191.5t194.5 64q30 0 82 -8l93 387l90 -32l-92 -387q82 -43 125.5 -115.5
t60.5 -181.5l-144 -27q-21 112 -78 171zM626 940q-27 3 -41 3q-68 0 -126.5 -45.5t-87.5 -141t-29 -221.5q0 -132 26 -223t75 -135z" />
    <glyph glyph-name="sterling" unicode="&#xa3;" horiz-adv-x="934" 
d="M427 809h259v-148h-233q15 -44 15 -88q0 -87 -34 -184t-112 -198q65 22 118 22q68 0 154 -25q141 -41 191 -41q60 0 157 56l48 -165q-76 -39 -117.5 -51t-82.5 -12q-34 0 -69 8q-22 5 -106 36.5t-109 37.5q-39 8 -77 8q-59 0 -126 -25t-122 -68l-56 173q78 53 133 151.5
t55 240.5q0 61 -14 124h-160v148h126q-27 112 -34.5 163.5t-7.5 100.5q0 208 126 325q102 93 246 93q149 0 245 -99.5t119 -279.5l-147 -27q-12 120 -73.5 189t-146.5 69q-91 0 -151.5 -71.5t-60.5 -172.5q0 -111 47 -290z" />
    <glyph glyph-name="section" unicode="&#xa7;" horiz-adv-x="934" 
d="M220 -70l148 26q23 -130 73 -182.5t136 -52.5q84 0 131 52t47 122q0 51 -29 94q-51 75 -279 245q-121 91 -169 142.5t-78.5 121.5t-30.5 146q0 96 49 174t135 109q-58 68 -81.5 125.5t-23.5 122.5q0 128 82 222t217 94q153 0 239 -89t104 -258l-154 -19q-17 122 -60 170
t-116 48q-75 0 -121.5 -49.5t-46.5 -109.5q0 -52 29 -96q46 -68 251 -220q129 -96 174 -141q58 -60 85.5 -124t27.5 -139q0 -113 -59 -193q-35 -46 -127 -93q66 -61 98.5 -131t32.5 -150q0 -88 -41 -166.5t-118.5 -120t-166.5 -41.5q-157 0 -248.5 95.5t-109.5 265.5z
M699 244q61 38 91 88.5t30 98.5q0 57 -43 120t-184 169q-112 84 -167 138q-67 -46 -95 -92t-28 -102q0 -63 37 -120q38 -57 170 -152q110 -79 189 -148z" />
    <glyph glyph-name="bullet" unicode="&#x2022;" horiz-adv-x="588" 
d="M154 718q0 105 61 179t146 74q86 0 147.5 -74t61.5 -179t-61.5 -179.5t-147.5 -74.5q-85 0 -146 74.5t-61 179.5z" />
    <glyph glyph-name="paragraph" unicode="&#xb6;" horiz-adv-x="902" 
d="M431 -407v1045q-153 10 -242 121.5t-89 284.5q0 193 98.5 307.5t289.5 114.5h519v-173h-118v-1700h-140v1700h-183v-1700h-135z" />
    </font>
</defs>
</svg>
